<?xml version="1.0" encoding="utf-8" standalone="no"?>
<!DOCTYPE svg PUBLIC "-//W3C//DTD SVG 1.1//EN"
  "http://www.w3.org/Graphics/SVG/1.1/DTD/svg11.dtd">
<svg xmlns:xlink="http://www.w3.org/1999/xlink" width="501.175266pt" height="371.28125pt" viewBox="0 0 501.175266 371.28125" xmlns="http://www.w3.org/2000/svg" version="1.1">
 <metadata>
  <rdf:RDF xmlns:dc="http://purl.org/dc/elements/1.1/" xmlns:cc="http://creativecommons.org/ns#" xmlns:rdf="http://www.w3.org/1999/02/22-rdf-syntax-ns#">
   <cc:Work>
    <dc:type rdf:resource="http://purl.org/dc/dcmitype/StillImage"/>
    <dc:date>2026-02-19T01:35:06.668099</dc:date>
    <dc:format>image/svg+xml</dc:format>
    <dc:creator>
     <cc:Agent>
      <dc:title>Matplotlib v3.9.2, https://matplotlib.org/</dc:title>
     </cc:Agent>
    </dc:creator>
   </cc:Work>
  </rdf:RDF>
 </metadata>
 <defs>
  <style type="text/css">*{stroke-linejoin: round; stroke-linecap: butt}</style>
 </defs>
 <g id="figure_1">
  <g id="patch_1">
   <path d="M -0 371.28125 
L 501.175266 371.28125 
L 501.175266 0 
L -0 0 
z
" style="fill: #ffffff"/>
  </g>
  <g id="axes_1">
   <g id="patch_2">
    <path d="M 75.69875 242.208 
L 416.69075 242.208 
L 416.69075 7.2 
L 75.69875 7.2 
z
" style="fill: #ffffff"/>
   </g>
   <g id="matplotlib.axis_1">
    <g id="xtick_1"/>
    <g id="xtick_2"/>
    <g id="xtick_3"/>
    <g id="xtick_4"/>
    <g id="xtick_5"/>
   </g>
   <g id="matplotlib.axis_2">
    <g id="ytick_1">
     <g id="line2d_1">
      <defs>
       <path id="mb691bf3703" d="M 0 0 
L -3.5 0 
" style="stroke: #000000; stroke-width: 0.8"/>
      </defs>
      <g>
       <use xlink:href="#mb691bf3703" x="75.69875" y="216.697584" style="stroke: #000000; stroke-width: 0.8"/>
      </g>
     </g>
     <g id="text_1">
      <!-- 15.0 -->
      <g transform="translate(28.620625 223.536178) scale(0.18 -0.18)">
       <defs>
        <path id="DejaVuSans-31" d="M 794 531 
L 1825 531 
L 1825 4091 
L 703 3866 
L 703 4441 
L 1819 4666 
L 2450 4666 
L 2450 531 
L 3481 531 
L 3481 0 
L 794 0 
L 794 531 
z
" transform="scale(0.015625)"/>
        <path id="DejaVuSans-35" d="M 691 4666 
L 3169 4666 
L 3169 4134 
L 1269 4134 
L 1269 2991 
Q 1406 3038 1543 3061 
Q 1681 3084 1819 3084 
Q 2600 3084 3056 2656 
Q 3513 2228 3513 1497 
Q 3513 744 3044 326 
Q 2575 -91 1722 -91 
Q 1428 -91 1123 -41 
Q 819 9 494 109 
L 494 744 
Q 775 591 1075 516 
Q 1375 441 1709 441 
Q 2250 441 2565 725 
Q 2881 1009 2881 1497 
Q 2881 1984 2565 2268 
Q 2250 2553 1709 2553 
Q 1456 2553 1204 2497 
Q 953 2441 691 2322 
L 691 4666 
z
" transform="scale(0.015625)"/>
        <path id="DejaVuSans-2e" d="M 684 794 
L 1344 794 
L 1344 0 
L 684 0 
L 684 794 
z
" transform="scale(0.015625)"/>
        <path id="DejaVuSans-30" d="M 2034 4250 
Q 1547 4250 1301 3770 
Q 1056 3291 1056 2328 
Q 1056 1369 1301 889 
Q 1547 409 2034 409 
Q 2525 409 2770 889 
Q 3016 1369 3016 2328 
Q 3016 3291 2770 3770 
Q 2525 4250 2034 4250 
z
M 2034 4750 
Q 2819 4750 3233 4129 
Q 3647 3509 3647 2328 
Q 3647 1150 3233 529 
Q 2819 -91 2034 -91 
Q 1250 -91 836 529 
Q 422 1150 422 2328 
Q 422 3509 836 4129 
Q 1250 4750 2034 4750 
z
" transform="scale(0.015625)"/>
       </defs>
       <use xlink:href="#DejaVuSans-31"/>
       <use xlink:href="#DejaVuSans-35" x="63.623047"/>
       <use xlink:href="#DejaVuSans-2e" x="127.246094"/>
       <use xlink:href="#DejaVuSans-30" x="159.033203"/>
      </g>
     </g>
    </g>
    <g id="ytick_2">
     <g id="line2d_2">
      <g>
       <use xlink:href="#mb691bf3703" x="75.69875" y="167.920498" style="stroke: #000000; stroke-width: 0.8"/>
      </g>
     </g>
     <g id="text_2">
      <!-- 17.5 -->
      <g transform="translate(28.620625 174.759092) scale(0.18 -0.18)">
       <defs>
        <path id="DejaVuSans-37" d="M 525 4666 
L 3525 4666 
L 3525 4397 
L 1831 0 
L 1172 0 
L 2766 4134 
L 525 4134 
L 525 4666 
z
" transform="scale(0.015625)"/>
       </defs>
       <use xlink:href="#DejaVuSans-31"/>
       <use xlink:href="#DejaVuSans-37" x="63.623047"/>
       <use xlink:href="#DejaVuSans-2e" x="127.246094"/>
       <use xlink:href="#DejaVuSans-35" x="159.033203"/>
      </g>
     </g>
    </g>
    <g id="ytick_3">
     <g id="line2d_3">
      <g>
       <use xlink:href="#mb691bf3703" x="75.69875" y="119.143412" style="stroke: #000000; stroke-width: 0.8"/>
      </g>
     </g>
     <g id="text_3">
      <!-- 20.0 -->
      <g transform="translate(28.620625 125.982006) scale(0.18 -0.18)">
       <defs>
        <path id="DejaVuSans-32" d="M 1228 531 
L 3431 531 
L 3431 0 
L 469 0 
L 469 531 
Q 828 903 1448 1529 
Q 2069 2156 2228 2338 
Q 2531 2678 2651 2914 
Q 2772 3150 2772 3378 
Q 2772 3750 2511 3984 
Q 2250 4219 1831 4219 
Q 1534 4219 1204 4116 
Q 875 4013 500 3803 
L 500 4441 
Q 881 4594 1212 4672 
Q 1544 4750 1819 4750 
Q 2544 4750 2975 4387 
Q 3406 4025 3406 3419 
Q 3406 3131 3298 2873 
Q 3191 2616 2906 2266 
Q 2828 2175 2409 1742 
Q 1991 1309 1228 531 
z
" transform="scale(0.015625)"/>
       </defs>
       <use xlink:href="#DejaVuSans-32"/>
       <use xlink:href="#DejaVuSans-30" x="63.623047"/>
       <use xlink:href="#DejaVuSans-2e" x="127.246094"/>
       <use xlink:href="#DejaVuSans-30" x="159.033203"/>
      </g>
     </g>
    </g>
    <g id="ytick_4">
     <g id="line2d_4">
      <g>
       <use xlink:href="#mb691bf3703" x="75.69875" y="70.366326" style="stroke: #000000; stroke-width: 0.8"/>
      </g>
     </g>
     <g id="text_4">
      <!-- 22.5 -->
      <g transform="translate(28.620625 77.20492) scale(0.18 -0.18)">
       <use xlink:href="#DejaVuSans-32"/>
       <use xlink:href="#DejaVuSans-32" x="63.623047"/>
       <use xlink:href="#DejaVuSans-2e" x="127.246094"/>
       <use xlink:href="#DejaVuSans-35" x="159.033203"/>
      </g>
     </g>
    </g>
    <g id="ytick_5">
     <g id="line2d_5">
      <g>
       <use xlink:href="#mb691bf3703" x="75.69875" y="21.58924" style="stroke: #000000; stroke-width: 0.8"/>
      </g>
     </g>
     <g id="text_5">
      <!-- 25.0 -->
      <g transform="translate(28.620625 28.427834) scale(0.18 -0.18)">
       <use xlink:href="#DejaVuSans-32"/>
       <use xlink:href="#DejaVuSans-35" x="63.623047"/>
       <use xlink:href="#DejaVuSans-2e" x="127.246094"/>
       <use xlink:href="#DejaVuSans-30" x="159.033203"/>
      </g>
     </g>
    </g>
    <g id="text_6">
     <!-- $M_{eff}$ -->
     <g transform="translate(20.877187 141.084) rotate(-90) scale(0.18 -0.18)">
      <defs>
       <path id="DejaVuSans-Oblique-4d" d="M 1081 4666 
L 2028 4666 
L 2572 1522 
L 4378 4666 
L 5350 4666 
L 4441 0 
L 3828 0 
L 4622 4091 
L 2791 897 
L 2175 897 
L 1581 4103 
L 788 0 
L 172 0 
L 1081 4666 
z
" transform="scale(0.015625)"/>
       <path id="DejaVuSans-Oblique-65" d="M 3078 2063 
Q 3088 2113 3092 2166 
Q 3097 2219 3097 2272 
Q 3097 2653 2873 2875 
Q 2650 3097 2266 3097 
Q 1838 3097 1509 2826 
Q 1181 2556 1013 2059 
L 3078 2063 
z
M 3578 1613 
L 903 1613 
Q 884 1494 878 1425 
Q 872 1356 872 1306 
Q 872 872 1139 634 
Q 1406 397 1894 397 
Q 2269 397 2603 481 
Q 2938 566 3225 728 
L 3116 159 
Q 2806 34 2476 -28 
Q 2147 -91 1806 -91 
Q 1078 -91 686 257 
Q 294 606 294 1247 
Q 294 1794 489 2264 
Q 684 2734 1063 3103 
Q 1306 3334 1642 3459 
Q 1978 3584 2356 3584 
Q 2950 3584 3301 3228 
Q 3653 2872 3653 2272 
Q 3653 2128 3634 1964 
Q 3616 1800 3578 1613 
z
" transform="scale(0.015625)"/>
       <path id="DejaVuSans-Oblique-66" d="M 3059 4863 
L 2969 4384 
L 2419 4384 
Q 2106 4384 1964 4261 
Q 1822 4138 1753 3809 
L 1691 3500 
L 2638 3500 
L 2553 3053 
L 1606 3053 
L 1013 0 
L 434 0 
L 1031 3053 
L 481 3053 
L 563 3500 
L 1113 3500 
L 1159 3744 
Q 1278 4363 1576 4613 
Q 1875 4863 2516 4863 
L 3059 4863 
z
" transform="scale(0.015625)"/>
      </defs>
      <use xlink:href="#DejaVuSans-Oblique-4d" transform="translate(0 0.09375)"/>
      <use xlink:href="#DejaVuSans-Oblique-65" transform="translate(86.279297 -16.3125) scale(0.7)"/>
      <use xlink:href="#DejaVuSans-Oblique-66" transform="translate(129.345703 -16.3125) scale(0.7)"/>
      <use xlink:href="#DejaVuSans-Oblique-66" transform="translate(153.989258 -16.3125) scale(0.7)"/>
     </g>
    </g>
   </g>
   <g id="LineCollection_1">
    <path d="M 257.296815 67.439701 
L 257.296815 49.489733 
" clip-path="url(#pa22560eebf)" style="fill: none; stroke: #808080"/>
    <path d="M 216.060573 79.146202 
L 216.060573 66.269051 
" clip-path="url(#pa22560eebf)" style="fill: none; stroke: #808080"/>
    <path d="M 244.212238 87.145644 
L 244.212238 68.025026 
" clip-path="url(#pa22560eebf)" style="fill: none; stroke: #808080"/>
    <path d="M 223.99062 89.877161 
L 223.99062 81.292394 
" clip-path="url(#pa22560eebf)" style="fill: none; stroke: #808080"/>
    <path d="M 242.229727 74.268493 
L 242.229727 64.513076 
" clip-path="url(#pa22560eebf)" style="fill: none; stroke: #808080"/>
    <path d="M 223.197615 78.951093 
L 223.197615 71.14676 
" clip-path="url(#pa22560eebf)" style="fill: none; stroke: #808080"/>
    <path d="M 225.576629 76.024468 
L 225.576629 61.586451 
" clip-path="url(#pa22560eebf)" style="fill: none; stroke: #808080"/>
    <path d="M 255.314303 62.171776 
L 255.314303 52.416359 
" clip-path="url(#pa22560eebf)" style="fill: none; stroke: #808080"/>
    <path d="M 260.072331 60.025584 
L 260.072331 48.319083 
" clip-path="url(#pa22560eebf)" style="fill: none; stroke: #808080"/>
    <path d="M 273.156908 51.635925 
L 273.156908 41.880508 
" clip-path="url(#pa22560eebf)" style="fill: none; stroke: #808080"/>
    <path d="M 335.407773 59.440259 
L 335.407773 51.245709 
" clip-path="url(#pa22560eebf)" style="fill: none; stroke: #808080"/>
    <path d="M 234.29968 76.804902 
L 234.29968 69.390785 
" clip-path="url(#pa22560eebf)" style="fill: none; stroke: #808080"/>
    <path d="M 319.54768 61.781559 
L 319.54768 52.026142 
" clip-path="url(#pa22560eebf)" style="fill: none; stroke: #808080"/>
    <path d="M 266.019866 66.073943 
L 266.019866 56.708742 
" clip-path="url(#pa22560eebf)" style="fill: none; stroke: #808080"/>
    <path d="M 254.124797 74.65871 
L 254.124797 65.683726 
" clip-path="url(#pa22560eebf)" style="fill: none; stroke: #808080"/>
    <path d="M 229.541652 71.341868 
L 229.541652 63.537534 
" clip-path="url(#pa22560eebf)" style="fill: none; stroke: #808080"/>
    <path d="M 301.705076 59.635367 
L 301.705076 51.0506 
" clip-path="url(#pa22560eebf)" style="fill: none; stroke: #808080"/>
    <path d="M 269.98489 62.561993 
L 269.98489 54.757659 
" clip-path="url(#pa22560eebf)" style="fill: none; stroke: #808080"/>
    <path d="M 271.967401 67.634809 
L 271.967401 60.220692 
" clip-path="url(#pa22560eebf)" style="fill: none; stroke: #808080"/>
    <path d="M 335.804276 54.952767 
L 335.804276 44.0267 
" clip-path="url(#pa22560eebf)" style="fill: none; stroke: #808080"/>
    <path d="M 404.002676 38.953883 
L 404.002676 17.882182 
" clip-path="url(#pa22560eebf)" style="fill: none; stroke: #808080"/>
    <path d="M 254.124797 61.781559 
L 254.124797 52.806575 
" clip-path="url(#pa22560eebf)" style="fill: none; stroke: #808080"/>
    <path d="M 246.19475 62.366884 
L 246.19475 53.782117 
" clip-path="url(#pa22560eebf)" style="fill: none; stroke: #808080"/>
    <path d="M 305.670099 56.123417 
L 305.670099 47.148433 
" clip-path="url(#pa22560eebf)" style="fill: none; stroke: #808080"/>
    <path d="M 378.230024 42.270725 
L 378.230024 21.58924 
" clip-path="url(#pa22560eebf)" style="fill: none; stroke: #808080"/>
    <path d="M 284.258973 61.586451 
L 284.258973 53.782117 
" clip-path="url(#pa22560eebf)" style="fill: none; stroke: #808080"/>
    <path d="M 143.89715 119.338521 
L 143.89715 112.31462 
" clip-path="url(#pa22560eebf)" style="fill: none; stroke: #808080"/>
    <path d="M 321.13369 50.465275 
L 321.13369 39.539208 
" clip-path="url(#pa22560eebf)" style="fill: none; stroke: #808080"/>
    <path d="M 310.428127 40.124533 
L 310.428127 25.686516 
" clip-path="url(#pa22560eebf)" style="fill: none; stroke: #808080"/>
    <path d="M 293.775029 55.538092 
L 293.775029 45.782675 
" clip-path="url(#pa22560eebf)" style="fill: none; stroke: #808080"/>
    <path d="M 147.069169 114.070595 
L 147.069169 107.436912 
" clip-path="url(#pa22560eebf)" style="fill: none; stroke: #808080"/>
    <path d="M 223.99062 55.147875 
L 223.99062 45.782675 
" clip-path="url(#pa22560eebf)" style="fill: none; stroke: #808080"/>
    <path d="M 262.847848 62.171776 
L 262.847848 54.757659 
" clip-path="url(#pa22560eebf)" style="fill: none; stroke: #808080"/>
    <path d="M 246.19475 72.512518 
L 246.19475 65.488618 
" clip-path="url(#pa22560eebf)" style="fill: none; stroke: #808080"/>
    <path d="M 336.200778 48.904408 
L 336.200778 39.929425 
" clip-path="url(#pa22560eebf)" style="fill: none; stroke: #808080"/>
    <path d="M 318.358173 51.245709 
L 318.358173 43.051158 
" clip-path="url(#pa22560eebf)" style="fill: none; stroke: #808080"/>
    <path d="M 202.579494 86.36521 
L 202.579494 79.34131 
" clip-path="url(#pa22560eebf)" style="fill: none; stroke: #808080"/>
    <path d="M 305.273597 55.538092 
L 305.273597 46.953325 
" clip-path="url(#pa22560eebf)" style="fill: none; stroke: #808080"/>
    <path d="M 254.124797 69.781001 
L 254.124797 58.074501 
" clip-path="url(#pa22560eebf)" style="fill: none; stroke: #808080"/>
    <path d="M 306.066601 63.147318 
L 306.066601 54.56255 
" clip-path="url(#pa22560eebf)" style="fill: none; stroke: #808080"/>
    <path d="M 240.643717 72.902735 
L 240.643717 65.098401 
" clip-path="url(#pa22560eebf)" style="fill: none; stroke: #808080"/>
    <path d="M 404.79568 39.148991 
L 404.79568 30.564224 
" clip-path="url(#pa22560eebf)" style="fill: none; stroke: #808080"/>
    <path d="M 87.59382 196.0161 
L 87.59382 188.211766 
" clip-path="url(#pa22560eebf)" style="fill: none; stroke: #808080"/>
    <path d="M 95.523866 168.89604 
L 95.523866 161.872139 
" clip-path="url(#pa22560eebf)" style="fill: none; stroke: #808080"/>
    <path d="M 86.00781 200.308483 
L 86.00781 190.943283 
" clip-path="url(#pa22560eebf)" style="fill: none; stroke: #808080"/>
    <path d="M 105.436424 153.677589 
L 105.436424 145.873255 
" clip-path="url(#pa22560eebf)" style="fill: none; stroke: #808080"/>
    <path d="M 86.00781 195.625883 
L 86.00781 187.821549 
" clip-path="url(#pa22560eebf)" style="fill: none; stroke: #808080"/>
    <path d="M 81.249783 231.525818 
L 81.249783 222.550834 
" clip-path="url(#pa22560eebf)" style="fill: none; stroke: #808080"/>
    <path d="M 115.745485 140.020005 
L 115.745485 131.045021 
" clip-path="url(#pa22560eebf)" style="fill: none; stroke: #808080"/>
    <path d="M 83.628797 217.087801 
L 83.628797 209.283467 
" clip-path="url(#pa22560eebf)" style="fill: none; stroke: #808080"/>
    <path d="M 89.972834 188.406874 
L 89.972834 180.212324 
" clip-path="url(#pa22560eebf)" style="fill: none; stroke: #808080"/>
    <path d="M 93.541355 169.481365 
L 93.541355 162.067248 
" clip-path="url(#pa22560eebf)" style="fill: none; stroke: #808080"/>
    <path d="M 92.74835 177.480807 
L 92.74835 170.456907 
" clip-path="url(#pa22560eebf)" style="fill: none; stroke: #808080"/>
    <path d="M 82.835792 208.89325 
L 82.835792 200.6987 
" clip-path="url(#pa22560eebf)" style="fill: none; stroke: #808080"/>
    <path d="M 107.022434 156.409106 
L 107.022434 149.385205 
" clip-path="url(#pa22560eebf)" style="fill: none; stroke: #808080"/>
    <path d="M 110.590955 136.703163 
L 110.590955 129.679263 
" clip-path="url(#pa22560eebf)" style="fill: none; stroke: #808080"/>
    <path d="M 100.678397 156.994431 
L 100.678397 149.970531 
" clip-path="url(#pa22560eebf)" style="fill: none; stroke: #808080"/>
    <path d="M 103.850415 155.628672 
L 103.850415 147.824339 
" clip-path="url(#pa22560eebf)" style="fill: none; stroke: #808080"/>
    <path d="M 96.316871 170.652015 
L 96.316871 163.628115 
" clip-path="url(#pa22560eebf)" style="fill: none; stroke: #808080"/>
    <path d="M 95.523866 168.115606 
L 95.523866 160.311273 
" clip-path="url(#pa22560eebf)" style="fill: none; stroke: #808080"/>
   </g>
   <g id="line2d_6">
    <path d="M 81.249783 228.401023 
L 82.545262 219.412772 
L 83.840741 211.969726 
L 85.46009 204.158976 
L 87.079438 197.531326 
L 88.698787 191.771018 
L 90.642006 185.721115 
L 92.585224 180.394866 
L 94.852313 174.887787 
L 97.119401 169.979911 
L 99.710359 164.951632 
L 102.301317 160.421384 
L 105.216145 155.806071 
L 108.130973 151.608192 
L 111.369671 147.346997 
L 114.608369 143.439216 
L 118.170936 139.482183 
L 122.057373 135.508586 
L 126.26768 131.543772 
L 130.477987 127.877936 
L 135.012164 124.214472 
L 139.87021 120.569195 
L 145.052127 116.954312 
L 150.557913 113.379091 
L 156.387569 109.850437 
L 162.864964 106.196756 
L 169.666229 102.621426 
L 176.791364 99.123728 
L 184.564238 95.55869 
L 192.660983 92.086685 
L 201.405466 88.57769 
L 210.79769 85.05136 
L 220.837652 81.523975 
L 231.525355 78.008892 
L 242.860797 74.516982 
L 254.843978 71.057013 
L 267.798769 67.551077 
L 281.401299 64.100069 
L 295.975438 60.632446 
L 311.521187 57.164172 
L 328.038545 53.708569 
L 345.527513 50.276643 
L 364.311959 46.819647 
L 384.391885 43.355573 
L 404.79568 40.051842 
L 404.79568 40.051842 
" clip-path="url(#pa22560eebf)" style="fill: none; stroke: #ff0000; stroke-width: 0.8; stroke-linecap: square"/>
   </g>
   <g id="line2d_7">
    <defs>
     <path id="mc2ab94994d" d="M 0 1.5 
C 0.397805 1.5 0.77937 1.341951 1.06066 1.06066 
C 1.341951 0.77937 1.5 0.397805 1.5 0 
C 1.5 -0.397805 1.341951 -0.77937 1.06066 -1.06066 
C 0.77937 -1.341951 0.397805 -1.5 0 -1.5 
C -0.397805 -1.5 -0.77937 -1.341951 -1.06066 -1.06066 
C -1.341951 -0.77937 -1.5 -0.397805 -1.5 0 
C -1.5 0.397805 -1.341951 0.77937 -1.06066 1.06066 
C -0.77937 1.341951 -0.397805 1.5 0 1.5 
z
" style="stroke: #000000"/>
    </defs>
    <g clip-path="url(#pa22560eebf)">
     <use xlink:href="#mc2ab94994d" x="257.296815" y="58.464717" style="stroke: #000000"/>
     <use xlink:href="#mc2ab94994d" x="216.060573" y="72.707626" style="stroke: #000000"/>
     <use xlink:href="#mc2ab94994d" x="244.212238" y="77.585335" style="stroke: #000000"/>
     <use xlink:href="#mc2ab94994d" x="223.99062" y="85.584777" style="stroke: #000000"/>
     <use xlink:href="#mc2ab94994d" x="242.229727" y="69.390785" style="stroke: #000000"/>
     <use xlink:href="#mc2ab94994d" x="223.197615" y="75.048927" style="stroke: #000000"/>
     <use xlink:href="#mc2ab94994d" x="225.576629" y="68.80546" style="stroke: #000000"/>
     <use xlink:href="#mc2ab94994d" x="255.314303" y="57.294067" style="stroke: #000000"/>
     <use xlink:href="#mc2ab94994d" x="260.072331" y="54.172334" style="stroke: #000000"/>
     <use xlink:href="#mc2ab94994d" x="273.156908" y="46.758217" style="stroke: #000000"/>
     <use xlink:href="#mc2ab94994d" x="335.407773" y="55.342984" style="stroke: #000000"/>
     <use xlink:href="#mc2ab94994d" x="234.29968" y="73.097843" style="stroke: #000000"/>
     <use xlink:href="#mc2ab94994d" x="319.54768" y="56.903851" style="stroke: #000000"/>
     <use xlink:href="#mc2ab94994d" x="266.019866" y="61.391342" style="stroke: #000000"/>
     <use xlink:href="#mc2ab94994d" x="254.124797" y="70.171218" style="stroke: #000000"/>
     <use xlink:href="#mc2ab94994d" x="229.541652" y="67.439701" style="stroke: #000000"/>
     <use xlink:href="#mc2ab94994d" x="301.705076" y="55.342984" style="stroke: #000000"/>
     <use xlink:href="#mc2ab94994d" x="269.98489" y="58.659826" style="stroke: #000000"/>
     <use xlink:href="#mc2ab94994d" x="271.967401" y="63.927751" style="stroke: #000000"/>
     <use xlink:href="#mc2ab94994d" x="335.804276" y="49.489733" style="stroke: #000000"/>
     <use xlink:href="#mc2ab94994d" x="404.002676" y="28.418032" style="stroke: #000000"/>
     <use xlink:href="#mc2ab94994d" x="254.124797" y="57.294067" style="stroke: #000000"/>
     <use xlink:href="#mc2ab94994d" x="246.19475" y="58.074501" style="stroke: #000000"/>
     <use xlink:href="#mc2ab94994d" x="305.670099" y="51.635925" style="stroke: #000000"/>
     <use xlink:href="#mc2ab94994d" x="378.230024" y="31.929983" style="stroke: #000000"/>
     <use xlink:href="#mc2ab94994d" x="284.258973" y="57.684284" style="stroke: #000000"/>
     <use xlink:href="#mc2ab94994d" x="143.89715" y="115.82657" style="stroke: #000000"/>
     <use xlink:href="#mc2ab94994d" x="321.13369" y="45.002242" style="stroke: #000000"/>
     <use xlink:href="#mc2ab94994d" x="310.428127" y="32.905524" style="stroke: #000000"/>
     <use xlink:href="#mc2ab94994d" x="293.775029" y="50.660384" style="stroke: #000000"/>
     <use xlink:href="#mc2ab94994d" x="147.069169" y="110.753753" style="stroke: #000000"/>
     <use xlink:href="#mc2ab94994d" x="223.99062" y="50.465275" style="stroke: #000000"/>
     <use xlink:href="#mc2ab94994d" x="262.847848" y="58.464717" style="stroke: #000000"/>
     <use xlink:href="#mc2ab94994d" x="246.19475" y="69.000568" style="stroke: #000000"/>
     <use xlink:href="#mc2ab94994d" x="336.200778" y="44.416917" style="stroke: #000000"/>
     <use xlink:href="#mc2ab94994d" x="318.358173" y="47.148433" style="stroke: #000000"/>
     <use xlink:href="#mc2ab94994d" x="202.579494" y="82.85326" style="stroke: #000000"/>
     <use xlink:href="#mc2ab94994d" x="305.273597" y="51.245709" style="stroke: #000000"/>
     <use xlink:href="#mc2ab94994d" x="254.124797" y="63.927751" style="stroke: #000000"/>
     <use xlink:href="#mc2ab94994d" x="306.066601" y="58.854934" style="stroke: #000000"/>
     <use xlink:href="#mc2ab94994d" x="240.643717" y="69.000568" style="stroke: #000000"/>
     <use xlink:href="#mc2ab94994d" x="404.79568" y="34.856608" style="stroke: #000000"/>
     <use xlink:href="#mc2ab94994d" x="87.59382" y="192.113933" style="stroke: #000000"/>
     <use xlink:href="#mc2ab94994d" x="95.523866" y="165.38409" style="stroke: #000000"/>
     <use xlink:href="#mc2ab94994d" x="86.00781" y="195.625883" style="stroke: #000000"/>
     <use xlink:href="#mc2ab94994d" x="105.436424" y="149.775422" style="stroke: #000000"/>
     <use xlink:href="#mc2ab94994d" x="86.00781" y="191.723716" style="stroke: #000000"/>
     <use xlink:href="#mc2ab94994d" x="81.249783" y="227.038326" style="stroke: #000000"/>
     <use xlink:href="#mc2ab94994d" x="115.745485" y="135.532513" style="stroke: #000000"/>
     <use xlink:href="#mc2ab94994d" x="83.628797" y="213.185634" style="stroke: #000000"/>
     <use xlink:href="#mc2ab94994d" x="89.972834" y="184.309599" style="stroke: #000000"/>
     <use xlink:href="#mc2ab94994d" x="93.541355" y="165.774306" style="stroke: #000000"/>
     <use xlink:href="#mc2ab94994d" x="92.74835" y="173.968857" style="stroke: #000000"/>
     <use xlink:href="#mc2ab94994d" x="82.835792" y="204.795975" style="stroke: #000000"/>
     <use xlink:href="#mc2ab94994d" x="107.022434" y="152.897156" style="stroke: #000000"/>
     <use xlink:href="#mc2ab94994d" x="110.590955" y="133.191213" style="stroke: #000000"/>
     <use xlink:href="#mc2ab94994d" x="100.678397" y="153.482481" style="stroke: #000000"/>
     <use xlink:href="#mc2ab94994d" x="103.850415" y="151.726506" style="stroke: #000000"/>
     <use xlink:href="#mc2ab94994d" x="96.316871" y="167.140065" style="stroke: #000000"/>
     <use xlink:href="#mc2ab94994d" x="95.523866" y="164.21344" style="stroke: #000000"/>
    </g>
   </g>
   <g id="patch_3">
    <path d="M 75.69875 242.208 
L 75.69875 7.2 
" style="fill: none; stroke: #000000; stroke-width: 0.8; stroke-linejoin: miter; stroke-linecap: square"/>
   </g>
   <g id="patch_4">
    <path d="M 416.69075 242.208 
L 416.69075 7.2 
" style="fill: none; stroke: #000000; stroke-width: 0.8; stroke-linejoin: miter; stroke-linecap: square"/>
   </g>
   <g id="patch_5">
    <path d="M 75.69875 242.208 
L 416.69075 242.208 
" style="fill: none; stroke: #000000; stroke-width: 0.8; stroke-linejoin: miter; stroke-linecap: square"/>
   </g>
   <g id="patch_6">
    <path d="M 75.69875 7.2 
L 416.69075 7.2 
" style="fill: none; stroke: #000000; stroke-width: 0.8; stroke-linejoin: miter; stroke-linecap: square"/>
   </g>
  </g>
  <g id="axes_2">
   <g id="patch_7">
    <path d="M 75.69875 318.24 
L 416.69075 318.24 
L 416.69075 249.12 
L 75.69875 249.12 
z
" style="fill: #ffffff"/>
   </g>
   <g id="PathCollection_1">
    <defs>
     <path id="m739cab4ab8" d="M 0 1 
C 0.265203 1 0.51958 0.894634 0.707107 0.707107 
C 0.894634 0.51958 1 0.265203 1 0 
C 1 -0.265203 0.894634 -0.51958 0.707107 -0.707107 
C 0.51958 -0.894634 0.265203 -1 0 -1 
C -0.265203 -1 -0.51958 -0.894634 -0.707107 -0.707107 
C -0.894634 -0.51958 -1 -0.265203 -1 0 
C -1 0.265203 -0.894634 0.51958 -0.707107 0.707107 
C -0.51958 0.894634 -0.265203 1 0 1 
z
" style="stroke: #ff0000"/>
    </defs>
    <g clip-path="url(#pb62853e771)">
     <use xlink:href="#m739cab4ab8" x="257.296815" y="275.34097" style="fill: #ff0000; stroke: #ff0000"/>
     <use xlink:href="#m739cab4ab8" x="216.060573" y="273.466254" style="fill: #ff0000; stroke: #ff0000"/>
     <use xlink:href="#m739cab4ab8" x="244.212238" y="285.960636" style="fill: #ff0000; stroke: #ff0000"/>
     <use xlink:href="#m739cab4ab8" x="223.99062" y="291.178183" style="fill: #ff0000; stroke: #ff0000"/>
     <use xlink:href="#m739cab4ab8" x="242.229727" y="276.833369" style="fill: #ff0000; stroke: #ff0000"/>
     <use xlink:href="#m739cab4ab8" x="223.197615" y="274.53556" style="fill: #ff0000; stroke: #ff0000"/>
     <use xlink:href="#m739cab4ab8" x="225.576629" y="273.99098" style="fill: #ff0000; stroke: #ff0000"/>
     <use xlink:href="#m739cab4ab8" x="255.314303" y="266.119311" style="fill: #ff0000; stroke: #ff0000"/>
     <use xlink:href="#m739cab4ab8" x="260.072331" y="267.102405" style="fill: #ff0000; stroke: #ff0000"/>
     <use xlink:href="#m739cab4ab8" x="273.156908" y="258.679242" style="fill: #ff0000; stroke: #ff0000"/>
     <use xlink:href="#m739cab4ab8" x="335.407773" y="288.445418" style="fill: #ff0000; stroke: #ff0000"/>
     <use xlink:href="#m739cab4ab8" x="234.29968" y="276.840232" style="fill: #ff0000; stroke: #ff0000"/>
     <use xlink:href="#m739cab4ab8" x="319.54768" y="285.543596" style="fill: #ff0000; stroke: #ff0000"/>
     <use xlink:href="#m739cab4ab8" x="266.019866" y="274.786017" style="fill: #ff0000; stroke: #ff0000"/>
     <use xlink:href="#m739cab4ab8" x="254.124797" y="282.157525" style="fill: #ff0000; stroke: #ff0000"/>
     <use xlink:href="#m739cab4ab8" x="229.541652" y="265.637648" style="fill: #ff0000; stroke: #ff0000"/>
     <use xlink:href="#m739cab4ab8" x="301.705076" y="277.846266" style="fill: #ff0000; stroke: #ff0000"/>
     <use xlink:href="#m739cab4ab8" x="269.98489" y="270.279937" style="fill: #ff0000; stroke: #ff0000"/>
     <use xlink:href="#m739cab4ab8" x="271.967401" y="279.37111" style="fill: #ff0000; stroke: #ff0000"/>
     <use xlink:href="#m739cab4ab8" x="335.804276" y="280.611446" style="fill: #ff0000; stroke: #ff0000"/>
     <use xlink:href="#m739cab4ab8" x="404.002676" y="276.667196" style="fill: #ff0000; stroke: #ff0000"/>
     <use xlink:href="#m739cab4ab8" x="254.124797" y="264.126221" style="fill: #ff0000; stroke: #ff0000"/>
     <use xlink:href="#m739cab4ab8" x="246.19475" y="261.05205" style="fill: #ff0000; stroke: #ff0000"/>
     <use xlink:href="#m739cab4ab8" x="305.670099" y="274.147658" style="fill: #ff0000; stroke: #ff0000"/>
     <use xlink:href="#m739cab4ab8" x="378.230024" y="276.105589" style="fill: #ff0000; stroke: #ff0000"/>
     <use xlink:href="#m739cab4ab8" x="284.258973" y="274.472264" style="fill: #ff0000; stroke: #ff0000"/>
     <use xlink:href="#m739cab4ab8" x="143.89715" y="280.26059" style="fill: #ff0000; stroke: #ff0000"/>
     <use xlink:href="#m739cab4ab8" x="321.13369" y="272.035267" style="fill: #ff0000; stroke: #ff0000"/>
     <use xlink:href="#m739cab4ab8" x="310.428127" y="262.358534" style="fill: #ff0000; stroke: #ff0000"/>
     <use xlink:href="#m739cab4ab8" x="293.775029" y="270.177336" style="fill: #ff0000; stroke: #ff0000"/>
     <use xlink:href="#m739cab4ab8" x="147.069169" y="274.470776" style="fill: #ff0000; stroke: #ff0000"/>
     <use xlink:href="#m739cab4ab8" x="223.99062" y="243.426062" style="fill: #ff0000; stroke: #ff0000"/>
     <use xlink:href="#m739cab4ab8" x="262.847848" y="266.052526" style="fill: #ff0000; stroke: #ff0000"/>
     <use xlink:href="#m739cab4ab8" x="246.19475" y="275.572707" style="fill: #ff0000; stroke: #ff0000"/>
     <use xlink:href="#m739cab4ab8" x="336.200778" y="272.950353" style="fill: #ff0000; stroke: #ff0000"/>
     <use xlink:href="#m739cab4ab8" x="318.358173" y="270.554776" style="fill: #ff0000; stroke: #ff0000"/>
     <use xlink:href="#m739cab4ab8" x="202.579494" y="274.249787" style="fill: #ff0000; stroke: #ff0000"/>
     <use xlink:href="#m739cab4ab8" x="305.273597" y="273.014595" style="fill: #ff0000; stroke: #ff0000"/>
     <use xlink:href="#m739cab4ab8" x="254.124797" y="275.810224" style="fill: #ff0000; stroke: #ff0000"/>
     <use xlink:href="#m739cab4ab8" x="306.066601" y="284.410631" style="fill: #ff0000; stroke: #ff0000"/>
     <use xlink:href="#m739cab4ab8" x="240.643717" y="273.725585" style="fill: #ff0000; stroke: #ff0000"/>
     <use xlink:href="#m739cab4ab8" x="404.79568" y="276.074676" style="fill: #ff0000; stroke: #ff0000"/>
     <use xlink:href="#m739cab4ab8" x="87.59382" y="278.035873" style="fill: #ff0000; stroke: #ff0000"/>
     <use xlink:href="#m739cab4ab8" x="95.523866" y="269.377629" style="fill: #ff0000; stroke: #ff0000"/>
     <use xlink:href="#m739cab4ab8" x="86.00781" y="275.389902" style="fill: #ff0000; stroke: #ff0000"/>
     <use xlink:href="#m739cab4ab8" x="105.436424" y="274.501568" style="fill: #ff0000; stroke: #ff0000"/>
     <use xlink:href="#m739cab4ab8" x="86.00781" y="267.448245" style="fill: #ff0000; stroke: #ff0000"/>
     <use xlink:href="#m739cab4ab8" x="81.249783" y="281.771876" style="fill: #ff0000; stroke: #ff0000"/>
     <use xlink:href="#m739cab4ab8" x="115.745485" y="274.427623" style="fill: #ff0000; stroke: #ff0000"/>
     <use xlink:href="#m739cab4ab8" x="83.628797" y="283.811961" style="fill: #ff0000; stroke: #ff0000"/>
     <use xlink:href="#m739cab4ab8" x="89.972834" y="278.460608" style="fill: #ff0000; stroke: #ff0000"/>
     <use xlink:href="#m739cab4ab8" x="93.541355" y="262.974444" style="fill: #ff0000; stroke: #ff0000"/>
     <use xlink:href="#m739cab4ab8" x="92.74835" y="272.933198" style="fill: #ff0000; stroke: #ff0000"/>
     <use xlink:href="#m739cab4ab8" x="82.835792" y="263.998589" style="fill: #ff0000; stroke: #ff0000"/>
     <use xlink:href="#m739cab4ab8" x="107.022434" y="283.208829" style="fill: #ff0000; stroke: #ff0000"/>
     <use xlink:href="#m739cab4ab8" x="110.590955" y="256.5812" style="fill: #ff0000; stroke: #ff0000"/>
     <use xlink:href="#m739cab4ab8" x="100.678397" y="266.281927" style="fill: #ff0000; stroke: #ff0000"/>
     <use xlink:href="#m739cab4ab8" x="103.850415" y="273.720504" style="fill: #ff0000; stroke: #ff0000"/>
     <use xlink:href="#m739cab4ab8" x="96.316871" y="275.597953" style="fill: #ff0000; stroke: #ff0000"/>
     <use xlink:href="#m739cab4ab8" x="95.523866" y="268.922775" style="fill: #ff0000; stroke: #ff0000"/>
    </g>
   </g>
   <g id="matplotlib.axis_3">
    <g id="xtick_6">
     <g id="line2d_8">
      <defs>
       <path id="m85a2383050" d="M 0 0 
L 0 3.5 
" style="stroke: #000000; stroke-width: 0.8"/>
      </defs>
      <g>
       <use xlink:href="#m85a2383050" x="75.69875" y="318.24" style="stroke: #000000; stroke-width: 0.8"/>
      </g>
     </g>
     <g id="text_7">
      <!-- 0.0 -->
      <g transform="translate(61.385937 338.917187) scale(0.18 -0.18)">
       <use xlink:href="#DejaVuSans-30"/>
       <use xlink:href="#DejaVuSans-2e" x="63.623047"/>
       <use xlink:href="#DejaVuSans-30" x="95.410156"/>
      </g>
     </g>
    </g>
    <g id="xtick_7">
     <g id="line2d_9">
      <g>
       <use xlink:href="#m85a2383050" x="154.999215" y="318.24" style="stroke: #000000; stroke-width: 0.8"/>
      </g>
     </g>
     <g id="text_8">
      <!-- 0.2 -->
      <g transform="translate(140.686403 338.917187) scale(0.18 -0.18)">
       <use xlink:href="#DejaVuSans-30"/>
       <use xlink:href="#DejaVuSans-2e" x="63.623047"/>
       <use xlink:href="#DejaVuSans-32" x="95.410156"/>
      </g>
     </g>
    </g>
    <g id="xtick_8">
     <g id="line2d_10">
      <g>
       <use xlink:href="#m85a2383050" x="234.29968" y="318.24" style="stroke: #000000; stroke-width: 0.8"/>
      </g>
     </g>
     <g id="text_9">
      <!-- 0.4 -->
      <g transform="translate(219.986868 338.917187) scale(0.18 -0.18)">
       <defs>
        <path id="DejaVuSans-34" d="M 2419 4116 
L 825 1625 
L 2419 1625 
L 2419 4116 
z
M 2253 4666 
L 3047 4666 
L 3047 1625 
L 3713 1625 
L 3713 1100 
L 3047 1100 
L 3047 0 
L 2419 0 
L 2419 1100 
L 313 1100 
L 313 1709 
L 2253 4666 
z
" transform="scale(0.015625)"/>
       </defs>
       <use xlink:href="#DejaVuSans-30"/>
       <use xlink:href="#DejaVuSans-2e" x="63.623047"/>
       <use xlink:href="#DejaVuSans-34" x="95.410156"/>
      </g>
     </g>
    </g>
    <g id="xtick_9">
     <g id="line2d_11">
      <g>
       <use xlink:href="#m85a2383050" x="313.600145" y="318.24" style="stroke: #000000; stroke-width: 0.8"/>
      </g>
     </g>
     <g id="text_10">
      <!-- 0.6 -->
      <g transform="translate(299.287333 338.917187) scale(0.18 -0.18)">
       <defs>
        <path id="DejaVuSans-36" d="M 2113 2584 
Q 1688 2584 1439 2293 
Q 1191 2003 1191 1497 
Q 1191 994 1439 701 
Q 1688 409 2113 409 
Q 2538 409 2786 701 
Q 3034 994 3034 1497 
Q 3034 2003 2786 2293 
Q 2538 2584 2113 2584 
z
M 3366 4563 
L 3366 3988 
Q 3128 4100 2886 4159 
Q 2644 4219 2406 4219 
Q 1781 4219 1451 3797 
Q 1122 3375 1075 2522 
Q 1259 2794 1537 2939 
Q 1816 3084 2150 3084 
Q 2853 3084 3261 2657 
Q 3669 2231 3669 1497 
Q 3669 778 3244 343 
Q 2819 -91 2113 -91 
Q 1303 -91 875 529 
Q 447 1150 447 2328 
Q 447 3434 972 4092 
Q 1497 4750 2381 4750 
Q 2619 4750 2861 4703 
Q 3103 4656 3366 4563 
z
" transform="scale(0.015625)"/>
       </defs>
       <use xlink:href="#DejaVuSans-30"/>
       <use xlink:href="#DejaVuSans-2e" x="63.623047"/>
       <use xlink:href="#DejaVuSans-36" x="95.410156"/>
      </g>
     </g>
    </g>
    <g id="xtick_10">
     <g id="line2d_12">
      <g>
       <use xlink:href="#m85a2383050" x="392.90061" y="318.24" style="stroke: #000000; stroke-width: 0.8"/>
      </g>
     </g>
     <g id="text_11">
      <!-- 0.8 -->
      <g transform="translate(378.587798 338.917187) scale(0.18 -0.18)">
       <defs>
        <path id="DejaVuSans-38" d="M 2034 2216 
Q 1584 2216 1326 1975 
Q 1069 1734 1069 1313 
Q 1069 891 1326 650 
Q 1584 409 2034 409 
Q 2484 409 2743 651 
Q 3003 894 3003 1313 
Q 3003 1734 2745 1975 
Q 2488 2216 2034 2216 
z
M 1403 2484 
Q 997 2584 770 2862 
Q 544 3141 544 3541 
Q 544 4100 942 4425 
Q 1341 4750 2034 4750 
Q 2731 4750 3128 4425 
Q 3525 4100 3525 3541 
Q 3525 3141 3298 2862 
Q 3072 2584 2669 2484 
Q 3125 2378 3379 2068 
Q 3634 1759 3634 1313 
Q 3634 634 3220 271 
Q 2806 -91 2034 -91 
Q 1263 -91 848 271 
Q 434 634 434 1313 
Q 434 1759 690 2068 
Q 947 2378 1403 2484 
z
M 1172 3481 
Q 1172 3119 1398 2916 
Q 1625 2713 2034 2713 
Q 2441 2713 2670 2916 
Q 2900 3119 2900 3481 
Q 2900 3844 2670 4047 
Q 2441 4250 2034 4250 
Q 1625 4250 1398 4047 
Q 1172 3844 1172 3481 
z
" transform="scale(0.015625)"/>
       </defs>
       <use xlink:href="#DejaVuSans-30"/>
       <use xlink:href="#DejaVuSans-2e" x="63.623047"/>
       <use xlink:href="#DejaVuSans-38" x="95.410156"/>
      </g>
     </g>
    </g>
    <g id="text_12">
     <!-- $Redshift (z)$ -->
     <g transform="translate(197.32475 360.337812) scale(0.18 -0.18)">
      <defs>
       <path id="DejaVuSans-Oblique-52" d="M 1613 4147 
L 1294 2491 
L 2106 2491 
Q 2584 2491 2879 2755 
Q 3175 3019 3175 3444 
Q 3175 3784 2976 3965 
Q 2778 4147 2406 4147 
L 1613 4147 
z
M 2772 2241 
Q 2972 2194 3105 2009 
Q 3238 1825 3413 1275 
L 3809 0 
L 3144 0 
L 2778 1197 
Q 2638 1659 2453 1815 
Q 2269 1972 1888 1972 
L 1191 1972 
L 806 0 
L 172 0 
L 1081 4666 
L 2503 4666 
Q 3150 4666 3495 4373 
Q 3841 4081 3841 3531 
Q 3841 3044 3547 2687 
Q 3253 2331 2772 2241 
z
" transform="scale(0.015625)"/>
       <path id="DejaVuSans-Oblique-64" d="M 2675 525 
Q 2444 222 2128 65 
Q 1813 -91 1428 -91 
Q 903 -91 598 267 
Q 294 625 294 1247 
Q 294 1766 478 2236 
Q 663 2706 1013 3078 
Q 1244 3325 1534 3454 
Q 1825 3584 2144 3584 
Q 2481 3584 2739 3421 
Q 2997 3259 3138 2956 
L 3513 4863 
L 4091 4863 
L 3144 0 
L 2566 0 
L 2675 525 
z
M 891 1350 
Q 891 897 1095 644 
Q 1300 391 1663 391 
Q 1931 391 2161 520 
Q 2391 650 2566 903 
Q 2750 1166 2856 1509 
Q 2963 1853 2963 2188 
Q 2963 2622 2758 2865 
Q 2553 3109 2194 3109 
Q 1922 3109 1687 2981 
Q 1453 2853 1288 2613 
Q 1106 2353 998 2009 
Q 891 1666 891 1350 
z
" transform="scale(0.015625)"/>
       <path id="DejaVuSans-Oblique-73" d="M 3200 3397 
L 3091 2853 
Q 2863 2978 2609 3040 
Q 2356 3103 2088 3103 
Q 1634 3103 1373 2948 
Q 1113 2794 1113 2528 
Q 1113 2219 1719 2053 
Q 1766 2041 1788 2034 
L 1972 1978 
Q 2547 1819 2739 1644 
Q 2931 1469 2931 1166 
Q 2931 609 2489 259 
Q 2047 -91 1331 -91 
Q 1053 -91 747 -37 
Q 441 16 72 128 
L 184 722 
Q 500 559 806 475 
Q 1113 391 1394 391 
Q 1816 391 2080 572 
Q 2344 753 2344 1031 
Q 2344 1331 1650 1516 
L 1591 1531 
L 1394 1581 
Q 956 1697 753 1886 
Q 550 2075 550 2369 
Q 550 2928 970 3256 
Q 1391 3584 2113 3584 
Q 2397 3584 2667 3537 
Q 2938 3491 3200 3397 
z
" transform="scale(0.015625)"/>
       <path id="DejaVuSans-Oblique-68" d="M 3566 2113 
L 3156 0 
L 2578 0 
L 2988 2091 
Q 3016 2238 3031 2350 
Q 3047 2463 3047 2528 
Q 3047 2791 2881 2937 
Q 2716 3084 2419 3084 
Q 1956 3084 1617 2771 
Q 1278 2459 1178 1941 
L 800 0 
L 225 0 
L 1172 4863 
L 1747 4863 
L 1375 2950 
Q 1594 3244 1934 3414 
Q 2275 3584 2650 3584 
Q 3113 3584 3367 3334 
Q 3622 3084 3622 2631 
Q 3622 2519 3608 2391 
Q 3594 2263 3566 2113 
z
" transform="scale(0.015625)"/>
       <path id="DejaVuSans-Oblique-69" d="M 1172 4863 
L 1747 4863 
L 1606 4134 
L 1031 4134 
L 1172 4863 
z
M 909 3500 
L 1484 3500 
L 800 0 
L 225 0 
L 909 3500 
z
" transform="scale(0.015625)"/>
       <path id="DejaVuSans-Oblique-74" d="M 2706 3500 
L 2619 3053 
L 1472 3053 
L 1100 1153 
Q 1081 1047 1072 975 
Q 1063 903 1063 863 
Q 1063 663 1183 572 
Q 1303 481 1569 481 
L 2150 481 
L 2053 0 
L 1503 0 
Q 991 0 739 200 
Q 488 400 488 806 
Q 488 878 497 964 
Q 506 1050 525 1153 
L 897 3053 
L 409 3053 
L 500 3500 
L 978 3500 
L 1172 4494 
L 1747 4494 
L 1556 3500 
L 2706 3500 
z
" transform="scale(0.015625)"/>
       <path id="DejaVuSans-28" d="M 1984 4856 
Q 1566 4138 1362 3434 
Q 1159 2731 1159 2009 
Q 1159 1288 1364 580 
Q 1569 -128 1984 -844 
L 1484 -844 
Q 1016 -109 783 600 
Q 550 1309 550 2009 
Q 550 2706 781 3412 
Q 1013 4119 1484 4856 
L 1984 4856 
z
" transform="scale(0.015625)"/>
       <path id="DejaVuSans-Oblique-7a" d="M 744 3500 
L 3475 3500 
L 3372 2975 
L 738 459 
L 2913 459 
L 2822 0 
L -19 0 
L 84 525 
L 2719 3041 
L 653 3041 
L 744 3500 
z
" transform="scale(0.015625)"/>
       <path id="DejaVuSans-29" d="M 513 4856 
L 1013 4856 
Q 1481 4119 1714 3412 
Q 1947 2706 1947 2009 
Q 1947 1309 1714 600 
Q 1481 -109 1013 -844 
L 513 -844 
Q 928 -128 1133 580 
Q 1338 1288 1338 2009 
Q 1338 2731 1133 3434 
Q 928 4138 513 4856 
z
" transform="scale(0.015625)"/>
      </defs>
      <use xlink:href="#DejaVuSans-Oblique-52" transform="translate(0 0.015625)"/>
      <use xlink:href="#DejaVuSans-Oblique-65" transform="translate(69.482422 0.015625)"/>
      <use xlink:href="#DejaVuSans-Oblique-64" transform="translate(131.005859 0.015625)"/>
      <use xlink:href="#DejaVuSans-Oblique-73" transform="translate(194.482422 0.015625)"/>
      <use xlink:href="#DejaVuSans-Oblique-68" transform="translate(246.582031 0.015625)"/>
      <use xlink:href="#DejaVuSans-Oblique-69" transform="translate(309.960938 0.015625)"/>
      <use xlink:href="#DejaVuSans-Oblique-66" transform="translate(337.744141 0.015625)"/>
      <use xlink:href="#DejaVuSans-Oblique-74" transform="translate(372.949219 0.015625)"/>
      <use xlink:href="#DejaVuSans-28" transform="translate(412.158203 0.015625)"/>
      <use xlink:href="#DejaVuSans-Oblique-7a" transform="translate(451.171875 0.015625)"/>
      <use xlink:href="#DejaVuSans-29" transform="translate(503.662109 0.015625)"/>
     </g>
    </g>
   </g>
   <g id="matplotlib.axis_4">
    <g id="ytick_6">
     <g id="line2d_13">
      <g>
       <use xlink:href="#mb691bf3703" x="75.69875" y="315.098182" style="stroke: #000000; stroke-width: 0.8"/>
      </g>
     </g>
     <g id="text_13">
      <!-- −5 -->
      <g transform="translate(42.162812 321.936776) scale(0.18 -0.18)">
       <defs>
        <path id="DejaVuSans-2212" d="M 678 2272 
L 4684 2272 
L 4684 1741 
L 678 1741 
L 678 2272 
z
" transform="scale(0.015625)"/>
       </defs>
       <use xlink:href="#DejaVuSans-2212"/>
       <use xlink:href="#DejaVuSans-35" x="83.789062"/>
      </g>
     </g>
    </g>
    <g id="ytick_7">
     <g id="line2d_14">
      <g>
       <use xlink:href="#mb691bf3703" x="75.69875" y="283.68" style="stroke: #000000; stroke-width: 0.8"/>
      </g>
     </g>
     <g id="text_14">
      <!-- 0 -->
      <g transform="translate(57.24625 290.518594) scale(0.18 -0.18)">
       <use xlink:href="#DejaVuSans-30"/>
      </g>
     </g>
    </g>
    <g id="ytick_8">
     <g id="line2d_15">
      <g>
       <use xlink:href="#mb691bf3703" x="75.69875" y="252.261818" style="stroke: #000000; stroke-width: 0.8"/>
      </g>
     </g>
     <g id="text_15">
      <!-- 5 -->
      <g transform="translate(57.24625 259.100412) scale(0.18 -0.18)">
       <use xlink:href="#DejaVuSans-35"/>
      </g>
     </g>
    </g>
   </g>
   <g id="line2d_16">
    <path d="M 75.69875 283.68 
L 416.69075 283.68 
" clip-path="url(#pb62853e771)" style="fill: none; stroke-dasharray: 5.55,2.4; stroke-dashoffset: 0; stroke: #000000; stroke-opacity: 0.5; stroke-width: 1.5"/>
   </g>
   <g id="line2d_17">
    <path d="M 75.69875 277.396364 
L 416.69075 277.396364 
" clip-path="url(#pb62853e771)" style="fill: none; stroke-dasharray: 1.5,2.475; stroke-dashoffset: 0; stroke: #000000; stroke-opacity: 0.3; stroke-width: 1.5"/>
   </g>
   <g id="line2d_18">
    <path d="M 75.69875 289.963636 
L 416.69075 289.963636 
" clip-path="url(#pb62853e771)" style="fill: none; stroke-dasharray: 1.5,2.475; stroke-dashoffset: 0; stroke: #000000; stroke-opacity: 0.3; stroke-width: 1.5"/>
   </g>
   <g id="patch_8">
    <path d="M 75.69875 318.24 
L 75.69875 249.12 
" style="fill: none; stroke: #000000; stroke-width: 0.8; stroke-linejoin: miter; stroke-linecap: square"/>
   </g>
   <g id="patch_9">
    <path d="M 416.69075 318.24 
L 416.69075 249.12 
" style="fill: none; stroke: #000000; stroke-width: 0.8; stroke-linejoin: miter; stroke-linecap: square"/>
   </g>
   <g id="patch_10">
    <path d="M 75.69875 318.24 
L 416.69075 318.24 
" style="fill: none; stroke: #000000; stroke-width: 0.8; stroke-linejoin: miter; stroke-linecap: square"/>
   </g>
   <g id="patch_11">
    <path d="M 75.69875 249.12 
L 416.69075 249.12 
" style="fill: none; stroke: #000000; stroke-width: 0.8; stroke-linejoin: miter; stroke-linecap: square"/>
   </g>
  </g>
  <g id="axes_3">
   <g id="patch_12">
    <path d="M 421.29875 318.24 
L 485.81075 318.24 
L 485.81075 249.12 
L 421.29875 249.12 
z
" style="fill: #ffffff"/>
   </g>
   <g id="patch_13">
    <path d="M 421.29875 294.127046 
L 428.97875 294.127046 
L 428.97875 290.638277 
L 421.29875 290.638277 
z
" clip-path="url(#pb20d441569)" style="fill: #ff0000"/>
   </g>
   <g id="patch_14">
    <path d="M 421.29875 290.638277 
L 436.65875 290.638277 
L 436.65875 287.149508 
L 421.29875 287.149508 
z
" clip-path="url(#pb20d441569)" style="fill: #ff0000"/>
   </g>
   <g id="patch_15">
    <path d="M 421.29875 287.149508 
L 444.33875 287.149508 
L 444.33875 283.660739 
L 421.29875 283.660739 
z
" clip-path="url(#pb20d441569)" style="fill: #ff0000"/>
   </g>
   <g id="patch_16">
    <path d="M 421.29875 283.660739 
L 471.21875 283.660739 
L 471.21875 280.17197 
L 421.29875 280.17197 
z
" clip-path="url(#pb20d441569)" style="fill: #ff0000"/>
   </g>
   <g id="patch_17">
    <path d="M 421.29875 280.17197 
L 482.73875 280.17197 
L 482.73875 276.683201 
L 421.29875 276.683201 
z
" clip-path="url(#pb20d441569)" style="fill: #ff0000"/>
   </g>
   <g id="patch_18">
    <path d="M 421.29875 276.683201 
L 444.33875 276.683201 
L 444.33875 273.194432 
L 421.29875 273.194432 
z
" clip-path="url(#pb20d441569)" style="fill: #ff0000"/>
   </g>
   <g id="patch_19">
    <path d="M 421.29875 273.194432 
L 448.17875 273.194432 
L 448.17875 269.705663 
L 421.29875 269.705663 
z
" clip-path="url(#pb20d441569)" style="fill: #ff0000"/>
   </g>
   <g id="patch_20">
    <path d="M 421.29875 269.705663 
L 432.81875 269.705663 
L 432.81875 266.216894 
L 421.29875 266.216894 
z
" clip-path="url(#pb20d441569)" style="fill: #ff0000"/>
   </g>
   <g id="patch_21">
    <path d="M 421.29875 266.216894 
L 428.97875 266.216894 
L 428.97875 262.728125 
L 421.29875 262.728125 
z
" clip-path="url(#pb20d441569)" style="fill: #ff0000"/>
   </g>
   <g id="patch_22">
    <path d="M 421.29875 262.728125 
L 421.29875 262.728125 
L 421.29875 259.239356 
L 421.29875 259.239356 
z
" clip-path="url(#pb20d441569)" style="fill: #ff0000"/>
   </g>
   <g id="patch_23">
    <path d="M 421.29875 259.239356 
L 421.29875 259.239356 
L 421.29875 255.750587 
L 421.29875 255.750587 
z
" clip-path="url(#pb20d441569)" style="fill: #ff0000"/>
   </g>
   <g id="patch_24">
    <path d="M 421.29875 255.750587 
L 425.13875 255.750587 
L 425.13875 252.261818 
L 421.29875 252.261818 
z
" clip-path="url(#pb20d441569)" style="fill: #ff0000"/>
   </g>
   <g id="matplotlib.axis_5">
    <g id="xtick_11">
     <g id="line2d_19">
      <g>
       <use xlink:href="#m85a2383050" x="450.480602" y="318.24" style="stroke: #000000; stroke-width: 0.8"/>
      </g>
     </g>
     <g id="text_16">
      <!-- 0.2 -->
      <g transform="translate(436.167789 338.917187) scale(0.18 -0.18)">
       <use xlink:href="#DejaVuSans-30"/>
       <use xlink:href="#DejaVuSans-2e" x="63.623047"/>
       <use xlink:href="#DejaVuSans-32" x="95.410156"/>
      </g>
     </g>
    </g>
    <g id="xtick_12">
     <g id="line2d_20">
      <g>
       <use xlink:href="#m85a2383050" x="479.662454" y="318.24" style="stroke: #000000; stroke-width: 0.8"/>
      </g>
     </g>
     <g id="text_17">
      <!-- 0.4 -->
      <g transform="translate(465.349641 338.917187) scale(0.18 -0.18)">
       <use xlink:href="#DejaVuSans-30"/>
       <use xlink:href="#DejaVuSans-2e" x="63.623047"/>
       <use xlink:href="#DejaVuSans-34" x="95.410156"/>
      </g>
     </g>
    </g>
   </g>
   <g id="matplotlib.axis_6">
    <g id="ytick_9"/>
    <g id="ytick_10"/>
    <g id="ytick_11"/>
   </g>
   <g id="line2d_21">
    <path d="M 421.29875 287.553241 
L 485.81075 287.553241 
" clip-path="url(#pb20d441569)" style="fill: none; stroke-dasharray: 5.55,2.4; stroke-dashoffset: 0; stroke: #000000; stroke-opacity: 0.5; stroke-width: 1.5"/>
   </g>
   <g id="line2d_22">
    <path d="M 421.29875 282.044253 
L 485.81075 282.044253 
" clip-path="url(#pb20d441569)" style="fill: none; stroke-dasharray: 1.5,2.475; stroke-dashoffset: 0; stroke: #000000; stroke-opacity: 0.3; stroke-width: 1.5"/>
   </g>
   <g id="line2d_23">
    <path d="M 421.29875 293.062229 
L 485.81075 293.062229 
" clip-path="url(#pb20d441569)" style="fill: none; stroke-dasharray: 1.5,2.475; stroke-dashoffset: 0; stroke: #000000; stroke-opacity: 0.3; stroke-width: 1.5"/>
   </g>
   <g id="line2d_24">
    <path d="M 421.298825 315.098182 
L 421.408297 303.131711 
L 421.654753 300.59504 
L 422.031574 298.885544 
L 422.556066 297.506918 
L 423.258291 296.293728 
L 424.15829 295.190827 
L 425.302656 294.143072 
L 426.783723 293.095316 
L 428.650116 292.047561 
L 431.071033 290.94466 
L 434.295438 289.73147 
L 438.640801 288.352844 
L 444.827425 286.643348 
L 459.300049 282.728051 
L 462.600252 281.570006 
L 464.624577 280.63254 
L 465.777429 279.86051 
L 466.328099 279.253915 
L 466.545913 278.702464 
L 466.508091 278.206159 
L 466.249203 277.709854 
L 465.706997 277.158404 
L 464.716417 276.496663 
L 463.124958 275.724633 
L 460.637736 274.787167 
L 456.897628 273.629122 
L 450.339922 271.864481 
L 438.628123 268.721215 
L 433.967541 267.232299 
L 430.539424 265.908818 
L 428.009635 264.695628 
L 426.110385 263.537582 
L 424.717756 262.434682 
L 423.670036 261.331781 
L 422.871997 260.173735 
L 422.779202 260.0083 
L 422.779202 260.0083 
" clip-path="url(#pb20d441569)" style="fill: none; stroke: #000000; stroke-width: 1.5; stroke-linecap: square"/>
   </g>
   <g id="patch_25">
    <path d="M 421.29875 318.24 
L 421.29875 249.12 
" style="fill: none; stroke: #000000; stroke-width: 0.8; stroke-linejoin: miter; stroke-linecap: square"/>
   </g>
   <g id="patch_26">
    <path d="M 485.81075 318.24 
L 485.81075 249.12 
" style="fill: none; stroke: #000000; stroke-width: 0.8; stroke-linejoin: miter; stroke-linecap: square"/>
   </g>
   <g id="patch_27">
    <path d="M 421.29875 318.24 
L 485.81075 318.24 
" style="fill: none; stroke: #000000; stroke-width: 0.8; stroke-linejoin: miter; stroke-linecap: square"/>
   </g>
   <g id="patch_28">
    <path d="M 421.29875 249.12 
L 485.81075 249.12 
" style="fill: none; stroke: #000000; stroke-width: 0.8; stroke-linejoin: miter; stroke-linecap: square"/>
   </g>
  </g>
 </g>
 <defs>
  <clipPath id="pa22560eebf">
   <rect x="75.69875" y="7.2" width="340.992" height="235.008"/>
  </clipPath>
  <clipPath id="pb62853e771">
   <rect x="75.69875" y="249.12" width="340.992" height="69.12"/>
  </clipPath>
  <clipPath id="pb20d441569">
   <rect x="421.29875" y="249.12" width="64.512" height="69.12"/>
  </clipPath>
 </defs>
</svg>
