<?xml version="1.0" encoding="utf-8" standalone="no"?>
<!DOCTYPE svg PUBLIC "-//W3C//DTD SVG 1.1//EN"
  "http://www.w3.org/Graphics/SVG/1.1/DTD/svg11.dtd">
<svg xmlns:xlink="http://www.w3.org/1999/xlink" width="495.129534pt" height="371.28125pt" viewBox="0 0 495.129534 371.28125" xmlns="http://www.w3.org/2000/svg" version="1.1">
 <metadata>
  <rdf:RDF xmlns:dc="http://purl.org/dc/elements/1.1/" xmlns:cc="http://creativecommons.org/ns#" xmlns:rdf="http://www.w3.org/1999/02/22-rdf-syntax-ns#">
   <cc:Work>
    <dc:type rdf:resource="http://purl.org/dc/dcmitype/StillImage"/>
    <dc:date>2026-02-26T22:31:47.118129</dc:date>
    <dc:format>image/svg+xml</dc:format>
    <dc:creator>
     <cc:Agent>
      <dc:title>Matplotlib v3.9.2, https://matplotlib.org/</dc:title>
     </cc:Agent>
    </dc:creator>
   </cc:Work>
  </rdf:RDF>
 </metadata>
 <defs>
  <style type="text/css">*{stroke-linejoin: round; stroke-linecap: butt}</style>
 </defs>
 <g id="figure_1">
  <g id="patch_1">
   <path d="M -0 371.28125 
L 495.129534 371.28125 
L 495.129534 0 
L -0 0 
z
" style="fill: #ffffff"/>
  </g>
  <g id="axes_1">
   <g id="patch_2">
    <path d="M 75.69875 242.208 
L 416.69075 242.208 
L 416.69075 7.2 
L 75.69875 7.2 
z
" style="fill: #ffffff"/>
   </g>
   <g id="matplotlib.axis_1">
    <g id="xtick_1"/>
    <g id="xtick_2"/>
    <g id="xtick_3"/>
    <g id="xtick_4"/>
    <g id="xtick_5"/>
   </g>
   <g id="matplotlib.axis_2">
    <g id="ytick_1">
     <g id="line2d_1">
      <defs>
       <path id="m7212fe14a4" d="M 0 0 
L -3.5 0 
" style="stroke: #000000; stroke-width: 0.8"/>
      </defs>
      <g>
       <use xlink:href="#m7212fe14a4" x="75.69875" y="216.697584" style="stroke: #000000; stroke-width: 0.8"/>
      </g>
     </g>
     <g id="text_1">
      <!-- 15.0 -->
      <g transform="translate(28.620625 223.536178) scale(0.18 -0.18)">
       <defs>
        <path id="DejaVuSans-31" d="M 794 531 
L 1825 531 
L 1825 4091 
L 703 3866 
L 703 4441 
L 1819 4666 
L 2450 4666 
L 2450 531 
L 3481 531 
L 3481 0 
L 794 0 
L 794 531 
z
" transform="scale(0.015625)"/>
        <path id="DejaVuSans-35" d="M 691 4666 
L 3169 4666 
L 3169 4134 
L 1269 4134 
L 1269 2991 
Q 1406 3038 1543 3061 
Q 1681 3084 1819 3084 
Q 2600 3084 3056 2656 
Q 3513 2228 3513 1497 
Q 3513 744 3044 326 
Q 2575 -91 1722 -91 
Q 1428 -91 1123 -41 
Q 819 9 494 109 
L 494 744 
Q 775 591 1075 516 
Q 1375 441 1709 441 
Q 2250 441 2565 725 
Q 2881 1009 2881 1497 
Q 2881 1984 2565 2268 
Q 2250 2553 1709 2553 
Q 1456 2553 1204 2497 
Q 953 2441 691 2322 
L 691 4666 
z
" transform="scale(0.015625)"/>
        <path id="DejaVuSans-2e" d="M 684 794 
L 1344 794 
L 1344 0 
L 684 0 
L 684 794 
z
" transform="scale(0.015625)"/>
        <path id="DejaVuSans-30" d="M 2034 4250 
Q 1547 4250 1301 3770 
Q 1056 3291 1056 2328 
Q 1056 1369 1301 889 
Q 1547 409 2034 409 
Q 2525 409 2770 889 
Q 3016 1369 3016 2328 
Q 3016 3291 2770 3770 
Q 2525 4250 2034 4250 
z
M 2034 4750 
Q 2819 4750 3233 4129 
Q 3647 3509 3647 2328 
Q 3647 1150 3233 529 
Q 2819 -91 2034 -91 
Q 1250 -91 836 529 
Q 422 1150 422 2328 
Q 422 3509 836 4129 
Q 1250 4750 2034 4750 
z
" transform="scale(0.015625)"/>
       </defs>
       <use xlink:href="#DejaVuSans-31"/>
       <use xlink:href="#DejaVuSans-35" x="63.623047"/>
       <use xlink:href="#DejaVuSans-2e" x="127.246094"/>
       <use xlink:href="#DejaVuSans-30" x="159.033203"/>
      </g>
     </g>
    </g>
    <g id="ytick_2">
     <g id="line2d_2">
      <g>
       <use xlink:href="#m7212fe14a4" x="75.69875" y="167.920498" style="stroke: #000000; stroke-width: 0.8"/>
      </g>
     </g>
     <g id="text_2">
      <!-- 17.5 -->
      <g transform="translate(28.620625 174.759092) scale(0.18 -0.18)">
       <defs>
        <path id="DejaVuSans-37" d="M 525 4666 
L 3525 4666 
L 3525 4397 
L 1831 0 
L 1172 0 
L 2766 4134 
L 525 4134 
L 525 4666 
z
" transform="scale(0.015625)"/>
       </defs>
       <use xlink:href="#DejaVuSans-31"/>
       <use xlink:href="#DejaVuSans-37" x="63.623047"/>
       <use xlink:href="#DejaVuSans-2e" x="127.246094"/>
       <use xlink:href="#DejaVuSans-35" x="159.033203"/>
      </g>
     </g>
    </g>
    <g id="ytick_3">
     <g id="line2d_3">
      <g>
       <use xlink:href="#m7212fe14a4" x="75.69875" y="119.143412" style="stroke: #000000; stroke-width: 0.8"/>
      </g>
     </g>
     <g id="text_3">
      <!-- 20.0 -->
      <g transform="translate(28.620625 125.982006) scale(0.18 -0.18)">
       <defs>
        <path id="DejaVuSans-32" d="M 1228 531 
L 3431 531 
L 3431 0 
L 469 0 
L 469 531 
Q 828 903 1448 1529 
Q 2069 2156 2228 2338 
Q 2531 2678 2651 2914 
Q 2772 3150 2772 3378 
Q 2772 3750 2511 3984 
Q 2250 4219 1831 4219 
Q 1534 4219 1204 4116 
Q 875 4013 500 3803 
L 500 4441 
Q 881 4594 1212 4672 
Q 1544 4750 1819 4750 
Q 2544 4750 2975 4387 
Q 3406 4025 3406 3419 
Q 3406 3131 3298 2873 
Q 3191 2616 2906 2266 
Q 2828 2175 2409 1742 
Q 1991 1309 1228 531 
z
" transform="scale(0.015625)"/>
       </defs>
       <use xlink:href="#DejaVuSans-32"/>
       <use xlink:href="#DejaVuSans-30" x="63.623047"/>
       <use xlink:href="#DejaVuSans-2e" x="127.246094"/>
       <use xlink:href="#DejaVuSans-30" x="159.033203"/>
      </g>
     </g>
    </g>
    <g id="ytick_4">
     <g id="line2d_4">
      <g>
       <use xlink:href="#m7212fe14a4" x="75.69875" y="70.366326" style="stroke: #000000; stroke-width: 0.8"/>
      </g>
     </g>
     <g id="text_4">
      <!-- 22.5 -->
      <g transform="translate(28.620625 77.20492) scale(0.18 -0.18)">
       <use xlink:href="#DejaVuSans-32"/>
       <use xlink:href="#DejaVuSans-32" x="63.623047"/>
       <use xlink:href="#DejaVuSans-2e" x="127.246094"/>
       <use xlink:href="#DejaVuSans-35" x="159.033203"/>
      </g>
     </g>
    </g>
    <g id="ytick_5">
     <g id="line2d_5">
      <g>
       <use xlink:href="#m7212fe14a4" x="75.69875" y="21.58924" style="stroke: #000000; stroke-width: 0.8"/>
      </g>
     </g>
     <g id="text_5">
      <!-- 25.0 -->
      <g transform="translate(28.620625 28.427834) scale(0.18 -0.18)">
       <use xlink:href="#DejaVuSans-32"/>
       <use xlink:href="#DejaVuSans-35" x="63.623047"/>
       <use xlink:href="#DejaVuSans-2e" x="127.246094"/>
       <use xlink:href="#DejaVuSans-30" x="159.033203"/>
      </g>
     </g>
    </g>
    <g id="text_6">
     <!-- $M_{eff}$ -->
     <g transform="translate(20.877187 141.084) rotate(-90) scale(0.18 -0.18)">
      <defs>
       <path id="DejaVuSans-Oblique-4d" d="M 1081 4666 
L 2028 4666 
L 2572 1522 
L 4378 4666 
L 5350 4666 
L 4441 0 
L 3828 0 
L 4622 4091 
L 2791 897 
L 2175 897 
L 1581 4103 
L 788 0 
L 172 0 
L 1081 4666 
z
" transform="scale(0.015625)"/>
       <path id="DejaVuSans-Oblique-65" d="M 3078 2063 
Q 3088 2113 3092 2166 
Q 3097 2219 3097 2272 
Q 3097 2653 2873 2875 
Q 2650 3097 2266 3097 
Q 1838 3097 1509 2826 
Q 1181 2556 1013 2059 
L 3078 2063 
z
M 3578 1613 
L 903 1613 
Q 884 1494 878 1425 
Q 872 1356 872 1306 
Q 872 872 1139 634 
Q 1406 397 1894 397 
Q 2269 397 2603 481 
Q 2938 566 3225 728 
L 3116 159 
Q 2806 34 2476 -28 
Q 2147 -91 1806 -91 
Q 1078 -91 686 257 
Q 294 606 294 1247 
Q 294 1794 489 2264 
Q 684 2734 1063 3103 
Q 1306 3334 1642 3459 
Q 1978 3584 2356 3584 
Q 2950 3584 3301 3228 
Q 3653 2872 3653 2272 
Q 3653 2128 3634 1964 
Q 3616 1800 3578 1613 
z
" transform="scale(0.015625)"/>
       <path id="DejaVuSans-Oblique-66" d="M 3059 4863 
L 2969 4384 
L 2419 4384 
Q 2106 4384 1964 4261 
Q 1822 4138 1753 3809 
L 1691 3500 
L 2638 3500 
L 2553 3053 
L 1606 3053 
L 1013 0 
L 434 0 
L 1031 3053 
L 481 3053 
L 563 3500 
L 1113 3500 
L 1159 3744 
Q 1278 4363 1576 4613 
Q 1875 4863 2516 4863 
L 3059 4863 
z
" transform="scale(0.015625)"/>
      </defs>
      <use xlink:href="#DejaVuSans-Oblique-4d" transform="translate(0 0.09375)"/>
      <use xlink:href="#DejaVuSans-Oblique-65" transform="translate(86.279297 -16.3125) scale(0.7)"/>
      <use xlink:href="#DejaVuSans-Oblique-66" transform="translate(129.345703 -16.3125) scale(0.7)"/>
      <use xlink:href="#DejaVuSans-Oblique-66" transform="translate(153.989258 -16.3125) scale(0.7)"/>
     </g>
    </g>
   </g>
   <g id="LineCollection_1">
    <path d="M 257.296815 67.439701 
L 257.296815 49.489733 
" clip-path="url(#pde2b94e598)" style="fill: none; stroke: #808080"/>
    <path d="M 216.060573 79.146202 
L 216.060573 66.269051 
" clip-path="url(#pde2b94e598)" style="fill: none; stroke: #808080"/>
    <path d="M 244.212238 87.145644 
L 244.212238 68.025026 
" clip-path="url(#pde2b94e598)" style="fill: none; stroke: #808080"/>
    <path d="M 223.99062 89.877161 
L 223.99062 81.292394 
" clip-path="url(#pde2b94e598)" style="fill: none; stroke: #808080"/>
    <path d="M 242.229727 74.268493 
L 242.229727 64.513076 
" clip-path="url(#pde2b94e598)" style="fill: none; stroke: #808080"/>
    <path d="M 223.197615 78.951093 
L 223.197615 71.14676 
" clip-path="url(#pde2b94e598)" style="fill: none; stroke: #808080"/>
    <path d="M 225.576629 76.024468 
L 225.576629 61.586451 
" clip-path="url(#pde2b94e598)" style="fill: none; stroke: #808080"/>
    <path d="M 255.314303 62.171776 
L 255.314303 52.416359 
" clip-path="url(#pde2b94e598)" style="fill: none; stroke: #808080"/>
    <path d="M 260.072331 60.025584 
L 260.072331 48.319083 
" clip-path="url(#pde2b94e598)" style="fill: none; stroke: #808080"/>
    <path d="M 273.156908 51.635925 
L 273.156908 41.880508 
" clip-path="url(#pde2b94e598)" style="fill: none; stroke: #808080"/>
    <path d="M 335.407773 59.440259 
L 335.407773 51.245709 
" clip-path="url(#pde2b94e598)" style="fill: none; stroke: #808080"/>
    <path d="M 234.29968 76.804902 
L 234.29968 69.390785 
" clip-path="url(#pde2b94e598)" style="fill: none; stroke: #808080"/>
    <path d="M 319.54768 61.781559 
L 319.54768 52.026142 
" clip-path="url(#pde2b94e598)" style="fill: none; stroke: #808080"/>
    <path d="M 266.019866 66.073943 
L 266.019866 56.708742 
" clip-path="url(#pde2b94e598)" style="fill: none; stroke: #808080"/>
    <path d="M 254.124797 74.65871 
L 254.124797 65.683726 
" clip-path="url(#pde2b94e598)" style="fill: none; stroke: #808080"/>
    <path d="M 229.541652 71.341868 
L 229.541652 63.537534 
" clip-path="url(#pde2b94e598)" style="fill: none; stroke: #808080"/>
    <path d="M 301.705076 59.635367 
L 301.705076 51.0506 
" clip-path="url(#pde2b94e598)" style="fill: none; stroke: #808080"/>
    <path d="M 269.98489 62.561993 
L 269.98489 54.757659 
" clip-path="url(#pde2b94e598)" style="fill: none; stroke: #808080"/>
    <path d="M 271.967401 67.634809 
L 271.967401 60.220692 
" clip-path="url(#pde2b94e598)" style="fill: none; stroke: #808080"/>
    <path d="M 335.804276 54.952767 
L 335.804276 44.0267 
" clip-path="url(#pde2b94e598)" style="fill: none; stroke: #808080"/>
    <path d="M 404.002676 38.953883 
L 404.002676 17.882182 
" clip-path="url(#pde2b94e598)" style="fill: none; stroke: #808080"/>
    <path d="M 254.124797 61.781559 
L 254.124797 52.806575 
" clip-path="url(#pde2b94e598)" style="fill: none; stroke: #808080"/>
    <path d="M 246.19475 62.366884 
L 246.19475 53.782117 
" clip-path="url(#pde2b94e598)" style="fill: none; stroke: #808080"/>
    <path d="M 305.670099 56.123417 
L 305.670099 47.148433 
" clip-path="url(#pde2b94e598)" style="fill: none; stroke: #808080"/>
    <path d="M 378.230024 42.270725 
L 378.230024 21.58924 
" clip-path="url(#pde2b94e598)" style="fill: none; stroke: #808080"/>
    <path d="M 284.258973 61.586451 
L 284.258973 53.782117 
" clip-path="url(#pde2b94e598)" style="fill: none; stroke: #808080"/>
    <path d="M 143.89715 119.338521 
L 143.89715 112.31462 
" clip-path="url(#pde2b94e598)" style="fill: none; stroke: #808080"/>
    <path d="M 321.13369 50.465275 
L 321.13369 39.539208 
" clip-path="url(#pde2b94e598)" style="fill: none; stroke: #808080"/>
    <path d="M 310.428127 40.124533 
L 310.428127 25.686516 
" clip-path="url(#pde2b94e598)" style="fill: none; stroke: #808080"/>
    <path d="M 293.775029 55.538092 
L 293.775029 45.782675 
" clip-path="url(#pde2b94e598)" style="fill: none; stroke: #808080"/>
    <path d="M 147.069169 114.070595 
L 147.069169 107.436912 
" clip-path="url(#pde2b94e598)" style="fill: none; stroke: #808080"/>
    <path d="M 223.99062 55.147875 
L 223.99062 45.782675 
" clip-path="url(#pde2b94e598)" style="fill: none; stroke: #808080"/>
    <path d="M 262.847848 62.171776 
L 262.847848 54.757659 
" clip-path="url(#pde2b94e598)" style="fill: none; stroke: #808080"/>
    <path d="M 246.19475 72.512518 
L 246.19475 65.488618 
" clip-path="url(#pde2b94e598)" style="fill: none; stroke: #808080"/>
    <path d="M 336.200778 48.904408 
L 336.200778 39.929425 
" clip-path="url(#pde2b94e598)" style="fill: none; stroke: #808080"/>
    <path d="M 318.358173 51.245709 
L 318.358173 43.051158 
" clip-path="url(#pde2b94e598)" style="fill: none; stroke: #808080"/>
    <path d="M 202.579494 86.36521 
L 202.579494 79.34131 
" clip-path="url(#pde2b94e598)" style="fill: none; stroke: #808080"/>
    <path d="M 305.273597 55.538092 
L 305.273597 46.953325 
" clip-path="url(#pde2b94e598)" style="fill: none; stroke: #808080"/>
    <path d="M 254.124797 69.781001 
L 254.124797 58.074501 
" clip-path="url(#pde2b94e598)" style="fill: none; stroke: #808080"/>
    <path d="M 306.066601 63.147318 
L 306.066601 54.56255 
" clip-path="url(#pde2b94e598)" style="fill: none; stroke: #808080"/>
    <path d="M 240.643717 72.902735 
L 240.643717 65.098401 
" clip-path="url(#pde2b94e598)" style="fill: none; stroke: #808080"/>
    <path d="M 404.79568 39.148991 
L 404.79568 30.564224 
" clip-path="url(#pde2b94e598)" style="fill: none; stroke: #808080"/>
    <path d="M 87.59382 196.0161 
L 87.59382 188.211766 
" clip-path="url(#pde2b94e598)" style="fill: none; stroke: #808080"/>
    <path d="M 95.523866 168.89604 
L 95.523866 161.872139 
" clip-path="url(#pde2b94e598)" style="fill: none; stroke: #808080"/>
    <path d="M 86.00781 200.308483 
L 86.00781 190.943283 
" clip-path="url(#pde2b94e598)" style="fill: none; stroke: #808080"/>
    <path d="M 105.436424 153.677589 
L 105.436424 145.873255 
" clip-path="url(#pde2b94e598)" style="fill: none; stroke: #808080"/>
    <path d="M 86.00781 195.625883 
L 86.00781 187.821549 
" clip-path="url(#pde2b94e598)" style="fill: none; stroke: #808080"/>
    <path d="M 81.249783 231.525818 
L 81.249783 222.550834 
" clip-path="url(#pde2b94e598)" style="fill: none; stroke: #808080"/>
    <path d="M 115.745485 140.020005 
L 115.745485 131.045021 
" clip-path="url(#pde2b94e598)" style="fill: none; stroke: #808080"/>
    <path d="M 83.628797 217.087801 
L 83.628797 209.283467 
" clip-path="url(#pde2b94e598)" style="fill: none; stroke: #808080"/>
    <path d="M 89.972834 188.406874 
L 89.972834 180.212324 
" clip-path="url(#pde2b94e598)" style="fill: none; stroke: #808080"/>
    <path d="M 93.541355 169.481365 
L 93.541355 162.067248 
" clip-path="url(#pde2b94e598)" style="fill: none; stroke: #808080"/>
    <path d="M 92.74835 177.480807 
L 92.74835 170.456907 
" clip-path="url(#pde2b94e598)" style="fill: none; stroke: #808080"/>
    <path d="M 82.835792 208.89325 
L 82.835792 200.6987 
" clip-path="url(#pde2b94e598)" style="fill: none; stroke: #808080"/>
    <path d="M 107.022434 156.409106 
L 107.022434 149.385205 
" clip-path="url(#pde2b94e598)" style="fill: none; stroke: #808080"/>
    <path d="M 110.590955 136.703163 
L 110.590955 129.679263 
" clip-path="url(#pde2b94e598)" style="fill: none; stroke: #808080"/>
    <path d="M 100.678397 156.994431 
L 100.678397 149.970531 
" clip-path="url(#pde2b94e598)" style="fill: none; stroke: #808080"/>
    <path d="M 103.850415 155.628672 
L 103.850415 147.824339 
" clip-path="url(#pde2b94e598)" style="fill: none; stroke: #808080"/>
    <path d="M 96.316871 170.652015 
L 96.316871 163.628115 
" clip-path="url(#pde2b94e598)" style="fill: none; stroke: #808080"/>
    <path d="M 95.523866 168.115606 
L 95.523866 160.311273 
" clip-path="url(#pde2b94e598)" style="fill: none; stroke: #808080"/>
   </g>
   <g id="line2d_6">
    <path d="M 81.249783 225.070497 
L 82.545262 216.082415 
L 83.840741 208.639537 
L 85.46009 200.828998 
L 87.079438 194.201558 
L 88.698787 188.44146 
L 90.642006 182.391809 
L 92.585224 177.065811 
L 94.852313 171.559025 
L 97.119401 166.651441 
L 99.710359 161.623496 
L 102.301317 157.093581 
L 105.216145 152.478642 
L 108.130973 148.281136 
L 111.369671 144.020354 
L 114.608369 140.112986 
L 118.170936 136.156404 
L 122.057373 132.183298 
L 126.26768 128.219014 
L 130.477987 124.553706 
L 135.012164 120.890807 
L 139.87021 117.246133 
L 145.052127 113.631888 
L 150.557913 110.057341 
L 156.387569 106.529395 
L 162.864964 102.876495 
L 169.666229 99.301977 
L 176.791364 95.80512 
L 184.564238 92.240989 
L 192.660983 88.769917 
L 201.405466 85.261915 
L 210.79769 81.736636 
L 220.837652 78.210354 
L 231.525355 74.696422 
L 242.860797 71.205707 
L 254.843978 67.746973 
L 267.798769 64.242338 
L 281.401299 60.792658 
L 295.975438 57.326416 
L 311.521187 53.859566 
L 328.038545 50.405422 
L 345.527513 46.974983 
L 364.311959 43.519518 
L 384.391885 40.057007 
L 404.79568 36.75479 
L 404.79568 36.75479 
" clip-path="url(#pde2b94e598)" style="fill: none; stroke: #ff0000; stroke-width: 0.8; stroke-linecap: square"/>
   </g>
   <g id="line2d_7">
    <defs>
     <path id="m6b8790787b" d="M 0 1.5 
C 0.397805 1.5 0.77937 1.341951 1.06066 1.06066 
C 1.341951 0.77937 1.5 0.397805 1.5 0 
C 1.5 -0.397805 1.341951 -0.77937 1.06066 -1.06066 
C 0.77937 -1.341951 0.397805 -1.5 0 -1.5 
C -0.397805 -1.5 -0.77937 -1.341951 -1.06066 -1.06066 
C -1.341951 -0.77937 -1.5 -0.397805 -1.5 0 
C -1.5 0.397805 -1.341951 0.77937 -1.06066 1.06066 
C -0.77937 1.341951 -0.397805 1.5 0 1.5 
z
" style="stroke: #000000"/>
    </defs>
    <g clip-path="url(#pde2b94e598)">
     <use xlink:href="#m6b8790787b" x="257.296815" y="58.464717" style="stroke: #000000"/>
     <use xlink:href="#m6b8790787b" x="216.060573" y="72.707626" style="stroke: #000000"/>
     <use xlink:href="#m6b8790787b" x="244.212238" y="77.585335" style="stroke: #000000"/>
     <use xlink:href="#m6b8790787b" x="223.99062" y="85.584777" style="stroke: #000000"/>
     <use xlink:href="#m6b8790787b" x="242.229727" y="69.390785" style="stroke: #000000"/>
     <use xlink:href="#m6b8790787b" x="223.197615" y="75.048927" style="stroke: #000000"/>
     <use xlink:href="#m6b8790787b" x="225.576629" y="68.80546" style="stroke: #000000"/>
     <use xlink:href="#m6b8790787b" x="255.314303" y="57.294067" style="stroke: #000000"/>
     <use xlink:href="#m6b8790787b" x="260.072331" y="54.172334" style="stroke: #000000"/>
     <use xlink:href="#m6b8790787b" x="273.156908" y="46.758217" style="stroke: #000000"/>
     <use xlink:href="#m6b8790787b" x="335.407773" y="55.342984" style="stroke: #000000"/>
     <use xlink:href="#m6b8790787b" x="234.29968" y="73.097843" style="stroke: #000000"/>
     <use xlink:href="#m6b8790787b" x="319.54768" y="56.903851" style="stroke: #000000"/>
     <use xlink:href="#m6b8790787b" x="266.019866" y="61.391342" style="stroke: #000000"/>
     <use xlink:href="#m6b8790787b" x="254.124797" y="70.171218" style="stroke: #000000"/>
     <use xlink:href="#m6b8790787b" x="229.541652" y="67.439701" style="stroke: #000000"/>
     <use xlink:href="#m6b8790787b" x="301.705076" y="55.342984" style="stroke: #000000"/>
     <use xlink:href="#m6b8790787b" x="269.98489" y="58.659826" style="stroke: #000000"/>
     <use xlink:href="#m6b8790787b" x="271.967401" y="63.927751" style="stroke: #000000"/>
     <use xlink:href="#m6b8790787b" x="335.804276" y="49.489733" style="stroke: #000000"/>
     <use xlink:href="#m6b8790787b" x="404.002676" y="28.418032" style="stroke: #000000"/>
     <use xlink:href="#m6b8790787b" x="254.124797" y="57.294067" style="stroke: #000000"/>
     <use xlink:href="#m6b8790787b" x="246.19475" y="58.074501" style="stroke: #000000"/>
     <use xlink:href="#m6b8790787b" x="305.670099" y="51.635925" style="stroke: #000000"/>
     <use xlink:href="#m6b8790787b" x="378.230024" y="31.929983" style="stroke: #000000"/>
     <use xlink:href="#m6b8790787b" x="284.258973" y="57.684284" style="stroke: #000000"/>
     <use xlink:href="#m6b8790787b" x="143.89715" y="115.82657" style="stroke: #000000"/>
     <use xlink:href="#m6b8790787b" x="321.13369" y="45.002242" style="stroke: #000000"/>
     <use xlink:href="#m6b8790787b" x="310.428127" y="32.905524" style="stroke: #000000"/>
     <use xlink:href="#m6b8790787b" x="293.775029" y="50.660384" style="stroke: #000000"/>
     <use xlink:href="#m6b8790787b" x="147.069169" y="110.753753" style="stroke: #000000"/>
     <use xlink:href="#m6b8790787b" x="223.99062" y="50.465275" style="stroke: #000000"/>
     <use xlink:href="#m6b8790787b" x="262.847848" y="58.464717" style="stroke: #000000"/>
     <use xlink:href="#m6b8790787b" x="246.19475" y="69.000568" style="stroke: #000000"/>
     <use xlink:href="#m6b8790787b" x="336.200778" y="44.416917" style="stroke: #000000"/>
     <use xlink:href="#m6b8790787b" x="318.358173" y="47.148433" style="stroke: #000000"/>
     <use xlink:href="#m6b8790787b" x="202.579494" y="82.85326" style="stroke: #000000"/>
     <use xlink:href="#m6b8790787b" x="305.273597" y="51.245709" style="stroke: #000000"/>
     <use xlink:href="#m6b8790787b" x="254.124797" y="63.927751" style="stroke: #000000"/>
     <use xlink:href="#m6b8790787b" x="306.066601" y="58.854934" style="stroke: #000000"/>
     <use xlink:href="#m6b8790787b" x="240.643717" y="69.000568" style="stroke: #000000"/>
     <use xlink:href="#m6b8790787b" x="404.79568" y="34.856608" style="stroke: #000000"/>
     <use xlink:href="#m6b8790787b" x="87.59382" y="192.113933" style="stroke: #000000"/>
     <use xlink:href="#m6b8790787b" x="95.523866" y="165.38409" style="stroke: #000000"/>
     <use xlink:href="#m6b8790787b" x="86.00781" y="195.625883" style="stroke: #000000"/>
     <use xlink:href="#m6b8790787b" x="105.436424" y="149.775422" style="stroke: #000000"/>
     <use xlink:href="#m6b8790787b" x="86.00781" y="191.723716" style="stroke: #000000"/>
     <use xlink:href="#m6b8790787b" x="81.249783" y="227.038326" style="stroke: #000000"/>
     <use xlink:href="#m6b8790787b" x="115.745485" y="135.532513" style="stroke: #000000"/>
     <use xlink:href="#m6b8790787b" x="83.628797" y="213.185634" style="stroke: #000000"/>
     <use xlink:href="#m6b8790787b" x="89.972834" y="184.309599" style="stroke: #000000"/>
     <use xlink:href="#m6b8790787b" x="93.541355" y="165.774306" style="stroke: #000000"/>
     <use xlink:href="#m6b8790787b" x="92.74835" y="173.968857" style="stroke: #000000"/>
     <use xlink:href="#m6b8790787b" x="82.835792" y="204.795975" style="stroke: #000000"/>
     <use xlink:href="#m6b8790787b" x="107.022434" y="152.897156" style="stroke: #000000"/>
     <use xlink:href="#m6b8790787b" x="110.590955" y="133.191213" style="stroke: #000000"/>
     <use xlink:href="#m6b8790787b" x="100.678397" y="153.482481" style="stroke: #000000"/>
     <use xlink:href="#m6b8790787b" x="103.850415" y="151.726506" style="stroke: #000000"/>
     <use xlink:href="#m6b8790787b" x="96.316871" y="167.140065" style="stroke: #000000"/>
     <use xlink:href="#m6b8790787b" x="95.523866" y="164.21344" style="stroke: #000000"/>
    </g>
   </g>
   <g id="patch_3">
    <path d="M 75.69875 242.208 
L 75.69875 7.2 
" style="fill: none; stroke: #000000; stroke-width: 0.8; stroke-linejoin: miter; stroke-linecap: square"/>
   </g>
   <g id="patch_4">
    <path d="M 416.69075 242.208 
L 416.69075 7.2 
" style="fill: none; stroke: #000000; stroke-width: 0.8; stroke-linejoin: miter; stroke-linecap: square"/>
   </g>
   <g id="patch_5">
    <path d="M 75.69875 242.208 
L 416.69075 242.208 
" style="fill: none; stroke: #000000; stroke-width: 0.8; stroke-linejoin: miter; stroke-linecap: square"/>
   </g>
   <g id="patch_6">
    <path d="M 75.69875 7.2 
L 416.69075 7.2 
" style="fill: none; stroke: #000000; stroke-width: 0.8; stroke-linejoin: miter; stroke-linecap: square"/>
   </g>
  </g>
  <g id="axes_2">
   <g id="patch_7">
    <path d="M 75.69875 318.24 
L 416.69075 318.24 
L 416.69075 249.12 
L 75.69875 249.12 
z
" style="fill: #ffffff"/>
   </g>
   <g id="PathCollection_1">
    <defs>
     <path id="m4b725f59e0" d="M 0 1 
C 0.265203 1 0.51958 0.894634 0.707107 0.707107 
C 0.894634 0.51958 1 0.265203 1 0 
C 1 -0.265203 0.894634 -0.51958 0.707107 -0.707107 
C 0.51958 -0.894634 0.265203 -1 0 -1 
C -0.265203 -1 -0.51958 -0.894634 -0.707107 -0.707107 
C -0.894634 -0.51958 -1 -0.265203 -1 0 
C -1 0.265203 -0.894634 0.51958 -0.707107 0.707107 
C -0.51958 0.894634 -0.265203 1 0 1 
z
" style="stroke: #ff0000"/>
    </defs>
    <g clip-path="url(#pf0315e8473)">
     <use xlink:href="#m4b725f59e0" x="257.296815" y="277.658247" style="fill: #ff0000; stroke: #ff0000"/>
     <use xlink:href="#m4b725f59e0" x="216.060573" y="276.700645" style="fill: #ff0000; stroke: #ff0000"/>
     <use xlink:href="#m4b725f59e0" x="244.212238" y="288.136921" style="fill: #ff0000; stroke: #ff0000"/>
     <use xlink:href="#m4b725f59e0" x="223.99062" y="296.028505" style="fill: #ff0000; stroke: #ff0000"/>
     <use xlink:href="#m4b725f59e0" x="242.229727" y="281.099155" style="fill: #ff0000; stroke: #ff0000"/>
     <use xlink:href="#m4b725f59e0" x="223.197615" y="279.871053" style="fill: #ff0000; stroke: #ff0000"/>
     <use xlink:href="#m4b725f59e0" x="225.576629" y="276.874807" style="fill: #ff0000; stroke: #ff0000"/>
     <use xlink:href="#m4b725f59e0" x="255.314303" y="270.38336" style="fill: #ff0000; stroke: #ff0000"/>
     <use xlink:href="#m4b725f59e0" x="260.072331" y="270.655262" style="fill: #ff0000; stroke: #ff0000"/>
     <use xlink:href="#m4b725f59e0" x="273.156908" y="262.940996" style="fill: #ff0000; stroke: #ff0000"/>
     <use xlink:href="#m4b725f59e0" x="335.407773" y="293.510196" style="fill: #ff0000; stroke: #ff0000"/>
     <use xlink:href="#m4b725f59e0" x="234.29968" y="282.454523" style="fill: #ff0000; stroke: #ff0000"/>
     <use xlink:href="#m4b725f59e0" x="319.54768" y="289.799784" style="fill: #ff0000; stroke: #ff0000"/>
     <use xlink:href="#m4b725f59e0" x="266.019866" y="279.22629" style="fill: #ff0000; stroke: #ff0000"/>
     <use xlink:href="#m4b725f59e0" x="254.124797" y="286.792531" style="fill: #ff0000; stroke: #ff0000"/>
     <use xlink:href="#m4b725f59e0" x="229.541652" y="270.97204" style="fill: #ff0000; stroke: #ff0000"/>
     <use xlink:href="#m4b725f59e0" x="301.705076" y="282.6852" style="fill: #ff0000; stroke: #ff0000"/>
     <use xlink:href="#m4b725f59e0" x="269.98489" y="275.607632" style="fill: #ff0000; stroke: #ff0000"/>
     <use xlink:href="#m4b725f59e0" x="271.967401" y="284.97888" style="fill: #ff0000; stroke: #ff0000"/>
     <use xlink:href="#m4b725f59e0" x="335.804276" y="284.409991" style="fill: #ff0000; stroke: #ff0000"/>
     <use xlink:href="#m4b725f59e0" x="404.002676" y="278.633609" style="fill: #ff0000; stroke: #ff0000"/>
     <use xlink:href="#m4b725f59e0" x="254.124797" y="268.761226" style="fill: #ff0000; stroke: #ff0000"/>
     <use xlink:href="#m4b725f59e0" x="246.19475" y="265.89893" style="fill: #ff0000; stroke: #ff0000"/>
     <use xlink:href="#m4b725f59e0" x="305.670099" y="278.775695" style="fill: #ff0000; stroke: #ff0000"/>
     <use xlink:href="#m4b725f59e0" x="378.230024" y="278.110276" style="fill: #ff0000; stroke: #ff0000"/>
     <use xlink:href="#m4b725f59e0" x="284.258973" y="279.797726" style="fill: #ff0000; stroke: #ff0000"/>
     <use xlink:href="#m4b725f59e0" x="143.89715" y="286.205376" style="fill: #ff0000; stroke: #ff0000"/>
     <use xlink:href="#m4b725f59e0" x="321.13369" y="275.835274" style="fill: #ff0000; stroke: #ff0000"/>
     <use xlink:href="#m4b725f59e0" x="310.428127" y="265.235046" style="fill: #ff0000; stroke: #ff0000"/>
     <use xlink:href="#m4b725f59e0" x="293.775029" y="274.436546" style="fill: #ff0000; stroke: #ff0000"/>
     <use xlink:href="#m4b725f59e0" x="147.069169" y="280.764518" style="fill: #ff0000; stroke: #ff0000"/>
     <use xlink:href="#m4b725f59e0" x="223.99062" y="247.87219" style="fill: #ff0000; stroke: #ff0000"/>
     <use xlink:href="#m4b725f59e0" x="262.847848" y="271.661828" style="fill: #ff0000; stroke: #ff0000"/>
     <use xlink:href="#m4b725f59e0" x="246.19475" y="281.496672" style="fill: #ff0000; stroke: #ff0000"/>
     <use xlink:href="#m4b725f59e0" x="336.200778" y="277.574621" style="fill: #ff0000; stroke: #ff0000"/>
     <use xlink:href="#m4b725f59e0" x="318.358173" y="275.621828" style="fill: #ff0000; stroke: #ff0000"/>
     <use xlink:href="#m4b725f59e0" x="202.579494" y="280.182186" style="fill: #ff0000; stroke: #ff0000"/>
     <use xlink:href="#m4b725f59e0" x="305.273597" y="277.853049" style="fill: #ff0000; stroke: #ff0000"/>
     <use xlink:href="#m4b725f59e0" x="254.124797" y="279.363728" style="fill: #ff0000; stroke: #ff0000"/>
     <use xlink:href="#m4b725f59e0" x="306.066601" y="289.248979" style="fill: #ff0000; stroke: #ff0000"/>
     <use xlink:href="#m4b725f59e0" x="240.643717" y="279.058085" style="fill: #ff0000; stroke: #ff0000"/>
     <use xlink:href="#m4b725f59e0" x="404.79568" y="280.901243" style="fill: #ff0000; stroke: #ff0000"/>
     <use xlink:href="#m4b725f59e0" x="87.59382" y="283.397672" style="fill: #ff0000; stroke: #ff0000"/>
     <use xlink:href="#m4b725f59e0" x="95.523866" y="275.333347" style="fill: #ff0000; stroke: #ff0000"/>
     <use xlink:href="#m4b725f59e0" x="86.00781" y="279.858343" style="fill: #ff0000; stroke: #ff0000"/>
     <use xlink:href="#m4b725f59e0" x="105.436424" y="279.859662" style="fill: #ff0000; stroke: #ff0000"/>
     <use xlink:href="#m4b725f59e0" x="86.00781" y="272.810375" style="fill: #ff0000; stroke: #ff0000"/>
     <use xlink:href="#m4b725f59e0" x="81.249783" y="286.435464" style="fill: #ff0000; stroke: #ff0000"/>
     <use xlink:href="#m4b725f59e0" x="115.745485" y="279.084994" style="fill: #ff0000; stroke: #ff0000"/>
     <use xlink:href="#m4b725f59e0" x="83.628797" y="289.174589" style="fill: #ff0000; stroke: #ff0000"/>
     <use xlink:href="#m4b725f59e0" x="89.972834" y="283.56661" style="fill: #ff0000; stroke: #ff0000"/>
     <use xlink:href="#m4b725f59e0" x="93.541355" y="268.617137" style="fill: #ff0000; stroke: #ff0000"/>
     <use xlink:href="#m4b725f59e0" x="92.74835" y="278.889558" style="fill: #ff0000; stroke: #ff0000"/>
     <use xlink:href="#m4b725f59e0" x="82.835792" y="269.106012" style="fill: #ff0000; stroke: #ff0000"/>
     <use xlink:href="#m4b725f59e0" x="107.022434" y="289.161904" style="fill: #ff0000; stroke: #ff0000"/>
     <use xlink:href="#m4b725f59e0" x="110.590955" y="262.533459" style="fill: #ff0000; stroke: #ff0000"/>
     <use xlink:href="#m4b725f59e0" x="100.678397" y="272.236457" style="fill: #ff0000; stroke: #ff0000"/>
     <use xlink:href="#m4b725f59e0" x="103.850415" y="279.078925" style="fill: #ff0000; stroke: #ff0000"/>
     <use xlink:href="#m4b725f59e0" x="96.316871" y="281.553488" style="fill: #ff0000; stroke: #ff0000"/>
     <use xlink:href="#m4b725f59e0" x="95.523866" y="274.282921" style="fill: #ff0000; stroke: #ff0000"/>
    </g>
   </g>
   <g id="matplotlib.axis_3">
    <g id="xtick_6">
     <g id="line2d_8">
      <defs>
       <path id="mcfe8b55309" d="M 0 0 
L 0 3.5 
" style="stroke: #000000; stroke-width: 0.8"/>
      </defs>
      <g>
       <use xlink:href="#mcfe8b55309" x="75.69875" y="318.24" style="stroke: #000000; stroke-width: 0.8"/>
      </g>
     </g>
     <g id="text_7">
      <!-- 0.0 -->
      <g transform="translate(61.385937 338.917187) scale(0.18 -0.18)">
       <use xlink:href="#DejaVuSans-30"/>
       <use xlink:href="#DejaVuSans-2e" x="63.623047"/>
       <use xlink:href="#DejaVuSans-30" x="95.410156"/>
      </g>
     </g>
    </g>
    <g id="xtick_7">
     <g id="line2d_9">
      <g>
       <use xlink:href="#mcfe8b55309" x="154.999215" y="318.24" style="stroke: #000000; stroke-width: 0.8"/>
      </g>
     </g>
     <g id="text_8">
      <!-- 0.2 -->
      <g transform="translate(140.686403 338.917187) scale(0.18 -0.18)">
       <use xlink:href="#DejaVuSans-30"/>
       <use xlink:href="#DejaVuSans-2e" x="63.623047"/>
       <use xlink:href="#DejaVuSans-32" x="95.410156"/>
      </g>
     </g>
    </g>
    <g id="xtick_8">
     <g id="line2d_10">
      <g>
       <use xlink:href="#mcfe8b55309" x="234.29968" y="318.24" style="stroke: #000000; stroke-width: 0.8"/>
      </g>
     </g>
     <g id="text_9">
      <!-- 0.4 -->
      <g transform="translate(219.986868 338.917187) scale(0.18 -0.18)">
       <defs>
        <path id="DejaVuSans-34" d="M 2419 4116 
L 825 1625 
L 2419 1625 
L 2419 4116 
z
M 2253 4666 
L 3047 4666 
L 3047 1625 
L 3713 1625 
L 3713 1100 
L 3047 1100 
L 3047 0 
L 2419 0 
L 2419 1100 
L 313 1100 
L 313 1709 
L 2253 4666 
z
" transform="scale(0.015625)"/>
       </defs>
       <use xlink:href="#DejaVuSans-30"/>
       <use xlink:href="#DejaVuSans-2e" x="63.623047"/>
       <use xlink:href="#DejaVuSans-34" x="95.410156"/>
      </g>
     </g>
    </g>
    <g id="xtick_9">
     <g id="line2d_11">
      <g>
       <use xlink:href="#mcfe8b55309" x="313.600145" y="318.24" style="stroke: #000000; stroke-width: 0.8"/>
      </g>
     </g>
     <g id="text_10">
      <!-- 0.6 -->
      <g transform="translate(299.287333 338.917187) scale(0.18 -0.18)">
       <defs>
        <path id="DejaVuSans-36" d="M 2113 2584 
Q 1688 2584 1439 2293 
Q 1191 2003 1191 1497 
Q 1191 994 1439 701 
Q 1688 409 2113 409 
Q 2538 409 2786 701 
Q 3034 994 3034 1497 
Q 3034 2003 2786 2293 
Q 2538 2584 2113 2584 
z
M 3366 4563 
L 3366 3988 
Q 3128 4100 2886 4159 
Q 2644 4219 2406 4219 
Q 1781 4219 1451 3797 
Q 1122 3375 1075 2522 
Q 1259 2794 1537 2939 
Q 1816 3084 2150 3084 
Q 2853 3084 3261 2657 
Q 3669 2231 3669 1497 
Q 3669 778 3244 343 
Q 2819 -91 2113 -91 
Q 1303 -91 875 529 
Q 447 1150 447 2328 
Q 447 3434 972 4092 
Q 1497 4750 2381 4750 
Q 2619 4750 2861 4703 
Q 3103 4656 3366 4563 
z
" transform="scale(0.015625)"/>
       </defs>
       <use xlink:href="#DejaVuSans-30"/>
       <use xlink:href="#DejaVuSans-2e" x="63.623047"/>
       <use xlink:href="#DejaVuSans-36" x="95.410156"/>
      </g>
     </g>
    </g>
    <g id="xtick_10">
     <g id="line2d_12">
      <g>
       <use xlink:href="#mcfe8b55309" x="392.90061" y="318.24" style="stroke: #000000; stroke-width: 0.8"/>
      </g>
     </g>
     <g id="text_11">
      <!-- 0.8 -->
      <g transform="translate(378.587798 338.917187) scale(0.18 -0.18)">
       <defs>
        <path id="DejaVuSans-38" d="M 2034 2216 
Q 1584 2216 1326 1975 
Q 1069 1734 1069 1313 
Q 1069 891 1326 650 
Q 1584 409 2034 409 
Q 2484 409 2743 651 
Q 3003 894 3003 1313 
Q 3003 1734 2745 1975 
Q 2488 2216 2034 2216 
z
M 1403 2484 
Q 997 2584 770 2862 
Q 544 3141 544 3541 
Q 544 4100 942 4425 
Q 1341 4750 2034 4750 
Q 2731 4750 3128 4425 
Q 3525 4100 3525 3541 
Q 3525 3141 3298 2862 
Q 3072 2584 2669 2484 
Q 3125 2378 3379 2068 
Q 3634 1759 3634 1313 
Q 3634 634 3220 271 
Q 2806 -91 2034 -91 
Q 1263 -91 848 271 
Q 434 634 434 1313 
Q 434 1759 690 2068 
Q 947 2378 1403 2484 
z
M 1172 3481 
Q 1172 3119 1398 2916 
Q 1625 2713 2034 2713 
Q 2441 2713 2670 2916 
Q 2900 3119 2900 3481 
Q 2900 3844 2670 4047 
Q 2441 4250 2034 4250 
Q 1625 4250 1398 4047 
Q 1172 3844 1172 3481 
z
" transform="scale(0.015625)"/>
       </defs>
       <use xlink:href="#DejaVuSans-30"/>
       <use xlink:href="#DejaVuSans-2e" x="63.623047"/>
       <use xlink:href="#DejaVuSans-38" x="95.410156"/>
      </g>
     </g>
    </g>
    <g id="text_12">
     <!-- $Redshift (z)$ -->
     <g transform="translate(197.32475 360.337812) scale(0.18 -0.18)">
      <defs>
       <path id="DejaVuSans-Oblique-52" d="M 1613 4147 
L 1294 2491 
L 2106 2491 
Q 2584 2491 2879 2755 
Q 3175 3019 3175 3444 
Q 3175 3784 2976 3965 
Q 2778 4147 2406 4147 
L 1613 4147 
z
M 2772 2241 
Q 2972 2194 3105 2009 
Q 3238 1825 3413 1275 
L 3809 0 
L 3144 0 
L 2778 1197 
Q 2638 1659 2453 1815 
Q 2269 1972 1888 1972 
L 1191 1972 
L 806 0 
L 172 0 
L 1081 4666 
L 2503 4666 
Q 3150 4666 3495 4373 
Q 3841 4081 3841 3531 
Q 3841 3044 3547 2687 
Q 3253 2331 2772 2241 
z
" transform="scale(0.015625)"/>
       <path id="DejaVuSans-Oblique-64" d="M 2675 525 
Q 2444 222 2128 65 
Q 1813 -91 1428 -91 
Q 903 -91 598 267 
Q 294 625 294 1247 
Q 294 1766 478 2236 
Q 663 2706 1013 3078 
Q 1244 3325 1534 3454 
Q 1825 3584 2144 3584 
Q 2481 3584 2739 3421 
Q 2997 3259 3138 2956 
L 3513 4863 
L 4091 4863 
L 3144 0 
L 2566 0 
L 2675 525 
z
M 891 1350 
Q 891 897 1095 644 
Q 1300 391 1663 391 
Q 1931 391 2161 520 
Q 2391 650 2566 903 
Q 2750 1166 2856 1509 
Q 2963 1853 2963 2188 
Q 2963 2622 2758 2865 
Q 2553 3109 2194 3109 
Q 1922 3109 1687 2981 
Q 1453 2853 1288 2613 
Q 1106 2353 998 2009 
Q 891 1666 891 1350 
z
" transform="scale(0.015625)"/>
       <path id="DejaVuSans-Oblique-73" d="M 3200 3397 
L 3091 2853 
Q 2863 2978 2609 3040 
Q 2356 3103 2088 3103 
Q 1634 3103 1373 2948 
Q 1113 2794 1113 2528 
Q 1113 2219 1719 2053 
Q 1766 2041 1788 2034 
L 1972 1978 
Q 2547 1819 2739 1644 
Q 2931 1469 2931 1166 
Q 2931 609 2489 259 
Q 2047 -91 1331 -91 
Q 1053 -91 747 -37 
Q 441 16 72 128 
L 184 722 
Q 500 559 806 475 
Q 1113 391 1394 391 
Q 1816 391 2080 572 
Q 2344 753 2344 1031 
Q 2344 1331 1650 1516 
L 1591 1531 
L 1394 1581 
Q 956 1697 753 1886 
Q 550 2075 550 2369 
Q 550 2928 970 3256 
Q 1391 3584 2113 3584 
Q 2397 3584 2667 3537 
Q 2938 3491 3200 3397 
z
" transform="scale(0.015625)"/>
       <path id="DejaVuSans-Oblique-68" d="M 3566 2113 
L 3156 0 
L 2578 0 
L 2988 2091 
Q 3016 2238 3031 2350 
Q 3047 2463 3047 2528 
Q 3047 2791 2881 2937 
Q 2716 3084 2419 3084 
Q 1956 3084 1617 2771 
Q 1278 2459 1178 1941 
L 800 0 
L 225 0 
L 1172 4863 
L 1747 4863 
L 1375 2950 
Q 1594 3244 1934 3414 
Q 2275 3584 2650 3584 
Q 3113 3584 3367 3334 
Q 3622 3084 3622 2631 
Q 3622 2519 3608 2391 
Q 3594 2263 3566 2113 
z
" transform="scale(0.015625)"/>
       <path id="DejaVuSans-Oblique-69" d="M 1172 4863 
L 1747 4863 
L 1606 4134 
L 1031 4134 
L 1172 4863 
z
M 909 3500 
L 1484 3500 
L 800 0 
L 225 0 
L 909 3500 
z
" transform="scale(0.015625)"/>
       <path id="DejaVuSans-Oblique-74" d="M 2706 3500 
L 2619 3053 
L 1472 3053 
L 1100 1153 
Q 1081 1047 1072 975 
Q 1063 903 1063 863 
Q 1063 663 1183 572 
Q 1303 481 1569 481 
L 2150 481 
L 2053 0 
L 1503 0 
Q 991 0 739 200 
Q 488 400 488 806 
Q 488 878 497 964 
Q 506 1050 525 1153 
L 897 3053 
L 409 3053 
L 500 3500 
L 978 3500 
L 1172 4494 
L 1747 4494 
L 1556 3500 
L 2706 3500 
z
" transform="scale(0.015625)"/>
       <path id="DejaVuSans-28" d="M 1984 4856 
Q 1566 4138 1362 3434 
Q 1159 2731 1159 2009 
Q 1159 1288 1364 580 
Q 1569 -128 1984 -844 
L 1484 -844 
Q 1016 -109 783 600 
Q 550 1309 550 2009 
Q 550 2706 781 3412 
Q 1013 4119 1484 4856 
L 1984 4856 
z
" transform="scale(0.015625)"/>
       <path id="DejaVuSans-Oblique-7a" d="M 744 3500 
L 3475 3500 
L 3372 2975 
L 738 459 
L 2913 459 
L 2822 0 
L -19 0 
L 84 525 
L 2719 3041 
L 653 3041 
L 744 3500 
z
" transform="scale(0.015625)"/>
       <path id="DejaVuSans-29" d="M 513 4856 
L 1013 4856 
Q 1481 4119 1714 3412 
Q 1947 2706 1947 2009 
Q 1947 1309 1714 600 
Q 1481 -109 1013 -844 
L 513 -844 
Q 928 -128 1133 580 
Q 1338 1288 1338 2009 
Q 1338 2731 1133 3434 
Q 928 4138 513 4856 
z
" transform="scale(0.015625)"/>
      </defs>
      <use xlink:href="#DejaVuSans-Oblique-52" transform="translate(0 0.015625)"/>
      <use xlink:href="#DejaVuSans-Oblique-65" transform="translate(69.482422 0.015625)"/>
      <use xlink:href="#DejaVuSans-Oblique-64" transform="translate(131.005859 0.015625)"/>
      <use xlink:href="#DejaVuSans-Oblique-73" transform="translate(194.482422 0.015625)"/>
      <use xlink:href="#DejaVuSans-Oblique-68" transform="translate(246.582031 0.015625)"/>
      <use xlink:href="#DejaVuSans-Oblique-69" transform="translate(309.960938 0.015625)"/>
      <use xlink:href="#DejaVuSans-Oblique-66" transform="translate(337.744141 0.015625)"/>
      <use xlink:href="#DejaVuSans-Oblique-74" transform="translate(372.949219 0.015625)"/>
      <use xlink:href="#DejaVuSans-28" transform="translate(412.158203 0.015625)"/>
      <use xlink:href="#DejaVuSans-Oblique-7a" transform="translate(451.171875 0.015625)"/>
      <use xlink:href="#DejaVuSans-29" transform="translate(503.662109 0.015625)"/>
     </g>
    </g>
   </g>
   <g id="matplotlib.axis_4">
    <g id="ytick_6">
     <g id="line2d_13">
      <g>
       <use xlink:href="#m7212fe14a4" x="75.69875" y="315.098182" style="stroke: #000000; stroke-width: 0.8"/>
      </g>
     </g>
     <g id="text_13">
      <!-- −5 -->
      <g transform="translate(42.162812 321.936776) scale(0.18 -0.18)">
       <defs>
        <path id="DejaVuSans-2212" d="M 678 2272 
L 4684 2272 
L 4684 1741 
L 678 1741 
L 678 2272 
z
" transform="scale(0.015625)"/>
       </defs>
       <use xlink:href="#DejaVuSans-2212"/>
       <use xlink:href="#DejaVuSans-35" x="83.789062"/>
      </g>
     </g>
    </g>
    <g id="ytick_7">
     <g id="line2d_14">
      <g>
       <use xlink:href="#m7212fe14a4" x="75.69875" y="283.68" style="stroke: #000000; stroke-width: 0.8"/>
      </g>
     </g>
     <g id="text_14">
      <!-- 0 -->
      <g transform="translate(57.24625 290.518594) scale(0.18 -0.18)">
       <use xlink:href="#DejaVuSans-30"/>
      </g>
     </g>
    </g>
    <g id="ytick_8">
     <g id="line2d_15">
      <g>
       <use xlink:href="#m7212fe14a4" x="75.69875" y="252.261818" style="stroke: #000000; stroke-width: 0.8"/>
      </g>
     </g>
     <g id="text_15">
      <!-- 5 -->
      <g transform="translate(57.24625 259.100412) scale(0.18 -0.18)">
       <use xlink:href="#DejaVuSans-35"/>
      </g>
     </g>
    </g>
   </g>
   <g id="line2d_16">
    <path d="M 75.69875 283.68 
L 416.69075 283.68 
" clip-path="url(#pf0315e8473)" style="fill: none; stroke-dasharray: 5.55,2.4; stroke-dashoffset: 0; stroke: #000000; stroke-opacity: 0.5; stroke-width: 1.5"/>
   </g>
   <g id="line2d_17">
    <path d="M 75.69875 277.396364 
L 416.69075 277.396364 
" clip-path="url(#pf0315e8473)" style="fill: none; stroke-dasharray: 1.5,2.475; stroke-dashoffset: 0; stroke: #000000; stroke-opacity: 0.3; stroke-width: 1.5"/>
   </g>
   <g id="line2d_18">
    <path d="M 75.69875 289.963636 
L 416.69075 289.963636 
" clip-path="url(#pf0315e8473)" style="fill: none; stroke-dasharray: 1.5,2.475; stroke-dashoffset: 0; stroke: #000000; stroke-opacity: 0.3; stroke-width: 1.5"/>
   </g>
   <g id="patch_8">
    <path d="M 75.69875 318.24 
L 75.69875 249.12 
" style="fill: none; stroke: #000000; stroke-width: 0.8; stroke-linejoin: miter; stroke-linecap: square"/>
   </g>
   <g id="patch_9">
    <path d="M 416.69075 318.24 
L 416.69075 249.12 
" style="fill: none; stroke: #000000; stroke-width: 0.8; stroke-linejoin: miter; stroke-linecap: square"/>
   </g>
   <g id="patch_10">
    <path d="M 75.69875 318.24 
L 416.69075 318.24 
" style="fill: none; stroke: #000000; stroke-width: 0.8; stroke-linejoin: miter; stroke-linecap: square"/>
   </g>
   <g id="patch_11">
    <path d="M 75.69875 249.12 
L 416.69075 249.12 
" style="fill: none; stroke: #000000; stroke-width: 0.8; stroke-linejoin: miter; stroke-linecap: square"/>
   </g>
  </g>
  <g id="axes_3">
   <g id="patch_12">
    <path d="M 421.29875 318.24 
L 485.81075 318.24 
L 485.81075 249.12 
L 421.29875 249.12 
z
" style="fill: #ffffff"/>
   </g>
   <g id="patch_13">
    <path d="M 421.29875 297.27369 
L 428.125417 297.27369 
L 428.125417 293.522701 
L 421.29875 293.522701 
z
" clip-path="url(#p6f16e534ad)" style="fill: #ff0000"/>
   </g>
   <g id="patch_14">
    <path d="M 421.29875 293.522701 
L 438.365417 293.522701 
L 438.365417 289.771711 
L 421.29875 289.771711 
z
" clip-path="url(#p6f16e534ad)" style="fill: #ff0000"/>
   </g>
   <g id="patch_15">
    <path d="M 421.29875 289.771711 
L 438.365417 289.771711 
L 438.365417 286.020722 
L 421.29875 286.020722 
z
" clip-path="url(#p6f16e534ad)" style="fill: #ff0000"/>
   </g>
   <g id="patch_16">
    <path d="M 421.29875 286.020722 
L 455.432083 286.020722 
L 455.432083 282.269733 
L 421.29875 282.269733 
z
" clip-path="url(#p6f16e534ad)" style="fill: #ff0000"/>
   </g>
   <g id="patch_17">
    <path d="M 421.29875 282.269733 
L 482.73875 282.269733 
L 482.73875 278.518743 
L 421.29875 278.518743 
z
" clip-path="url(#p6f16e534ad)" style="fill: #ff0000"/>
   </g>
   <g id="patch_18">
    <path d="M 421.29875 278.518743 
L 448.605417 278.518743 
L 448.605417 274.767754 
L 421.29875 274.767754 
z
" clip-path="url(#p6f16e534ad)" style="fill: #ff0000"/>
   </g>
   <g id="patch_19">
    <path d="M 421.29875 274.767754 
L 445.192083 274.767754 
L 445.192083 271.016765 
L 421.29875 271.016765 
z
" clip-path="url(#p6f16e534ad)" style="fill: #ff0000"/>
   </g>
   <g id="patch_20">
    <path d="M 421.29875 271.016765 
L 428.125417 271.016765 
L 428.125417 267.265775 
L 421.29875 267.265775 
z
" clip-path="url(#p6f16e534ad)" style="fill: #ff0000"/>
   </g>
   <g id="patch_21">
    <path d="M 421.29875 267.265775 
L 428.125417 267.265775 
L 428.125417 263.514786 
L 421.29875 263.514786 
z
" clip-path="url(#p6f16e534ad)" style="fill: #ff0000"/>
   </g>
   <g id="patch_22">
    <path d="M 421.29875 263.514786 
L 421.29875 263.514786 
L 421.29875 259.763797 
L 421.29875 259.763797 
z
" clip-path="url(#p6f16e534ad)" style="fill: #ff0000"/>
   </g>
   <g id="patch_23">
    <path d="M 421.29875 259.763797 
L 421.29875 259.763797 
L 421.29875 256.012808 
L 421.29875 256.012808 
z
" clip-path="url(#p6f16e534ad)" style="fill: #ff0000"/>
   </g>
   <g id="patch_24">
    <path d="M 421.29875 256.012808 
L 424.712083 256.012808 
L 424.712083 252.261818 
L 421.29875 252.261818 
z
" clip-path="url(#p6f16e534ad)" style="fill: #ff0000"/>
   </g>
   <g id="matplotlib.axis_5">
    <g id="xtick_11">
     <g id="line2d_19">
      <g>
       <use xlink:href="#mcfe8b55309" x="447.457736" y="318.24" style="stroke: #000000; stroke-width: 0.8"/>
      </g>
     </g>
     <g id="text_16">
      <!-- 0.2 -->
      <g transform="translate(433.144923 338.917187) scale(0.18 -0.18)">
       <use xlink:href="#DejaVuSans-30"/>
       <use xlink:href="#DejaVuSans-2e" x="63.623047"/>
       <use xlink:href="#DejaVuSans-32" x="95.410156"/>
      </g>
     </g>
    </g>
    <g id="xtick_12">
     <g id="line2d_20">
      <g>
       <use xlink:href="#mcfe8b55309" x="473.616722" y="318.24" style="stroke: #000000; stroke-width: 0.8"/>
      </g>
     </g>
     <g id="text_17">
      <!-- 0.4 -->
      <g transform="translate(459.303909 338.917187) scale(0.18 -0.18)">
       <use xlink:href="#DejaVuSans-30"/>
       <use xlink:href="#DejaVuSans-2e" x="63.623047"/>
       <use xlink:href="#DejaVuSans-34" x="95.410156"/>
      </g>
     </g>
    </g>
   </g>
   <g id="matplotlib.axis_6">
    <g id="ytick_9"/>
    <g id="ytick_10"/>
    <g id="ytick_11"/>
   </g>
   <g id="line2d_21">
    <path d="M 421.29875 285.7315 
L 485.81075 285.7315 
" clip-path="url(#p6f16e534ad)" style="fill: none; stroke-dasharray: 5.55,2.4; stroke-dashoffset: 0; stroke: #000000; stroke-opacity: 0.5; stroke-width: 1.5"/>
   </g>
   <g id="line2d_22">
    <path d="M 421.29875 279.858164 
L 485.81075 279.858164 
" clip-path="url(#p6f16e534ad)" style="fill: none; stroke-dasharray: 1.5,2.475; stroke-dashoffset: 0; stroke: #000000; stroke-opacity: 0.3; stroke-width: 1.5"/>
   </g>
   <g id="line2d_23">
    <path d="M 421.29875 291.604836 
L 485.81075 291.604836 
" clip-path="url(#p6f16e534ad)" style="fill: none; stroke-dasharray: 1.5,2.475; stroke-dashoffset: 0; stroke: #000000; stroke-opacity: 0.3; stroke-width: 1.5"/>
   </g>
   <g id="line2d_24">
    <path d="M 421.29992 315.098182 
L 421.415642 306.396943 
L 421.663079 303.751296 
L 422.04109 301.928739 
L 422.561925 300.458935 
L 423.253159 299.165508 
L 424.131984 297.989664 
L 425.240927 296.872614 
L 426.665231 295.755563 
L 428.550285 294.579719 
L 430.862845 293.403876 
L 433.908927 292.110449 
L 437.960166 290.640645 
L 444.200266 288.641712 
L 454.330932 285.408143 
L 457.629697 284.114716 
L 459.625064 283.115249 
L 460.827136 282.292159 
L 461.505577 281.586653 
L 461.82586 280.939939 
L 461.860344 280.352018 
L 461.649609 279.764096 
L 461.197468 279.176175 
L 460.347992 278.470669 
L 458.962106 277.647579 
L 456.916593 276.706904 
L 453.798466 275.531061 
L 448.556455 273.826088 
L 436.40423 269.945806 
L 432.433288 268.41721 
L 429.514834 267.064991 
L 427.351858 265.830355 
L 425.712632 264.654512 
L 424.440247 263.478669 
L 423.481108 262.302826 
L 422.74911 261.068191 
L 422.178714 259.657179 
L 421.768782 258.010999 
L 421.538169 256.364818 
L 421.538169 256.364818 
" clip-path="url(#p6f16e534ad)" style="fill: none; stroke: #000000; stroke-width: 1.5; stroke-linecap: square"/>
   </g>
   <g id="patch_25">
    <path d="M 421.29875 318.24 
L 421.29875 249.12 
" style="fill: none; stroke: #000000; stroke-width: 0.8; stroke-linejoin: miter; stroke-linecap: square"/>
   </g>
   <g id="patch_26">
    <path d="M 485.81075 318.24 
L 485.81075 249.12 
" style="fill: none; stroke: #000000; stroke-width: 0.8; stroke-linejoin: miter; stroke-linecap: square"/>
   </g>
   <g id="patch_27">
    <path d="M 421.29875 318.24 
L 485.81075 318.24 
" style="fill: none; stroke: #000000; stroke-width: 0.8; stroke-linejoin: miter; stroke-linecap: square"/>
   </g>
   <g id="patch_28">
    <path d="M 421.29875 249.12 
L 485.81075 249.12 
" style="fill: none; stroke: #000000; stroke-width: 0.8; stroke-linejoin: miter; stroke-linecap: square"/>
   </g>
  </g>
 </g>
 <defs>
  <clipPath id="pde2b94e598">
   <rect x="75.69875" y="7.2" width="340.992" height="235.008"/>
  </clipPath>
  <clipPath id="pf0315e8473">
   <rect x="75.69875" y="249.12" width="340.992" height="69.12"/>
  </clipPath>
  <clipPath id="p6f16e534ad">
   <rect x="421.29875" y="249.12" width="64.512" height="69.12"/>
  </clipPath>
 </defs>
</svg>
