<?xml version="1.0" encoding="utf-8" standalone="no"?>
<!DOCTYPE svg PUBLIC "-//W3C//DTD SVG 1.1//EN"
  "http://www.w3.org/Graphics/SVG/1.1/DTD/svg11.dtd">
<svg xmlns:xlink="http://www.w3.org/1999/xlink" width="504.288712pt" height="371.28125pt" viewBox="0 0 504.288712 371.28125" xmlns="http://www.w3.org/2000/svg" version="1.1">
 <metadata>
  <rdf:RDF xmlns:dc="http://purl.org/dc/elements/1.1/" xmlns:cc="http://creativecommons.org/ns#" xmlns:rdf="http://www.w3.org/1999/02/22-rdf-syntax-ns#">
   <cc:Work>
    <dc:type rdf:resource="http://purl.org/dc/dcmitype/StillImage"/>
    <dc:date>2026-02-05T23:02:18.451618</dc:date>
    <dc:format>image/svg+xml</dc:format>
    <dc:creator>
     <cc:Agent>
      <dc:title>Matplotlib v3.9.2, https://matplotlib.org/</dc:title>
     </cc:Agent>
    </dc:creator>
   </cc:Work>
  </rdf:RDF>
 </metadata>
 <defs>
  <style type="text/css">*{stroke-linejoin: round; stroke-linecap: butt}</style>
 </defs>
 <g id="figure_1">
  <g id="patch_1">
   <path d="M -0 371.28125 
L 504.288712 371.28125 
L 504.288712 0 
L -0 0 
z
" style="fill: #ffffff"/>
  </g>
  <g id="axes_1">
   <g id="patch_2">
    <path d="M 75.69875 242.208 
L 416.69075 242.208 
L 416.69075 7.2 
L 75.69875 7.2 
z
" style="fill: #ffffff"/>
   </g>
   <g id="matplotlib.axis_1">
    <g id="xtick_1"/>
    <g id="xtick_2"/>
    <g id="xtick_3"/>
    <g id="xtick_4"/>
    <g id="xtick_5"/>
   </g>
   <g id="matplotlib.axis_2">
    <g id="ytick_1">
     <g id="line2d_1">
      <defs>
       <path id="m2d22a6a432" d="M 0 0 
L -3.5 0 
" style="stroke: #000000; stroke-width: 0.8"/>
      </defs>
      <g>
       <use xlink:href="#m2d22a6a432" x="75.69875" y="215.051227" style="stroke: #000000; stroke-width: 0.8"/>
      </g>
     </g>
     <g id="text_1">
      <!-- 15.0 -->
      <g transform="translate(28.620625 221.88982) scale(0.18 -0.18)">
       <defs>
        <path id="DejaVuSans-31" d="M 794 531 
L 1825 531 
L 1825 4091 
L 703 3866 
L 703 4441 
L 1819 4666 
L 2450 4666 
L 2450 531 
L 3481 531 
L 3481 0 
L 794 0 
L 794 531 
z
" transform="scale(0.015625)"/>
        <path id="DejaVuSans-35" d="M 691 4666 
L 3169 4666 
L 3169 4134 
L 1269 4134 
L 1269 2991 
Q 1406 3038 1543 3061 
Q 1681 3084 1819 3084 
Q 2600 3084 3056 2656 
Q 3513 2228 3513 1497 
Q 3513 744 3044 326 
Q 2575 -91 1722 -91 
Q 1428 -91 1123 -41 
Q 819 9 494 109 
L 494 744 
Q 775 591 1075 516 
Q 1375 441 1709 441 
Q 2250 441 2565 725 
Q 2881 1009 2881 1497 
Q 2881 1984 2565 2268 
Q 2250 2553 1709 2553 
Q 1456 2553 1204 2497 
Q 953 2441 691 2322 
L 691 4666 
z
" transform="scale(0.015625)"/>
        <path id="DejaVuSans-2e" d="M 684 794 
L 1344 794 
L 1344 0 
L 684 0 
L 684 794 
z
" transform="scale(0.015625)"/>
        <path id="DejaVuSans-30" d="M 2034 4250 
Q 1547 4250 1301 3770 
Q 1056 3291 1056 2328 
Q 1056 1369 1301 889 
Q 1547 409 2034 409 
Q 2525 409 2770 889 
Q 3016 1369 3016 2328 
Q 3016 3291 2770 3770 
Q 2525 4250 2034 4250 
z
M 2034 4750 
Q 2819 4750 3233 4129 
Q 3647 3509 3647 2328 
Q 3647 1150 3233 529 
Q 2819 -91 2034 -91 
Q 1250 -91 836 529 
Q 422 1150 422 2328 
Q 422 3509 836 4129 
Q 1250 4750 2034 4750 
z
" transform="scale(0.015625)"/>
       </defs>
       <use xlink:href="#DejaVuSans-31"/>
       <use xlink:href="#DejaVuSans-35" x="63.623047"/>
       <use xlink:href="#DejaVuSans-2e" x="127.246094"/>
       <use xlink:href="#DejaVuSans-30" x="159.033203"/>
      </g>
     </g>
    </g>
    <g id="ytick_2">
     <g id="line2d_2">
      <g>
       <use xlink:href="#m2d22a6a432" x="75.69875" y="166.678056" style="stroke: #000000; stroke-width: 0.8"/>
      </g>
     </g>
     <g id="text_2">
      <!-- 17.5 -->
      <g transform="translate(28.620625 173.516649) scale(0.18 -0.18)">
       <defs>
        <path id="DejaVuSans-37" d="M 525 4666 
L 3525 4666 
L 3525 4397 
L 1831 0 
L 1172 0 
L 2766 4134 
L 525 4134 
L 525 4666 
z
" transform="scale(0.015625)"/>
       </defs>
       <use xlink:href="#DejaVuSans-31"/>
       <use xlink:href="#DejaVuSans-37" x="63.623047"/>
       <use xlink:href="#DejaVuSans-2e" x="127.246094"/>
       <use xlink:href="#DejaVuSans-35" x="159.033203"/>
      </g>
     </g>
    </g>
    <g id="ytick_3">
     <g id="line2d_3">
      <g>
       <use xlink:href="#m2d22a6a432" x="75.69875" y="118.304885" style="stroke: #000000; stroke-width: 0.8"/>
      </g>
     </g>
     <g id="text_3">
      <!-- 20.0 -->
      <g transform="translate(28.620625 125.143478) scale(0.18 -0.18)">
       <defs>
        <path id="DejaVuSans-32" d="M 1228 531 
L 3431 531 
L 3431 0 
L 469 0 
L 469 531 
Q 828 903 1448 1529 
Q 2069 2156 2228 2338 
Q 2531 2678 2651 2914 
Q 2772 3150 2772 3378 
Q 2772 3750 2511 3984 
Q 2250 4219 1831 4219 
Q 1534 4219 1204 4116 
Q 875 4013 500 3803 
L 500 4441 
Q 881 4594 1212 4672 
Q 1544 4750 1819 4750 
Q 2544 4750 2975 4387 
Q 3406 4025 3406 3419 
Q 3406 3131 3298 2873 
Q 3191 2616 2906 2266 
Q 2828 2175 2409 1742 
Q 1991 1309 1228 531 
z
" transform="scale(0.015625)"/>
       </defs>
       <use xlink:href="#DejaVuSans-32"/>
       <use xlink:href="#DejaVuSans-30" x="63.623047"/>
       <use xlink:href="#DejaVuSans-2e" x="127.246094"/>
       <use xlink:href="#DejaVuSans-30" x="159.033203"/>
      </g>
     </g>
    </g>
    <g id="ytick_4">
     <g id="line2d_4">
      <g>
       <use xlink:href="#m2d22a6a432" x="75.69875" y="69.931714" style="stroke: #000000; stroke-width: 0.8"/>
      </g>
     </g>
     <g id="text_4">
      <!-- 22.5 -->
      <g transform="translate(28.620625 76.770307) scale(0.18 -0.18)">
       <use xlink:href="#DejaVuSans-32"/>
       <use xlink:href="#DejaVuSans-32" x="63.623047"/>
       <use xlink:href="#DejaVuSans-2e" x="127.246094"/>
       <use xlink:href="#DejaVuSans-35" x="159.033203"/>
      </g>
     </g>
    </g>
    <g id="ytick_5">
     <g id="line2d_5">
      <g>
       <use xlink:href="#m2d22a6a432" x="75.69875" y="21.558543" style="stroke: #000000; stroke-width: 0.8"/>
      </g>
     </g>
     <g id="text_5">
      <!-- 25.0 -->
      <g transform="translate(28.620625 28.397137) scale(0.18 -0.18)">
       <use xlink:href="#DejaVuSans-32"/>
       <use xlink:href="#DejaVuSans-35" x="63.623047"/>
       <use xlink:href="#DejaVuSans-2e" x="127.246094"/>
       <use xlink:href="#DejaVuSans-30" x="159.033203"/>
      </g>
     </g>
    </g>
    <g id="text_6">
     <!-- $M_{eff}$ -->
     <g transform="translate(20.877187 141.084) rotate(-90) scale(0.18 -0.18)">
      <defs>
       <path id="DejaVuSans-Oblique-4d" d="M 1081 4666 
L 2028 4666 
L 2572 1522 
L 4378 4666 
L 5350 4666 
L 4441 0 
L 3828 0 
L 4622 4091 
L 2791 897 
L 2175 897 
L 1581 4103 
L 788 0 
L 172 0 
L 1081 4666 
z
" transform="scale(0.015625)"/>
       <path id="DejaVuSans-Oblique-65" d="M 3078 2063 
Q 3088 2113 3092 2166 
Q 3097 2219 3097 2272 
Q 3097 2653 2873 2875 
Q 2650 3097 2266 3097 
Q 1838 3097 1509 2826 
Q 1181 2556 1013 2059 
L 3078 2063 
z
M 3578 1613 
L 903 1613 
Q 884 1494 878 1425 
Q 872 1356 872 1306 
Q 872 872 1139 634 
Q 1406 397 1894 397 
Q 2269 397 2603 481 
Q 2938 566 3225 728 
L 3116 159 
Q 2806 34 2476 -28 
Q 2147 -91 1806 -91 
Q 1078 -91 686 257 
Q 294 606 294 1247 
Q 294 1794 489 2264 
Q 684 2734 1063 3103 
Q 1306 3334 1642 3459 
Q 1978 3584 2356 3584 
Q 2950 3584 3301 3228 
Q 3653 2872 3653 2272 
Q 3653 2128 3634 1964 
Q 3616 1800 3578 1613 
z
" transform="scale(0.015625)"/>
       <path id="DejaVuSans-Oblique-66" d="M 3059 4863 
L 2969 4384 
L 2419 4384 
Q 2106 4384 1964 4261 
Q 1822 4138 1753 3809 
L 1691 3500 
L 2638 3500 
L 2553 3053 
L 1606 3053 
L 1013 0 
L 434 0 
L 1031 3053 
L 481 3053 
L 563 3500 
L 1113 3500 
L 1159 3744 
Q 1278 4363 1576 4613 
Q 1875 4863 2516 4863 
L 3059 4863 
z
" transform="scale(0.015625)"/>
      </defs>
      <use xlink:href="#DejaVuSans-Oblique-4d" transform="translate(0 0.09375)"/>
      <use xlink:href="#DejaVuSans-Oblique-65" transform="translate(86.279297 -16.3125) scale(0.7)"/>
      <use xlink:href="#DejaVuSans-Oblique-66" transform="translate(129.345703 -16.3125) scale(0.7)"/>
      <use xlink:href="#DejaVuSans-Oblique-66" transform="translate(153.989258 -16.3125) scale(0.7)"/>
     </g>
    </g>
   </g>
   <g id="LineCollection_1">
    <path d="M 257.296815 67.029323 
L 257.296815 49.227997 
" clip-path="url(#p4c0b32fe64)" style="fill: none; stroke: #808080"/>
    <path d="M 216.060573 78.638885 
L 216.060573 65.868367 
" clip-path="url(#p4c0b32fe64)" style="fill: none; stroke: #808080"/>
    <path d="M 244.212238 86.572085 
L 244.212238 67.609802 
" clip-path="url(#p4c0b32fe64)" style="fill: none; stroke: #808080"/>
    <path d="M 223.99062 89.280982 
L 223.99062 80.767304 
" clip-path="url(#p4c0b32fe64)" style="fill: none; stroke: #808080"/>
    <path d="M 242.229727 73.801567 
L 242.229727 64.126933 
" clip-path="url(#p4c0b32fe64)" style="fill: none; stroke: #808080"/>
    <path d="M 223.197615 78.445392 
L 223.197615 70.705684 
" clip-path="url(#p4c0b32fe64)" style="fill: none; stroke: #808080"/>
    <path d="M 225.576629 75.543002 
L 225.576629 61.224543 
" clip-path="url(#p4c0b32fe64)" style="fill: none; stroke: #808080"/>
    <path d="M 255.314303 61.805021 
L 255.314303 52.130387 
" clip-path="url(#p4c0b32fe64)" style="fill: none; stroke: #808080"/>
    <path d="M 260.072331 59.676601 
L 260.072331 48.06704 
" clip-path="url(#p4c0b32fe64)" style="fill: none; stroke: #808080"/>
    <path d="M 273.156908 51.356416 
L 273.156908 41.681782 
" clip-path="url(#p4c0b32fe64)" style="fill: none; stroke: #808080"/>
    <path d="M 335.407773 59.096123 
L 335.407773 50.969431 
" clip-path="url(#p4c0b32fe64)" style="fill: none; stroke: #808080"/>
    <path d="M 234.29968 76.316972 
L 234.29968 68.96425 
" clip-path="url(#p4c0b32fe64)" style="fill: none; stroke: #808080"/>
    <path d="M 319.54768 61.418036 
L 319.54768 51.743401 
" clip-path="url(#p4c0b32fe64)" style="fill: none; stroke: #808080"/>
    <path d="M 266.019866 65.674875 
L 266.019866 56.387226 
" clip-path="url(#p4c0b32fe64)" style="fill: none; stroke: #808080"/>
    <path d="M 254.124797 74.188553 
L 254.124797 65.287889 
" clip-path="url(#p4c0b32fe64)" style="fill: none; stroke: #808080"/>
    <path d="M 229.541652 70.899177 
L 229.541652 63.15947 
" clip-path="url(#p4c0b32fe64)" style="fill: none; stroke: #808080"/>
    <path d="M 301.705076 59.289616 
L 301.705076 50.775938 
" clip-path="url(#p4c0b32fe64)" style="fill: none; stroke: #808080"/>
    <path d="M 269.98489 62.192006 
L 269.98489 54.452299 
" clip-path="url(#p4c0b32fe64)" style="fill: none; stroke: #808080"/>
    <path d="M 271.967401 67.222816 
L 271.967401 59.870094 
" clip-path="url(#p4c0b32fe64)" style="fill: none; stroke: #808080"/>
    <path d="M 335.804276 54.645792 
L 335.804276 43.810201 
" clip-path="url(#p4c0b32fe64)" style="fill: none; stroke: #808080"/>
    <path d="M 404.002676 38.779392 
L 404.002676 17.882182 
" clip-path="url(#p4c0b32fe64)" style="fill: none; stroke: #808080"/>
    <path d="M 254.124797 61.418036 
L 254.124797 52.517372 
" clip-path="url(#p4c0b32fe64)" style="fill: none; stroke: #808080"/>
    <path d="M 246.19475 61.998514 
L 246.19475 53.484836 
" clip-path="url(#p4c0b32fe64)" style="fill: none; stroke: #808080"/>
    <path d="M 305.670099 55.806748 
L 305.670099 46.906084 
" clip-path="url(#p4c0b32fe64)" style="fill: none; stroke: #808080"/>
    <path d="M 378.230024 42.068767 
L 378.230024 21.558543 
" clip-path="url(#p4c0b32fe64)" style="fill: none; stroke: #808080"/>
    <path d="M 284.258973 61.224543 
L 284.258973 53.484836 
" clip-path="url(#p4c0b32fe64)" style="fill: none; stroke: #808080"/>
    <path d="M 143.89715 118.498377 
L 143.89715 111.532641 
" clip-path="url(#p4c0b32fe64)" style="fill: none; stroke: #808080"/>
    <path d="M 321.13369 50.19546 
L 321.13369 39.35987 
" clip-path="url(#p4c0b32fe64)" style="fill: none; stroke: #808080"/>
    <path d="M 310.428127 39.940348 
L 310.428127 25.621889 
" clip-path="url(#p4c0b32fe64)" style="fill: none; stroke: #808080"/>
    <path d="M 293.775029 55.22627 
L 293.775029 45.551636 
" clip-path="url(#p4c0b32fe64)" style="fill: none; stroke: #808080"/>
    <path d="M 147.069169 113.274075 
L 147.069169 106.695324 
" clip-path="url(#p4c0b32fe64)" style="fill: none; stroke: #808080"/>
    <path d="M 223.99062 54.839284 
L 223.99062 45.551636 
" clip-path="url(#p4c0b32fe64)" style="fill: none; stroke: #808080"/>
    <path d="M 262.847848 61.805021 
L 262.847848 54.452299 
" clip-path="url(#p4c0b32fe64)" style="fill: none; stroke: #808080"/>
    <path d="M 246.19475 72.060133 
L 246.19475 65.094397 
" clip-path="url(#p4c0b32fe64)" style="fill: none; stroke: #808080"/>
    <path d="M 336.200778 48.647519 
L 336.200778 39.746855 
" clip-path="url(#p4c0b32fe64)" style="fill: none; stroke: #808080"/>
    <path d="M 318.358173 50.969431 
L 318.358173 42.842738 
" clip-path="url(#p4c0b32fe64)" style="fill: none; stroke: #808080"/>
    <path d="M 202.579494 85.798114 
L 202.579494 78.832377 
" clip-path="url(#p4c0b32fe64)" style="fill: none; stroke: #808080"/>
    <path d="M 305.273597 55.22627 
L 305.273597 46.712592 
" clip-path="url(#p4c0b32fe64)" style="fill: none; stroke: #808080"/>
    <path d="M 254.124797 69.351236 
L 254.124797 57.741675 
" clip-path="url(#p4c0b32fe64)" style="fill: none; stroke: #808080"/>
    <path d="M 306.066601 62.772484 
L 306.066601 54.258806 
" clip-path="url(#p4c0b32fe64)" style="fill: none; stroke: #808080"/>
    <path d="M 240.643717 72.447119 
L 240.643717 64.707411 
" clip-path="url(#p4c0b32fe64)" style="fill: none; stroke: #808080"/>
    <path d="M 404.79568 38.972884 
L 404.79568 30.459206 
" clip-path="url(#p4c0b32fe64)" style="fill: none; stroke: #808080"/>
    <path d="M 87.59382 194.541002 
L 87.59382 186.801295 
" clip-path="url(#p4c0b32fe64)" style="fill: none; stroke: #808080"/>
    <path d="M 95.523866 167.645519 
L 95.523866 160.679782 
" clip-path="url(#p4c0b32fe64)" style="fill: none; stroke: #808080"/>
    <path d="M 86.00781 198.797841 
L 86.00781 189.510192 
" clip-path="url(#p4c0b32fe64)" style="fill: none; stroke: #808080"/>
    <path d="M 105.436424 152.55309 
L 105.436424 144.813382 
" clip-path="url(#p4c0b32fe64)" style="fill: none; stroke: #808080"/>
    <path d="M 86.00781 194.154017 
L 86.00781 186.414309 
" clip-path="url(#p4c0b32fe64)" style="fill: none; stroke: #808080"/>
    <path d="M 81.249783 229.75667 
L 81.249783 220.856007 
" clip-path="url(#p4c0b32fe64)" style="fill: none; stroke: #808080"/>
    <path d="M 115.745485 139.008602 
L 115.745485 130.107938 
" clip-path="url(#p4c0b32fe64)" style="fill: none; stroke: #808080"/>
    <path d="M 83.628797 215.438212 
L 83.628797 207.698505 
" clip-path="url(#p4c0b32fe64)" style="fill: none; stroke: #808080"/>
    <path d="M 89.972834 186.994787 
L 89.972834 178.868095 
" clip-path="url(#p4c0b32fe64)" style="fill: none; stroke: #808080"/>
    <path d="M 93.541355 168.225997 
L 93.541355 160.873275 
" clip-path="url(#p4c0b32fe64)" style="fill: none; stroke: #808080"/>
    <path d="M 92.74835 176.159197 
L 92.74835 169.19346 
" clip-path="url(#p4c0b32fe64)" style="fill: none; stroke: #808080"/>
    <path d="M 82.835792 207.311519 
L 82.835792 199.184826 
" clip-path="url(#p4c0b32fe64)" style="fill: none; stroke: #808080"/>
    <path d="M 107.022434 155.261987 
L 107.022434 148.296251 
" clip-path="url(#p4c0b32fe64)" style="fill: none; stroke: #808080"/>
    <path d="M 110.590955 135.719226 
L 110.590955 128.75349 
" clip-path="url(#p4c0b32fe64)" style="fill: none; stroke: #808080"/>
    <path d="M 100.678397 155.842465 
L 100.678397 148.876729 
" clip-path="url(#p4c0b32fe64)" style="fill: none; stroke: #808080"/>
    <path d="M 103.850415 154.488017 
L 103.850415 146.748309 
" clip-path="url(#p4c0b32fe64)" style="fill: none; stroke: #808080"/>
    <path d="M 96.316871 169.386953 
L 96.316871 162.421217 
" clip-path="url(#p4c0b32fe64)" style="fill: none; stroke: #808080"/>
    <path d="M 95.523866 166.871548 
L 95.523866 159.131841 
" clip-path="url(#p4c0b32fe64)" style="fill: none; stroke: #808080"/>
   </g>
   <g id="line2d_6">
    <path d="M 81.249783 231.525818 
L 82.545262 222.611801 
L 83.840741 215.230194 
L 85.46009 207.48388 
L 87.079438 200.910867 
L 88.698787 195.198015 
L 90.642006 189.197918 
L 92.585224 183.915482 
L 94.852313 178.453665 
L 97.119401 173.58609 
L 99.710359 168.599062 
L 102.301317 164.10594 
L 105.216145 159.52841 
L 108.130973 155.36486 
L 111.369671 151.13847 
L 114.608369 147.26257 
L 118.170936 143.337777 
L 122.057373 139.396513 
L 126.26768 135.463915 
L 130.477987 131.827821 
L 135.012164 128.194035 
L 139.87021 124.578243 
L 145.052127 120.99255 
L 150.557913 117.44615 
L 156.387569 113.945891 
L 162.864964 110.321557 
L 169.666229 106.774889 
L 176.791364 103.305174 
L 184.564238 99.768601 
L 192.984852 96.191111 
L 201.729336 92.718573 
L 211.121559 89.228229 
L 221.161522 85.736232 
L 231.849224 82.255852 
L 243.184666 78.797899 
L 255.491717 75.281478 
L 268.446508 71.814348 
L 282.372908 68.322101 
L 296.947048 64.896277 
L 312.492797 61.468852 
L 329.334024 57.988222 
L 347.146862 54.538244 
L 365.931308 51.127056 
L 386.011234 47.707717 
L 404.79568 44.697298 
L 404.79568 44.697298 
" clip-path="url(#p4c0b32fe64)" style="fill: none; stroke: #ff0000; stroke-width: 0.8; stroke-linecap: square"/>
   </g>
   <g id="line2d_7">
    <defs>
     <path id="mc4ec292d20" d="M 0 1.5 
C 0.397805 1.5 0.77937 1.341951 1.06066 1.06066 
C 1.341951 0.77937 1.5 0.397805 1.5 0 
C 1.5 -0.397805 1.341951 -0.77937 1.06066 -1.06066 
C 0.77937 -1.341951 0.397805 -1.5 0 -1.5 
C -0.397805 -1.5 -0.77937 -1.341951 -1.06066 -1.06066 
C -1.341951 -0.77937 -1.5 -0.397805 -1.5 0 
C -1.5 0.397805 -1.341951 0.77937 -1.06066 1.06066 
C -0.77937 1.341951 -0.397805 1.5 0 1.5 
z
" style="stroke: #000000"/>
    </defs>
    <g clip-path="url(#p4c0b32fe64)">
     <use xlink:href="#mc4ec292d20" x="257.296815" y="58.12866" style="stroke: #000000"/>
     <use xlink:href="#mc4ec292d20" x="216.060573" y="72.253626" style="stroke: #000000"/>
     <use xlink:href="#mc4ec292d20" x="244.212238" y="77.090943" style="stroke: #000000"/>
     <use xlink:href="#mc4ec292d20" x="223.99062" y="85.024143" style="stroke: #000000"/>
     <use xlink:href="#mc4ec292d20" x="242.229727" y="68.96425" style="stroke: #000000"/>
     <use xlink:href="#mc4ec292d20" x="223.197615" y="74.575538" style="stroke: #000000"/>
     <use xlink:href="#mc4ec292d20" x="225.576629" y="68.383772" style="stroke: #000000"/>
     <use xlink:href="#mc4ec292d20" x="255.314303" y="56.967704" style="stroke: #000000"/>
     <use xlink:href="#mc4ec292d20" x="260.072331" y="53.871821" style="stroke: #000000"/>
     <use xlink:href="#mc4ec292d20" x="273.156908" y="46.519099" style="stroke: #000000"/>
     <use xlink:href="#mc4ec292d20" x="335.407773" y="55.032777" style="stroke: #000000"/>
     <use xlink:href="#mc4ec292d20" x="234.29968" y="72.640611" style="stroke: #000000"/>
     <use xlink:href="#mc4ec292d20" x="319.54768" y="56.580719" style="stroke: #000000"/>
     <use xlink:href="#mc4ec292d20" x="266.019866" y="61.03105" style="stroke: #000000"/>
     <use xlink:href="#mc4ec292d20" x="254.124797" y="69.738221" style="stroke: #000000"/>
     <use xlink:href="#mc4ec292d20" x="229.541652" y="67.029323" style="stroke: #000000"/>
     <use xlink:href="#mc4ec292d20" x="301.705076" y="55.032777" style="stroke: #000000"/>
     <use xlink:href="#mc4ec292d20" x="269.98489" y="58.322153" style="stroke: #000000"/>
     <use xlink:href="#mc4ec292d20" x="271.967401" y="63.546455" style="stroke: #000000"/>
     <use xlink:href="#mc4ec292d20" x="335.804276" y="49.227997" style="stroke: #000000"/>
     <use xlink:href="#mc4ec292d20" x="404.002676" y="28.330787" style="stroke: #000000"/>
     <use xlink:href="#mc4ec292d20" x="254.124797" y="56.967704" style="stroke: #000000"/>
     <use xlink:href="#mc4ec292d20" x="246.19475" y="57.741675" style="stroke: #000000"/>
     <use xlink:href="#mc4ec292d20" x="305.670099" y="51.356416" style="stroke: #000000"/>
     <use xlink:href="#mc4ec292d20" x="378.230024" y="31.813655" style="stroke: #000000"/>
     <use xlink:href="#mc4ec292d20" x="284.258973" y="57.354689" style="stroke: #000000"/>
     <use xlink:href="#mc4ec292d20" x="143.89715" y="115.015509" style="stroke: #000000"/>
     <use xlink:href="#mc4ec292d20" x="321.13369" y="44.777665" style="stroke: #000000"/>
     <use xlink:href="#mc4ec292d20" x="310.428127" y="32.781118" style="stroke: #000000"/>
     <use xlink:href="#mc4ec292d20" x="293.775029" y="50.388953" style="stroke: #000000"/>
     <use xlink:href="#mc4ec292d20" x="147.069169" y="109.984699" style="stroke: #000000"/>
     <use xlink:href="#mc4ec292d20" x="223.99062" y="50.19546" style="stroke: #000000"/>
     <use xlink:href="#mc4ec292d20" x="262.847848" y="58.12866" style="stroke: #000000"/>
     <use xlink:href="#mc4ec292d20" x="246.19475" y="68.577265" style="stroke: #000000"/>
     <use xlink:href="#mc4ec292d20" x="336.200778" y="44.197187" style="stroke: #000000"/>
     <use xlink:href="#mc4ec292d20" x="318.358173" y="46.906084" style="stroke: #000000"/>
     <use xlink:href="#mc4ec292d20" x="202.579494" y="82.315245" style="stroke: #000000"/>
     <use xlink:href="#mc4ec292d20" x="305.273597" y="50.969431" style="stroke: #000000"/>
     <use xlink:href="#mc4ec292d20" x="254.124797" y="63.546455" style="stroke: #000000"/>
     <use xlink:href="#mc4ec292d20" x="306.066601" y="58.515645" style="stroke: #000000"/>
     <use xlink:href="#mc4ec292d20" x="240.643717" y="68.577265" style="stroke: #000000"/>
     <use xlink:href="#mc4ec292d20" x="404.79568" y="34.716045" style="stroke: #000000"/>
     <use xlink:href="#mc4ec292d20" x="87.59382" y="190.671148" style="stroke: #000000"/>
     <use xlink:href="#mc4ec292d20" x="95.523866" y="164.162651" style="stroke: #000000"/>
     <use xlink:href="#mc4ec292d20" x="86.00781" y="194.154017" style="stroke: #000000"/>
     <use xlink:href="#mc4ec292d20" x="105.436424" y="148.683236" style="stroke: #000000"/>
     <use xlink:href="#mc4ec292d20" x="86.00781" y="190.284163" style="stroke: #000000"/>
     <use xlink:href="#mc4ec292d20" x="81.249783" y="225.306339" style="stroke: #000000"/>
     <use xlink:href="#mc4ec292d20" x="115.745485" y="134.55827" style="stroke: #000000"/>
     <use xlink:href="#mc4ec292d20" x="83.628797" y="211.568358" style="stroke: #000000"/>
     <use xlink:href="#mc4ec292d20" x="89.972834" y="182.931441" style="stroke: #000000"/>
     <use xlink:href="#mc4ec292d20" x="93.541355" y="164.549636" style="stroke: #000000"/>
     <use xlink:href="#mc4ec292d20" x="92.74835" y="172.676329" style="stroke: #000000"/>
     <use xlink:href="#mc4ec292d20" x="82.835792" y="203.248173" style="stroke: #000000"/>
     <use xlink:href="#mc4ec292d20" x="107.022434" y="151.779119" style="stroke: #000000"/>
     <use xlink:href="#mc4ec292d20" x="110.590955" y="132.236358" style="stroke: #000000"/>
     <use xlink:href="#mc4ec292d20" x="100.678397" y="152.359597" style="stroke: #000000"/>
     <use xlink:href="#mc4ec292d20" x="103.850415" y="150.618163" style="stroke: #000000"/>
     <use xlink:href="#mc4ec292d20" x="96.316871" y="165.904085" style="stroke: #000000"/>
     <use xlink:href="#mc4ec292d20" x="95.523866" y="163.001695" style="stroke: #000000"/>
    </g>
   </g>
   <g id="patch_3">
    <path d="M 75.69875 242.208 
L 75.69875 7.2 
" style="fill: none; stroke: #000000; stroke-width: 0.8; stroke-linejoin: miter; stroke-linecap: square"/>
   </g>
   <g id="patch_4">
    <path d="M 416.69075 242.208 
L 416.69075 7.2 
" style="fill: none; stroke: #000000; stroke-width: 0.8; stroke-linejoin: miter; stroke-linecap: square"/>
   </g>
   <g id="patch_5">
    <path d="M 75.69875 242.208 
L 416.69075 242.208 
" style="fill: none; stroke: #000000; stroke-width: 0.8; stroke-linejoin: miter; stroke-linecap: square"/>
   </g>
   <g id="patch_6">
    <path d="M 75.69875 7.2 
L 416.69075 7.2 
" style="fill: none; stroke: #000000; stroke-width: 0.8; stroke-linejoin: miter; stroke-linecap: square"/>
   </g>
  </g>
  <g id="axes_2">
   <g id="patch_7">
    <path d="M 75.69875 318.24 
L 416.69075 318.24 
L 416.69075 249.12 
L 75.69875 249.12 
z
" style="fill: #ffffff"/>
   </g>
   <g id="PathCollection_1">
    <defs>
     <path id="m1bf6f04099" d="M 0 1 
C 0.265203 1 0.51958 0.894634 0.707107 0.707107 
C 0.894634 0.51958 1 0.265203 1 0 
C 1 -0.265203 0.894634 -0.51958 0.707107 -0.707107 
C 0.51958 -0.894634 0.265203 -1 0 -1 
C -0.265203 -1 -0.51958 -0.894634 -0.707107 -0.707107 
C -0.894634 -0.51958 -1 -0.265203 -1 0 
C -1 0.265203 -0.894634 0.51958 -0.707107 0.707107 
C -0.51958 0.894634 -0.265203 1 0 1 
z
" style="stroke: #ff0000"/>
    </defs>
    <g clip-path="url(#p9be08071a3)">
     <use xlink:href="#m1bf6f04099" x="257.296815" y="297.427277" style="fill: #ff0000; stroke: #ff0000"/>
     <use xlink:href="#m1bf6f04099" x="216.060573" y="293.947332" style="fill: #ff0000; stroke: #ff0000"/>
     <use xlink:href="#m1bf6f04099" x="244.212238" y="309.104526" style="fill: #ff0000; stroke: #ff0000"/>
     <use xlink:href="#m1bf6f04099" x="223.99062" y="310.476997" style="fill: #ff0000; stroke: #ff0000"/>
     <use xlink:href="#m1bf6f04099" x="242.229727" y="295.936369" style="fill: #ff0000; stroke: #ff0000"/>
     <use xlink:href="#m1bf6f04099" x="223.197615" y="291.757144" style="fill: #ff0000; stroke: #ff0000"/>
     <use xlink:href="#m1bf6f04099" x="225.576629" y="295.07069" style="fill: #ff0000; stroke: #ff0000"/>
     <use xlink:href="#m1bf6f04099" x="255.314303" y="284.384196" style="fill: #ff0000; stroke: #ff0000"/>
     <use xlink:href="#m1bf6f04099" x="260.072331" y="286.576058" style="fill: #ff0000; stroke: #ff0000"/>
     <use xlink:href="#m1bf6f04099" x="273.156908" y="276.363503" style="fill: #ff0000; stroke: #ff0000"/>
     <use xlink:href="#m1bf6f04099" x="335.407773" y="307.183351" style="fill: #ff0000; stroke: #ff0000"/>
     <use xlink:href="#m1bf6f04099" x="234.29968" y="293.79832" style="fill: #ff0000; stroke: #ff0000"/>
     <use xlink:href="#m1bf6f04099" x="319.54768" y="305.341932" style="fill: #ff0000; stroke: #ff0000"/>
     <use xlink:href="#m1bf6f04099" x="266.019866" y="293.449726" style="fill: #ff0000; stroke: #ff0000"/>
     <use xlink:href="#m1bf6f04099" x="254.124797" y="301.090004" style="fill: #ff0000; stroke: #ff0000"/>
     <use xlink:href="#m1bf6f04099" x="229.541652" y="282.162751" style="fill: #ff0000; stroke: #ff0000"/>
     <use xlink:href="#m1bf6f04099" x="301.705076" y="296.11389" style="fill: #ff0000; stroke: #ff0000"/>
     <use xlink:href="#m1bf6f04099" x="269.98489" y="287.177638" style="fill: #ff0000; stroke: #ff0000"/>
     <use xlink:href="#m1bf6f04099" x="271.967401" y="296.535972" style="fill: #ff0000; stroke: #ff0000"/>
     <use xlink:href="#m1bf6f04099" x="335.804276" y="300.751015" style="fill: #ff0000; stroke: #ff0000"/>
     <use xlink:href="#m1bf6f04099" x="404.002676" y="299.413478" style="fill: #ff0000; stroke: #ff0000"/>
     <use xlink:href="#m1bf6f04099" x="254.124797" y="281.64448" style="fill: #ff0000; stroke: #ff0000"/>
     <use xlink:href="#m1bf6f04099" x="246.19475" y="277.992396" style="fill: #ff0000; stroke: #ff0000"/>
     <use xlink:href="#m1bf6f04099" x="305.670099" y="292.460757" style="fill: #ff0000; stroke: #ff0000"/>
     <use xlink:href="#m1bf6f04099" x="378.230024" y="298.747241" style="fill: #ff0000; stroke: #ff0000"/>
     <use xlink:href="#m1bf6f04099" x="284.258973" y="291.701607" style="fill: #ff0000; stroke: #ff0000"/>
     <use xlink:href="#m1bf6f04099" x="143.89715" y="296.967065" style="fill: #ff0000; stroke: #ff0000"/>
     <use xlink:href="#m1bf6f04099" x="321.13369" y="291.500338" style="fill: #ff0000; stroke: #ff0000"/>
     <use xlink:href="#m1bf6f04099" x="310.428127" y="282.535176" style="fill: #ff0000; stroke: #ff0000"/>
     <use xlink:href="#m1bf6f04099" x="293.775029" y="288.766639" style="fill: #ff0000; stroke: #ff0000"/>
     <use xlink:href="#m1bf6f04099" x="147.069169" y="290.16799" style="fill: #ff0000; stroke: #ff0000"/>
     <use xlink:href="#m1bf6f04099" x="223.99062" y="259.622738" style="fill: #ff0000; stroke: #ff0000"/>
     <use xlink:href="#m1bf6f04099" x="262.847848" y="282.170848" style="fill: #ff0000; stroke: #ff0000"/>
     <use xlink:href="#m1bf6f04099" x="246.19475" y="291.937895" style="fill: #ff0000; stroke: #ff0000"/>
     <use xlink:href="#m1bf6f04099" x="336.200778" y="291.17433" style="fill: #ff0000; stroke: #ff0000"/>
     <use xlink:href="#m1bf6f04099" x="318.358173" y="287.886635" style="fill: #ff0000; stroke: #ff0000"/>
     <use xlink:href="#m1bf6f04099" x="202.579494" y="290.500521" style="fill: #ff0000; stroke: #ff0000"/>
     <use xlink:href="#m1bf6f04099" x="305.273597" y="290.903872" style="fill: #ff0000; stroke: #ff0000"/>
     <use xlink:href="#m1bf6f04099" x="254.124797" y="295.966023" style="fill: #ff0000; stroke: #ff0000"/>
     <use xlink:href="#m1bf6f04099" x="306.066601" y="303.193848" style="fill: #ff0000; stroke: #ff0000"/>
     <use xlink:href="#m1bf6f04099" x="240.643717" y="290.887438" style="fill: #ff0000; stroke: #ff0000"/>
     <use xlink:href="#m1bf6f04099" x="404.79568" y="294.21906" style="fill: #ff0000; stroke: #ff0000"/>
     <use xlink:href="#m1bf6f04099" x="87.59382" y="295.498677" style="fill: #ff0000; stroke: #ff0000"/>
     <use xlink:href="#m1bf6f04099" x="95.523866" y="285.216703" style="fill: #ff0000; stroke: #ff0000"/>
     <use xlink:href="#m1bf6f04099" x="86.00781" y="294.065287" style="fill: #ff0000; stroke: #ff0000"/>
     <use xlink:href="#m1bf6f04099" x="105.436424" y="291.691857" style="fill: #ff0000; stroke: #ff0000"/>
     <use xlink:href="#m1bf6f04099" x="86.00781" y="284.080227" style="fill: #ff0000; stroke: #ff0000"/>
     <use xlink:href="#m1bf6f04099" x="81.249783" y="300.637903" style="fill: #ff0000; stroke: #ff0000"/>
     <use xlink:href="#m1bf6f04099" x="115.745485" y="292.725494" style="fill: #ff0000; stroke: #ff0000"/>
     <use xlink:href="#m1bf6f04099" x="83.628797" y="301.726743" style="fill: #ff0000; stroke: #ff0000"/>
     <use xlink:href="#m1bf6f04099" x="89.972834" y="296.363167" style="fill: #ff0000; stroke: #ff0000"/>
     <use xlink:href="#m1bf6f04099" x="93.541355" y="278.809044" style="fill: #ff0000; stroke: #ff0000"/>
     <use xlink:href="#m1bf6f04099" x="92.74835" y="289.050329" style="fill: #ff0000; stroke: #ff0000"/>
     <use xlink:href="#m1bf6f04099" x="82.835792" y="280.765076" style="fill: #ff0000; stroke: #ff0000"/>
     <use xlink:href="#m1bf6f04099" x="107.022434" y="300.136049" style="fill: #ff0000; stroke: #ff0000"/>
     <use xlink:href="#m1bf6f04099" x="110.590955" y="271.42101" style="fill: #ff0000; stroke: #ff0000"/>
     <use xlink:href="#m1bf6f04099" x="100.678397" y="281.879704" style="fill: #ff0000; stroke: #ff0000"/>
     <use xlink:href="#m1bf6f04099" x="103.850415" y="290.849119" style="fill: #ff0000; stroke: #ff0000"/>
     <use xlink:href="#m1bf6f04099" x="96.316871" y="291.925127" style="fill: #ff0000; stroke: #ff0000"/>
     <use xlink:href="#m1bf6f04099" x="95.523866" y="285.672915" style="fill: #ff0000; stroke: #ff0000"/>
    </g>
   </g>
   <g id="matplotlib.axis_3">
    <g id="xtick_6">
     <g id="line2d_8">
      <defs>
       <path id="m064308381e" d="M 0 0 
L 0 3.5 
" style="stroke: #000000; stroke-width: 0.8"/>
      </defs>
      <g>
       <use xlink:href="#m064308381e" x="75.69875" y="318.24" style="stroke: #000000; stroke-width: 0.8"/>
      </g>
     </g>
     <g id="text_7">
      <!-- 0.0 -->
      <g transform="translate(61.385937 338.917187) scale(0.18 -0.18)">
       <use xlink:href="#DejaVuSans-30"/>
       <use xlink:href="#DejaVuSans-2e" x="63.623047"/>
       <use xlink:href="#DejaVuSans-30" x="95.410156"/>
      </g>
     </g>
    </g>
    <g id="xtick_7">
     <g id="line2d_9">
      <g>
       <use xlink:href="#m064308381e" x="154.999215" y="318.24" style="stroke: #000000; stroke-width: 0.8"/>
      </g>
     </g>
     <g id="text_8">
      <!-- 0.2 -->
      <g transform="translate(140.686403 338.917187) scale(0.18 -0.18)">
       <use xlink:href="#DejaVuSans-30"/>
       <use xlink:href="#DejaVuSans-2e" x="63.623047"/>
       <use xlink:href="#DejaVuSans-32" x="95.410156"/>
      </g>
     </g>
    </g>
    <g id="xtick_8">
     <g id="line2d_10">
      <g>
       <use xlink:href="#m064308381e" x="234.29968" y="318.24" style="stroke: #000000; stroke-width: 0.8"/>
      </g>
     </g>
     <g id="text_9">
      <!-- 0.4 -->
      <g transform="translate(219.986868 338.917187) scale(0.18 -0.18)">
       <defs>
        <path id="DejaVuSans-34" d="M 2419 4116 
L 825 1625 
L 2419 1625 
L 2419 4116 
z
M 2253 4666 
L 3047 4666 
L 3047 1625 
L 3713 1625 
L 3713 1100 
L 3047 1100 
L 3047 0 
L 2419 0 
L 2419 1100 
L 313 1100 
L 313 1709 
L 2253 4666 
z
" transform="scale(0.015625)"/>
       </defs>
       <use xlink:href="#DejaVuSans-30"/>
       <use xlink:href="#DejaVuSans-2e" x="63.623047"/>
       <use xlink:href="#DejaVuSans-34" x="95.410156"/>
      </g>
     </g>
    </g>
    <g id="xtick_9">
     <g id="line2d_11">
      <g>
       <use xlink:href="#m064308381e" x="313.600145" y="318.24" style="stroke: #000000; stroke-width: 0.8"/>
      </g>
     </g>
     <g id="text_10">
      <!-- 0.6 -->
      <g transform="translate(299.287333 338.917187) scale(0.18 -0.18)">
       <defs>
        <path id="DejaVuSans-36" d="M 2113 2584 
Q 1688 2584 1439 2293 
Q 1191 2003 1191 1497 
Q 1191 994 1439 701 
Q 1688 409 2113 409 
Q 2538 409 2786 701 
Q 3034 994 3034 1497 
Q 3034 2003 2786 2293 
Q 2538 2584 2113 2584 
z
M 3366 4563 
L 3366 3988 
Q 3128 4100 2886 4159 
Q 2644 4219 2406 4219 
Q 1781 4219 1451 3797 
Q 1122 3375 1075 2522 
Q 1259 2794 1537 2939 
Q 1816 3084 2150 3084 
Q 2853 3084 3261 2657 
Q 3669 2231 3669 1497 
Q 3669 778 3244 343 
Q 2819 -91 2113 -91 
Q 1303 -91 875 529 
Q 447 1150 447 2328 
Q 447 3434 972 4092 
Q 1497 4750 2381 4750 
Q 2619 4750 2861 4703 
Q 3103 4656 3366 4563 
z
" transform="scale(0.015625)"/>
       </defs>
       <use xlink:href="#DejaVuSans-30"/>
       <use xlink:href="#DejaVuSans-2e" x="63.623047"/>
       <use xlink:href="#DejaVuSans-36" x="95.410156"/>
      </g>
     </g>
    </g>
    <g id="xtick_10">
     <g id="line2d_12">
      <g>
       <use xlink:href="#m064308381e" x="392.90061" y="318.24" style="stroke: #000000; stroke-width: 0.8"/>
      </g>
     </g>
     <g id="text_11">
      <!-- 0.8 -->
      <g transform="translate(378.587798 338.917187) scale(0.18 -0.18)">
       <defs>
        <path id="DejaVuSans-38" d="M 2034 2216 
Q 1584 2216 1326 1975 
Q 1069 1734 1069 1313 
Q 1069 891 1326 650 
Q 1584 409 2034 409 
Q 2484 409 2743 651 
Q 3003 894 3003 1313 
Q 3003 1734 2745 1975 
Q 2488 2216 2034 2216 
z
M 1403 2484 
Q 997 2584 770 2862 
Q 544 3141 544 3541 
Q 544 4100 942 4425 
Q 1341 4750 2034 4750 
Q 2731 4750 3128 4425 
Q 3525 4100 3525 3541 
Q 3525 3141 3298 2862 
Q 3072 2584 2669 2484 
Q 3125 2378 3379 2068 
Q 3634 1759 3634 1313 
Q 3634 634 3220 271 
Q 2806 -91 2034 -91 
Q 1263 -91 848 271 
Q 434 634 434 1313 
Q 434 1759 690 2068 
Q 947 2378 1403 2484 
z
M 1172 3481 
Q 1172 3119 1398 2916 
Q 1625 2713 2034 2713 
Q 2441 2713 2670 2916 
Q 2900 3119 2900 3481 
Q 2900 3844 2670 4047 
Q 2441 4250 2034 4250 
Q 1625 4250 1398 4047 
Q 1172 3844 1172 3481 
z
" transform="scale(0.015625)"/>
       </defs>
       <use xlink:href="#DejaVuSans-30"/>
       <use xlink:href="#DejaVuSans-2e" x="63.623047"/>
       <use xlink:href="#DejaVuSans-38" x="95.410156"/>
      </g>
     </g>
    </g>
    <g id="text_12">
     <!-- $Redshift (z)$ -->
     <g transform="translate(197.32475 360.337812) scale(0.18 -0.18)">
      <defs>
       <path id="DejaVuSans-Oblique-52" d="M 1613 4147 
L 1294 2491 
L 2106 2491 
Q 2584 2491 2879 2755 
Q 3175 3019 3175 3444 
Q 3175 3784 2976 3965 
Q 2778 4147 2406 4147 
L 1613 4147 
z
M 2772 2241 
Q 2972 2194 3105 2009 
Q 3238 1825 3413 1275 
L 3809 0 
L 3144 0 
L 2778 1197 
Q 2638 1659 2453 1815 
Q 2269 1972 1888 1972 
L 1191 1972 
L 806 0 
L 172 0 
L 1081 4666 
L 2503 4666 
Q 3150 4666 3495 4373 
Q 3841 4081 3841 3531 
Q 3841 3044 3547 2687 
Q 3253 2331 2772 2241 
z
" transform="scale(0.015625)"/>
       <path id="DejaVuSans-Oblique-64" d="M 2675 525 
Q 2444 222 2128 65 
Q 1813 -91 1428 -91 
Q 903 -91 598 267 
Q 294 625 294 1247 
Q 294 1766 478 2236 
Q 663 2706 1013 3078 
Q 1244 3325 1534 3454 
Q 1825 3584 2144 3584 
Q 2481 3584 2739 3421 
Q 2997 3259 3138 2956 
L 3513 4863 
L 4091 4863 
L 3144 0 
L 2566 0 
L 2675 525 
z
M 891 1350 
Q 891 897 1095 644 
Q 1300 391 1663 391 
Q 1931 391 2161 520 
Q 2391 650 2566 903 
Q 2750 1166 2856 1509 
Q 2963 1853 2963 2188 
Q 2963 2622 2758 2865 
Q 2553 3109 2194 3109 
Q 1922 3109 1687 2981 
Q 1453 2853 1288 2613 
Q 1106 2353 998 2009 
Q 891 1666 891 1350 
z
" transform="scale(0.015625)"/>
       <path id="DejaVuSans-Oblique-73" d="M 3200 3397 
L 3091 2853 
Q 2863 2978 2609 3040 
Q 2356 3103 2088 3103 
Q 1634 3103 1373 2948 
Q 1113 2794 1113 2528 
Q 1113 2219 1719 2053 
Q 1766 2041 1788 2034 
L 1972 1978 
Q 2547 1819 2739 1644 
Q 2931 1469 2931 1166 
Q 2931 609 2489 259 
Q 2047 -91 1331 -91 
Q 1053 -91 747 -37 
Q 441 16 72 128 
L 184 722 
Q 500 559 806 475 
Q 1113 391 1394 391 
Q 1816 391 2080 572 
Q 2344 753 2344 1031 
Q 2344 1331 1650 1516 
L 1591 1531 
L 1394 1581 
Q 956 1697 753 1886 
Q 550 2075 550 2369 
Q 550 2928 970 3256 
Q 1391 3584 2113 3584 
Q 2397 3584 2667 3537 
Q 2938 3491 3200 3397 
z
" transform="scale(0.015625)"/>
       <path id="DejaVuSans-Oblique-68" d="M 3566 2113 
L 3156 0 
L 2578 0 
L 2988 2091 
Q 3016 2238 3031 2350 
Q 3047 2463 3047 2528 
Q 3047 2791 2881 2937 
Q 2716 3084 2419 3084 
Q 1956 3084 1617 2771 
Q 1278 2459 1178 1941 
L 800 0 
L 225 0 
L 1172 4863 
L 1747 4863 
L 1375 2950 
Q 1594 3244 1934 3414 
Q 2275 3584 2650 3584 
Q 3113 3584 3367 3334 
Q 3622 3084 3622 2631 
Q 3622 2519 3608 2391 
Q 3594 2263 3566 2113 
z
" transform="scale(0.015625)"/>
       <path id="DejaVuSans-Oblique-69" d="M 1172 4863 
L 1747 4863 
L 1606 4134 
L 1031 4134 
L 1172 4863 
z
M 909 3500 
L 1484 3500 
L 800 0 
L 225 0 
L 909 3500 
z
" transform="scale(0.015625)"/>
       <path id="DejaVuSans-Oblique-74" d="M 2706 3500 
L 2619 3053 
L 1472 3053 
L 1100 1153 
Q 1081 1047 1072 975 
Q 1063 903 1063 863 
Q 1063 663 1183 572 
Q 1303 481 1569 481 
L 2150 481 
L 2053 0 
L 1503 0 
Q 991 0 739 200 
Q 488 400 488 806 
Q 488 878 497 964 
Q 506 1050 525 1153 
L 897 3053 
L 409 3053 
L 500 3500 
L 978 3500 
L 1172 4494 
L 1747 4494 
L 1556 3500 
L 2706 3500 
z
" transform="scale(0.015625)"/>
       <path id="DejaVuSans-28" d="M 1984 4856 
Q 1566 4138 1362 3434 
Q 1159 2731 1159 2009 
Q 1159 1288 1364 580 
Q 1569 -128 1984 -844 
L 1484 -844 
Q 1016 -109 783 600 
Q 550 1309 550 2009 
Q 550 2706 781 3412 
Q 1013 4119 1484 4856 
L 1984 4856 
z
" transform="scale(0.015625)"/>
       <path id="DejaVuSans-Oblique-7a" d="M 744 3500 
L 3475 3500 
L 3372 2975 
L 738 459 
L 2913 459 
L 2822 0 
L -19 0 
L 84 525 
L 2719 3041 
L 653 3041 
L 744 3500 
z
" transform="scale(0.015625)"/>
       <path id="DejaVuSans-29" d="M 513 4856 
L 1013 4856 
Q 1481 4119 1714 3412 
Q 1947 2706 1947 2009 
Q 1947 1309 1714 600 
Q 1481 -109 1013 -844 
L 513 -844 
Q 928 -128 1133 580 
Q 1338 1288 1338 2009 
Q 1338 2731 1133 3434 
Q 928 4138 513 4856 
z
" transform="scale(0.015625)"/>
      </defs>
      <use xlink:href="#DejaVuSans-Oblique-52" transform="translate(0 0.015625)"/>
      <use xlink:href="#DejaVuSans-Oblique-65" transform="translate(69.482422 0.015625)"/>
      <use xlink:href="#DejaVuSans-Oblique-64" transform="translate(131.005859 0.015625)"/>
      <use xlink:href="#DejaVuSans-Oblique-73" transform="translate(194.482422 0.015625)"/>
      <use xlink:href="#DejaVuSans-Oblique-68" transform="translate(246.582031 0.015625)"/>
      <use xlink:href="#DejaVuSans-Oblique-69" transform="translate(309.960938 0.015625)"/>
      <use xlink:href="#DejaVuSans-Oblique-66" transform="translate(337.744141 0.015625)"/>
      <use xlink:href="#DejaVuSans-Oblique-74" transform="translate(372.949219 0.015625)"/>
      <use xlink:href="#DejaVuSans-28" transform="translate(412.158203 0.015625)"/>
      <use xlink:href="#DejaVuSans-Oblique-7a" transform="translate(451.171875 0.015625)"/>
      <use xlink:href="#DejaVuSans-29" transform="translate(503.662109 0.015625)"/>
     </g>
    </g>
   </g>
   <g id="matplotlib.axis_4">
    <g id="ytick_6">
     <g id="line2d_13">
      <g>
       <use xlink:href="#m2d22a6a432" x="75.69875" y="310.108235" style="stroke: #000000; stroke-width: 0.8"/>
      </g>
     </g>
     <g id="text_13">
      <!-- 0 -->
      <g transform="translate(57.24625 316.946829) scale(0.18 -0.18)">
       <use xlink:href="#DejaVuSans-30"/>
      </g>
     </g>
    </g>
    <g id="ytick_7">
     <g id="line2d_14">
      <g>
       <use xlink:href="#m2d22a6a432" x="75.69875" y="276.225882" style="stroke: #000000; stroke-width: 0.8"/>
      </g>
     </g>
     <g id="text_14">
      <!-- 5 -->
      <g transform="translate(57.24625 283.064476) scale(0.18 -0.18)">
       <use xlink:href="#DejaVuSans-35"/>
      </g>
     </g>
    </g>
   </g>
   <g id="line2d_15">
    <path d="M 75.69875 310.108235 
L 416.69075 310.108235 
" clip-path="url(#p9be08071a3)" style="fill: none; stroke-dasharray: 5.55,2.4; stroke-dashoffset: 0; stroke: #000000; stroke-opacity: 0.5; stroke-width: 1.5"/>
   </g>
   <g id="line2d_16">
    <path d="M 75.69875 303.331765 
L 416.69075 303.331765 
" clip-path="url(#p9be08071a3)" style="fill: none; stroke-dasharray: 1.5,2.475; stroke-dashoffset: 0; stroke: #000000; stroke-opacity: 0.3; stroke-width: 1.5"/>
   </g>
   <g id="line2d_17">
    <path d="M 75.69875 316.884706 
L 416.69075 316.884706 
" clip-path="url(#p9be08071a3)" style="fill: none; stroke-dasharray: 1.5,2.475; stroke-dashoffset: 0; stroke: #000000; stroke-opacity: 0.3; stroke-width: 1.5"/>
   </g>
   <g id="patch_8">
    <path d="M 75.69875 318.24 
L 75.69875 249.12 
" style="fill: none; stroke: #000000; stroke-width: 0.8; stroke-linejoin: miter; stroke-linecap: square"/>
   </g>
   <g id="patch_9">
    <path d="M 416.69075 318.24 
L 416.69075 249.12 
" style="fill: none; stroke: #000000; stroke-width: 0.8; stroke-linejoin: miter; stroke-linecap: square"/>
   </g>
   <g id="patch_10">
    <path d="M 75.69875 318.24 
L 416.69075 318.24 
" style="fill: none; stroke: #000000; stroke-width: 0.8; stroke-linejoin: miter; stroke-linecap: square"/>
   </g>
   <g id="patch_11">
    <path d="M 75.69875 249.12 
L 416.69075 249.12 
" style="fill: none; stroke: #000000; stroke-width: 0.8; stroke-linejoin: miter; stroke-linecap: square"/>
   </g>
  </g>
  <g id="axes_3">
   <g id="patch_12">
    <path d="M 421.29875 318.24 
L 485.81075 318.24 
L 485.81075 249.12 
L 421.29875 249.12 
z
" style="fill: #ffffff"/>
   </g>
   <g id="patch_13">
    <path d="M 421.29875 308.040907 
L 433.58675 308.040907 
L 433.58675 304.188311 
L 421.29875 304.188311 
z
" clip-path="url(#p3f856c2002)" style="fill: #ff0000"/>
   </g>
   <g id="patch_14">
    <path d="M 421.29875 304.188311 
L 429.49075 304.188311 
L 429.49075 300.335716 
L 421.29875 300.335716 
z
" clip-path="url(#p3f856c2002)" style="fill: #ff0000"/>
   </g>
   <g id="patch_15">
    <path d="M 421.29875 300.335716 
L 449.97075 300.335716 
L 449.97075 296.48312 
L 421.29875 296.48312 
z
" clip-path="url(#p3f856c2002)" style="fill: #ff0000"/>
   </g>
   <g id="patch_16">
    <path d="M 421.29875 296.48312 
L 474.54675 296.48312 
L 474.54675 292.630525 
L 421.29875 292.630525 
z
" clip-path="url(#p3f856c2002)" style="fill: #ff0000"/>
   </g>
   <g id="patch_17">
    <path d="M 421.29875 292.630525 
L 482.73875 292.630525 
L 482.73875 288.77793 
L 421.29875 288.77793 
z
" clip-path="url(#p3f856c2002)" style="fill: #ff0000"/>
   </g>
   <g id="patch_18">
    <path d="M 421.29875 288.77793 
L 449.97075 288.77793 
L 449.97075 284.925334 
L 421.29875 284.925334 
z
" clip-path="url(#p3f856c2002)" style="fill: #ff0000"/>
   </g>
   <g id="patch_19">
    <path d="M 421.29875 284.925334 
L 449.97075 284.925334 
L 449.97075 281.072739 
L 421.29875 281.072739 
z
" clip-path="url(#p3f856c2002)" style="fill: #ff0000"/>
   </g>
   <g id="patch_20">
    <path d="M 421.29875 281.072739 
L 433.58675 281.072739 
L 433.58675 277.220143 
L 421.29875 277.220143 
z
" clip-path="url(#p3f856c2002)" style="fill: #ff0000"/>
   </g>
   <g id="patch_21">
    <path d="M 421.29875 277.220143 
L 425.39475 277.220143 
L 425.39475 273.367548 
L 421.29875 273.367548 
z
" clip-path="url(#p3f856c2002)" style="fill: #ff0000"/>
   </g>
   <g id="patch_22">
    <path d="M 421.29875 273.367548 
L 425.39475 273.367548 
L 425.39475 269.514952 
L 421.29875 269.514952 
z
" clip-path="url(#p3f856c2002)" style="fill: #ff0000"/>
   </g>
   <g id="patch_23">
    <path d="M 421.29875 269.514952 
L 421.29875 269.514952 
L 421.29875 265.662357 
L 421.29875 265.662357 
z
" clip-path="url(#p3f856c2002)" style="fill: #ff0000"/>
   </g>
   <g id="patch_24">
    <path d="M 421.29875 265.662357 
L 425.39475 265.662357 
L 425.39475 261.809762 
L 421.29875 261.809762 
z
" clip-path="url(#p3f856c2002)" style="fill: #ff0000"/>
   </g>
   <g id="matplotlib.axis_5">
    <g id="xtick_11">
     <g id="line2d_18">
      <g>
       <use xlink:href="#m064308381e" x="452.037325" y="318.24" style="stroke: #000000; stroke-width: 0.8"/>
      </g>
     </g>
     <g id="text_15">
      <!-- 0.2 -->
      <g transform="translate(437.724512 338.917187) scale(0.18 -0.18)">
       <use xlink:href="#DejaVuSans-30"/>
       <use xlink:href="#DejaVuSans-2e" x="63.623047"/>
       <use xlink:href="#DejaVuSans-32" x="95.410156"/>
      </g>
     </g>
    </g>
    <g id="xtick_12">
     <g id="line2d_19">
      <g>
       <use xlink:href="#m064308381e" x="482.775899" y="318.24" style="stroke: #000000; stroke-width: 0.8"/>
      </g>
     </g>
     <g id="text_16">
      <!-- 0.4 -->
      <g transform="translate(468.463087 338.917187) scale(0.18 -0.18)">
       <use xlink:href="#DejaVuSans-30"/>
       <use xlink:href="#DejaVuSans-2e" x="63.623047"/>
       <use xlink:href="#DejaVuSans-34" x="95.410156"/>
      </g>
     </g>
    </g>
   </g>
   <g id="matplotlib.axis_6">
    <g id="ytick_8"/>
    <g id="ytick_9"/>
   </g>
   <g id="line2d_20">
    <path d="M 421.29875 307.705668 
L 485.81075 307.705668 
" clip-path="url(#p3f856c2002)" style="fill: none; stroke-dasharray: 5.55,2.4; stroke-dashoffset: 0; stroke: #000000; stroke-opacity: 0.5; stroke-width: 1.5"/>
   </g>
   <g id="line2d_21">
    <path d="M 421.29875 301.545241 
L 485.81075 301.545241 
" clip-path="url(#p3f856c2002)" style="fill: none; stroke-dasharray: 1.5,2.475; stroke-dashoffset: 0; stroke: #000000; stroke-opacity: 0.3; stroke-width: 1.5"/>
   </g>
   <g id="line2d_22">
    <path d="M 421.29875 313.866096 
L 485.81075 313.866096 
" clip-path="url(#p3f856c2002)" style="fill: none; stroke-dasharray: 1.5,2.475; stroke-dashoffset: 0; stroke: #000000; stroke-opacity: 0.3; stroke-width: 1.5"/>
   </g>
   <g id="line2d_23">
    <path d="M 421.841077 315.098182 
L 422.285609 313.399902 
L 422.886966 311.953219 
L 423.640418 310.695233 
L 424.611283 309.500147 
L 425.809859 308.367961 
L 427.325107 307.235774 
L 429.310978 306.040688 
L 431.864719 304.782703 
L 435.070096 303.461818 
L 439.352288 301.952236 
L 445.434777 300.065258 
L 459.90784 295.66231 
L 463.157211 294.404324 
L 465.195725 293.397936 
L 466.49386 292.517346 
L 467.164854 291.825455 
L 467.494697 291.196462 
L 467.558236 290.630369 
L 467.399697 290.064275 
L 466.965958 289.435283 
L 466.184796 288.743391 
L 464.988534 287.9886 
L 463.033311 287.045111 
L 460.111943 285.912924 
L 455.698455 284.466241 
L 446.531617 281.761572 
L 439.000209 279.4343 
L 434.442272 277.798919 
L 431.200144 276.415135 
L 428.654627 275.094251 
L 426.708162 273.836265 
L 425.250502 272.641179 
L 424.124437 271.446093 
L 423.238469 270.188108 
L 422.572511 268.867224 
L 422.061574 267.357641 
L 421.691 265.533563 
L 421.45089 263.143391 
L 421.328252 259.432334 
L 421.299441 252.261818 
L 421.299441 252.261818 
" clip-path="url(#p3f856c2002)" style="fill: none; stroke: #000000; stroke-width: 1.5; stroke-linecap: square"/>
   </g>
   <g id="patch_25">
    <path d="M 421.29875 318.24 
L 421.29875 249.12 
" style="fill: none; stroke: #000000; stroke-width: 0.8; stroke-linejoin: miter; stroke-linecap: square"/>
   </g>
   <g id="patch_26">
    <path d="M 485.81075 318.24 
L 485.81075 249.12 
" style="fill: none; stroke: #000000; stroke-width: 0.8; stroke-linejoin: miter; stroke-linecap: square"/>
   </g>
   <g id="patch_27">
    <path d="M 421.29875 318.24 
L 485.81075 318.24 
" style="fill: none; stroke: #000000; stroke-width: 0.8; stroke-linejoin: miter; stroke-linecap: square"/>
   </g>
   <g id="patch_28">
    <path d="M 421.29875 249.12 
L 485.81075 249.12 
" style="fill: none; stroke: #000000; stroke-width: 0.8; stroke-linejoin: miter; stroke-linecap: square"/>
   </g>
  </g>
 </g>
 <defs>
  <clipPath id="p4c0b32fe64">
   <rect x="75.69875" y="7.2" width="340.992" height="235.008"/>
  </clipPath>
  <clipPath id="p9be08071a3">
   <rect x="75.69875" y="249.12" width="340.992" height="69.12"/>
  </clipPath>
  <clipPath id="p3f856c2002">
   <rect x="421.29875" y="249.12" width="64.512" height="69.12"/>
  </clipPath>
 </defs>
</svg>
