<?xml version="1.0" encoding="utf-8" standalone="no"?>
<!DOCTYPE svg PUBLIC "-//W3C//DTD SVG 1.1//EN"
  "http://www.w3.org/Graphics/SVG/1.1/DTD/svg11.dtd">
<svg xmlns:xlink="http://www.w3.org/1999/xlink" width="481.044031pt" height="265.250375pt" viewBox="0 0 481.044031 265.250375" xmlns="http://www.w3.org/2000/svg" version="1.1">
 <metadata>
  <rdf:RDF xmlns:dc="http://purl.org/dc/elements/1.1/" xmlns:cc="http://creativecommons.org/ns#" xmlns:rdf="http://www.w3.org/1999/02/22-rdf-syntax-ns#">
   <cc:Work>
    <dc:type rdf:resource="http://purl.org/dc/dcmitype/StillImage"/>
    <dc:date>2025-12-11T19:06:31.695600</dc:date>
    <dc:format>image/svg+xml</dc:format>
    <dc:creator>
     <cc:Agent>
      <dc:title>Matplotlib v3.9.2, https://matplotlib.org/</dc:title>
     </cc:Agent>
    </dc:creator>
   </cc:Work>
  </rdf:RDF>
 </metadata>
 <defs>
  <style type="text/css">*{stroke-linejoin: round; stroke-linecap: butt}</style>
 </defs>
 <g id="figure_1">
  <g id="patch_1">
   <path d="M 0 265.250375 
L 481.044031 265.250375 
L 481.044031 0 
L 0 0 
z
" style="fill: #ffffff"/>
  </g>
  <g id="axes_1">
   <g id="patch_2">
    <path d="M 51.804688 159.264 
L 392.796688 159.264 
L 392.796688 7.2 
L 51.804688 7.2 
z
" style="fill: #ffffff"/>
   </g>
   <g id="matplotlib.axis_1">
    <g id="xtick_1"/>
    <g id="xtick_2"/>
    <g id="xtick_3"/>
    <g id="xtick_4"/>
   </g>
   <g id="matplotlib.axis_2">
    <g id="ytick_1">
     <g id="line2d_1">
      <defs>
       <path id="mb908569c73" d="M 0 0 
L -3.5 0 
" style="stroke: #000000; stroke-width: 0.8"/>
      </defs>
      <g>
       <use xlink:href="#mb908569c73" x="51.804688" y="152.086154" style="stroke: #000000; stroke-width: 0.8"/>
      </g>
     </g>
     <g id="text_1">
      <!-- 20 -->
      <g transform="translate(25.717188 157.784982) scale(0.15 -0.15)">
       <defs>
        <path id="DejaVuSans-32" d="M 1228 531 
L 3431 531 
L 3431 0 
L 469 0 
L 469 531 
Q 828 903 1448 1529 
Q 2069 2156 2228 2338 
Q 2531 2678 2651 2914 
Q 2772 3150 2772 3378 
Q 2772 3750 2511 3984 
Q 2250 4219 1831 4219 
Q 1534 4219 1204 4116 
Q 875 4013 500 3803 
L 500 4441 
Q 881 4594 1212 4672 
Q 1544 4750 1819 4750 
Q 2544 4750 2975 4387 
Q 3406 4025 3406 3419 
Q 3406 3131 3298 2873 
Q 3191 2616 2906 2266 
Q 2828 2175 2409 1742 
Q 1991 1309 1228 531 
z
" transform="scale(0.015625)"/>
        <path id="DejaVuSans-30" d="M 2034 4250 
Q 1547 4250 1301 3770 
Q 1056 3291 1056 2328 
Q 1056 1369 1301 889 
Q 1547 409 2034 409 
Q 2525 409 2770 889 
Q 3016 1369 3016 2328 
Q 3016 3291 2770 3770 
Q 2525 4250 2034 4250 
z
M 2034 4750 
Q 2819 4750 3233 4129 
Q 3647 3509 3647 2328 
Q 3647 1150 3233 529 
Q 2819 -91 2034 -91 
Q 1250 -91 836 529 
Q 422 1150 422 2328 
Q 422 3509 836 4129 
Q 1250 4750 2034 4750 
z
" transform="scale(0.015625)"/>
       </defs>
       <use xlink:href="#DejaVuSans-32"/>
       <use xlink:href="#DejaVuSans-30" x="63.623047"/>
      </g>
     </g>
    </g>
    <g id="ytick_2">
     <g id="line2d_2">
      <g>
       <use xlink:href="#mb908569c73" x="51.804688" y="125.501538" style="stroke: #000000; stroke-width: 0.8"/>
      </g>
     </g>
     <g id="text_2">
      <!-- 21 -->
      <g transform="translate(25.717188 131.200367) scale(0.15 -0.15)">
       <defs>
        <path id="DejaVuSans-31" d="M 794 531 
L 1825 531 
L 1825 4091 
L 703 3866 
L 703 4441 
L 1819 4666 
L 2450 4666 
L 2450 531 
L 3481 531 
L 3481 0 
L 794 0 
L 794 531 
z
" transform="scale(0.015625)"/>
       </defs>
       <use xlink:href="#DejaVuSans-32"/>
       <use xlink:href="#DejaVuSans-31" x="63.623047"/>
      </g>
     </g>
    </g>
    <g id="ytick_3">
     <g id="line2d_3">
      <g>
       <use xlink:href="#mb908569c73" x="51.804688" y="98.916923" style="stroke: #000000; stroke-width: 0.8"/>
      </g>
     </g>
     <g id="text_3">
      <!-- 22 -->
      <g transform="translate(25.717188 104.615751) scale(0.15 -0.15)">
       <use xlink:href="#DejaVuSans-32"/>
       <use xlink:href="#DejaVuSans-32" x="63.623047"/>
      </g>
     </g>
    </g>
    <g id="ytick_4">
     <g id="line2d_4">
      <g>
       <use xlink:href="#mb908569c73" x="51.804688" y="72.332308" style="stroke: #000000; stroke-width: 0.8"/>
      </g>
     </g>
     <g id="text_4">
      <!-- 23 -->
      <g transform="translate(25.717188 78.031136) scale(0.15 -0.15)">
       <defs>
        <path id="DejaVuSans-33" d="M 2597 2516 
Q 3050 2419 3304 2112 
Q 3559 1806 3559 1356 
Q 3559 666 3084 287 
Q 2609 -91 1734 -91 
Q 1441 -91 1130 -33 
Q 819 25 488 141 
L 488 750 
Q 750 597 1062 519 
Q 1375 441 1716 441 
Q 2309 441 2620 675 
Q 2931 909 2931 1356 
Q 2931 1769 2642 2001 
Q 2353 2234 1838 2234 
L 1294 2234 
L 1294 2753 
L 1863 2753 
Q 2328 2753 2575 2939 
Q 2822 3125 2822 3475 
Q 2822 3834 2567 4026 
Q 2313 4219 1838 4219 
Q 1578 4219 1281 4162 
Q 984 4106 628 3988 
L 628 4550 
Q 988 4650 1302 4700 
Q 1616 4750 1894 4750 
Q 2613 4750 3031 4423 
Q 3450 4097 3450 3541 
Q 3450 3153 3228 2886 
Q 3006 2619 2597 2516 
z
" transform="scale(0.015625)"/>
       </defs>
       <use xlink:href="#DejaVuSans-32"/>
       <use xlink:href="#DejaVuSans-33" x="63.623047"/>
      </g>
     </g>
    </g>
    <g id="ytick_5">
     <g id="line2d_5">
      <g>
       <use xlink:href="#mb908569c73" x="51.804688" y="45.747692" style="stroke: #000000; stroke-width: 0.8"/>
      </g>
     </g>
     <g id="text_5">
      <!-- 24 -->
      <g transform="translate(25.717188 51.44652) scale(0.15 -0.15)">
       <defs>
        <path id="DejaVuSans-34" d="M 2419 4116 
L 825 1625 
L 2419 1625 
L 2419 4116 
z
M 2253 4666 
L 3047 4666 
L 3047 1625 
L 3713 1625 
L 3713 1100 
L 3047 1100 
L 3047 0 
L 2419 0 
L 2419 1100 
L 313 1100 
L 313 1709 
L 2253 4666 
z
" transform="scale(0.015625)"/>
       </defs>
       <use xlink:href="#DejaVuSans-32"/>
       <use xlink:href="#DejaVuSans-34" x="63.623047"/>
      </g>
     </g>
    </g>
    <g id="ytick_6">
     <g id="line2d_6">
      <g>
       <use xlink:href="#mb908569c73" x="51.804688" y="19.163077" style="stroke: #000000; stroke-width: 0.8"/>
      </g>
     </g>
     <g id="text_6">
      <!-- 25 -->
      <g transform="translate(25.717188 24.861905) scale(0.15 -0.15)">
       <defs>
        <path id="DejaVuSans-35" d="M 691 4666 
L 3169 4666 
L 3169 4134 
L 1269 4134 
L 1269 2991 
Q 1406 3038 1543 3061 
Q 1681 3084 1819 3084 
Q 2600 3084 3056 2656 
Q 3513 2228 3513 1497 
Q 3513 744 3044 326 
Q 2575 -91 1722 -91 
Q 1428 -91 1123 -41 
Q 819 9 494 109 
L 494 744 
Q 775 591 1075 516 
Q 1375 441 1709 441 
Q 2250 441 2565 725 
Q 2881 1009 2881 1497 
Q 2881 1984 2565 2268 
Q 2250 2553 1709 2553 
Q 1456 2553 1204 2497 
Q 953 2441 691 2322 
L 691 4666 
z
" transform="scale(0.015625)"/>
       </defs>
       <use xlink:href="#DejaVuSans-32"/>
       <use xlink:href="#DejaVuSans-35" x="63.623047"/>
      </g>
     </g>
    </g>
    <g id="text_7">
     <!-- $m_{eff}$ -->
     <g transform="translate(18.597656 97.707) rotate(-90) scale(0.15 -0.15)">
      <defs>
       <path id="DejaVuSans-Oblique-6d" d="M 5747 2113 
L 5338 0 
L 4763 0 
L 5166 2094 
Q 5191 2228 5203 2325 
Q 5216 2422 5216 2491 
Q 5216 2772 5059 2928 
Q 4903 3084 4622 3084 
Q 4203 3084 3875 2770 
Q 3547 2456 3450 1953 
L 3066 0 
L 2491 0 
L 2900 2094 
Q 2925 2209 2937 2307 
Q 2950 2406 2950 2484 
Q 2950 2769 2794 2926 
Q 2638 3084 2363 3084 
Q 1938 3084 1609 2770 
Q 1281 2456 1184 1953 
L 800 0 
L 225 0 
L 909 3500 
L 1484 3500 
L 1375 2956 
Q 1609 3263 1923 3423 
Q 2238 3584 2597 3584 
Q 2978 3584 3223 3384 
Q 3469 3184 3519 2828 
Q 3781 3197 4126 3390 
Q 4472 3584 4856 3584 
Q 5306 3584 5551 3325 
Q 5797 3066 5797 2591 
Q 5797 2488 5784 2364 
Q 5772 2241 5747 2113 
z
" transform="scale(0.015625)"/>
       <path id="DejaVuSans-Oblique-65" d="M 3078 2063 
Q 3088 2113 3092 2166 
Q 3097 2219 3097 2272 
Q 3097 2653 2873 2875 
Q 2650 3097 2266 3097 
Q 1838 3097 1509 2826 
Q 1181 2556 1013 2059 
L 3078 2063 
z
M 3578 1613 
L 903 1613 
Q 884 1494 878 1425 
Q 872 1356 872 1306 
Q 872 872 1139 634 
Q 1406 397 1894 397 
Q 2269 397 2603 481 
Q 2938 566 3225 728 
L 3116 159 
Q 2806 34 2476 -28 
Q 2147 -91 1806 -91 
Q 1078 -91 686 257 
Q 294 606 294 1247 
Q 294 1794 489 2264 
Q 684 2734 1063 3103 
Q 1306 3334 1642 3459 
Q 1978 3584 2356 3584 
Q 2950 3584 3301 3228 
Q 3653 2872 3653 2272 
Q 3653 2128 3634 1964 
Q 3616 1800 3578 1613 
z
" transform="scale(0.015625)"/>
       <path id="DejaVuSans-Oblique-66" d="M 3059 4863 
L 2969 4384 
L 2419 4384 
Q 2106 4384 1964 4261 
Q 1822 4138 1753 3809 
L 1691 3500 
L 2638 3500 
L 2553 3053 
L 1606 3053 
L 1013 0 
L 434 0 
L 1031 3053 
L 481 3053 
L 563 3500 
L 1113 3500 
L 1159 3744 
Q 1278 4363 1576 4613 
Q 1875 4863 2516 4863 
L 3059 4863 
z
" transform="scale(0.015625)"/>
      </defs>
      <use xlink:href="#DejaVuSans-Oblique-6d"/>
      <use xlink:href="#DejaVuSans-Oblique-65" transform="translate(97.412109 -16.40625) scale(0.7)"/>
      <use xlink:href="#DejaVuSans-Oblique-66" transform="translate(140.478516 -16.40625) scale(0.7)"/>
      <use xlink:href="#DejaVuSans-Oblique-66" transform="translate(165.12207 -16.40625) scale(0.7)"/>
     </g>
    </g>
   </g>
   <g id="LineCollection_1">
    <path d="M 212.429866 81.636923 
L 212.429866 57.179077 
" clip-path="url(#pe9451e773f)" style="fill: none; stroke: #808080"/>
    <path d="M 165.767803 97.587692 
L 165.767803 80.041846 
" clip-path="url(#pe9451e773f)" style="fill: none; stroke: #808080"/>
    <path d="M 197.623635 108.487385 
L 197.623635 82.434462 
" clip-path="url(#pe9451e773f)" style="fill: none; stroke: #808080"/>
    <path d="M 174.741277 112.209231 
L 174.741277 100.512 
" clip-path="url(#pe9451e773f)" style="fill: none; stroke: #808080"/>
    <path d="M 195.380266 90.941538 
L 195.380266 77.649231 
" clip-path="url(#pe9451e773f)" style="fill: none; stroke: #808080"/>
    <path d="M 173.84393 97.321846 
L 173.84393 86.688 
" clip-path="url(#pe9451e773f)" style="fill: none; stroke: #808080"/>
    <path d="M 176.535972 93.334154 
L 176.535972 73.661538 
" clip-path="url(#pe9451e773f)" style="fill: none; stroke: #808080"/>
    <path d="M 210.186498 74.459077 
L 210.186498 61.166769 
" clip-path="url(#pe9451e773f)" style="fill: none; stroke: #808080"/>
    <path d="M 215.570582 71.534769 
L 215.570582 55.584 
" clip-path="url(#pe9451e773f)" style="fill: none; stroke: #808080"/>
    <path d="M 230.376814 60.103385 
L 230.376814 46.811077 
" clip-path="url(#pe9451e773f)" style="fill: none; stroke: #808080"/>
    <path d="M 300.818582 70.737231 
L 300.818582 59.571692 
" clip-path="url(#pe9451e773f)" style="fill: none; stroke: #808080"/>
    <path d="M 186.406793 94.397538 
L 186.406793 84.295385 
" clip-path="url(#pe9451e773f)" style="fill: none; stroke: #808080"/>
    <path d="M 282.871635 73.927385 
L 282.871635 60.635077 
" clip-path="url(#pe9451e773f)" style="fill: none; stroke: #808080"/>
    <path d="M 222.300687 79.776 
L 222.300687 67.015385 
" clip-path="url(#pe9451e773f)" style="fill: none; stroke: #808080"/>
    <path d="M 208.840477 91.473231 
L 208.840477 79.244308 
" clip-path="url(#pe9451e773f)" style="fill: none; stroke: #808080"/>
    <path d="M 181.022709 86.953846 
L 181.022709 76.32 
" clip-path="url(#pe9451e773f)" style="fill: none; stroke: #808080"/>
    <path d="M 262.681319 71.003077 
L 262.681319 59.305846 
" clip-path="url(#pe9451e773f)" style="fill: none; stroke: #808080"/>
    <path d="M 226.787424 74.990769 
L 226.787424 64.356923 
" clip-path="url(#pe9451e773f)" style="fill: none; stroke: #808080"/>
    <path d="M 229.030793 81.902769 
L 229.030793 71.800615 
" clip-path="url(#pe9451e773f)" style="fill: none; stroke: #808080"/>
    <path d="M 301.267256 64.622769 
L 301.267256 49.735385 
" clip-path="url(#pe9451e773f)" style="fill: none; stroke: #808080"/>
    <path d="M 378.43913 42.823385 
L 378.43913 14.112 
" clip-path="url(#pe9451e773f)" style="fill: none; stroke: #808080"/>
    <path d="M 208.840477 73.927385 
L 208.840477 61.698462 
" clip-path="url(#pe9451e773f)" style="fill: none; stroke: #808080"/>
    <path d="M 199.867003 74.724923 
L 199.867003 63.027692 
" clip-path="url(#pe9451e773f)" style="fill: none; stroke: #808080"/>
    <path d="M 267.168056 66.217846 
L 267.168056 53.988923 
" clip-path="url(#pe9451e773f)" style="fill: none; stroke: #808080"/>
    <path d="M 349.27534 47.342769 
L 349.27534 19.163077 
" clip-path="url(#pe9451e773f)" style="fill: none; stroke: #808080"/>
    <path d="M 242.939677 73.661538 
L 242.939677 63.027692 
" clip-path="url(#pe9451e773f)" style="fill: none; stroke: #808080"/>
    <path d="M 84.109193 152.352 
L 84.109193 142.781538 
" clip-path="url(#pe9451e773f)" style="fill: none; stroke: #808080"/>
    <path d="M 284.66633 58.508308 
L 284.66633 43.620923 
" clip-path="url(#pe9451e773f)" style="fill: none; stroke: #808080"/>
    <path d="M 272.55214 44.418462 
L 272.55214 24.745846 
" clip-path="url(#pe9451e773f)" style="fill: none; stroke: #808080"/>
    <path d="M 253.707845 65.420308 
L 253.707845 52.128 
" clip-path="url(#pe9451e773f)" style="fill: none; stroke: #808080"/>
    <path d="M 87.698582 145.174154 
L 87.698582 136.135385 
" clip-path="url(#pe9451e773f)" style="fill: none; stroke: #808080"/>
    <path d="M 174.741277 64.888615 
L 174.741277 52.128 
" clip-path="url(#pe9451e773f)" style="fill: none; stroke: #808080"/>
    <path d="M 218.711298 74.459077 
L 218.711298 64.356923 
" clip-path="url(#pe9451e773f)" style="fill: none; stroke: #808080"/>
    <path d="M 199.867003 88.548923 
L 199.867003 78.978462 
" clip-path="url(#pe9451e773f)" style="fill: none; stroke: #808080"/>
    <path d="M 301.71593 56.381538 
L 301.71593 44.152615 
" clip-path="url(#pe9451e773f)" style="fill: none; stroke: #808080"/>
    <path d="M 281.525614 59.571692 
L 281.525614 48.406154 
" clip-path="url(#pe9451e773f)" style="fill: none; stroke: #808080"/>
    <path d="M 150.512898 107.424 
L 150.512898 97.853538 
" clip-path="url(#pe9451e773f)" style="fill: none; stroke: #808080"/>
    <path d="M 266.719382 65.420308 
L 266.719382 53.723077 
" clip-path="url(#pe9451e773f)" style="fill: none; stroke: #808080"/>
    <path d="M 208.840477 84.827077 
L 208.840477 68.876308 
" clip-path="url(#pe9451e773f)" style="fill: none; stroke: #808080"/>
    <path d="M 267.61673 75.788308 
L 267.61673 64.091077 
" clip-path="url(#pe9451e773f)" style="fill: none; stroke: #808080"/>
    <path d="M 193.585572 89.080615 
L 193.585572 78.446769 
" clip-path="url(#pe9451e773f)" style="fill: none; stroke: #808080"/>
    <path d="M 379.336477 43.089231 
L 379.336477 31.392 
" clip-path="url(#pe9451e773f)" style="fill: none; stroke: #808080"/>
   </g>
   <g id="LineCollection_2">
    <path d="M 174.741277 64.888615 
L 174.741277 52.128 
" clip-path="url(#pe9451e773f)" style="fill: none; stroke: #808080"/>
   </g>
   <g id="line2d_7">
    <path d="M 84.109193 141.24577 
L 89.724126 136.750122 
L 95.634582 132.312719 
L 101.840561 127.937939 
L 108.342063 123.628851 
L 115.139087 119.387486 
L 122.527158 115.046373 
L 130.210751 110.793793 
L 138.189866 106.627596 
L 146.760028 102.403898 
L 155.921235 98.143745 
L 165.377965 93.991188 
L 175.42574 89.821389 
L 186.064561 85.648459 
L 197.294428 81.484368 
L 209.11534 77.339212 
L 221.527298 73.221455 
L 234.825824 69.047902 
L 248.715396 64.924251 
L 263.491537 60.77359 
L 278.858723 56.688307 
L 295.112477 52.597528 
L 312.2528 48.513692 
L 330.279691 44.447442 
L 349.488673 40.34641 
L 369.584224 36.286133 
L 379.336477 34.393358 
L 379.336477 34.393358 
" clip-path="url(#pe9451e773f)" style="fill: none; stroke: #7abef6; stroke-width: 1.4; stroke-linecap: square"/>
   </g>
   <g id="line2d_8">
    <defs>
     <path id="m2a330da2b5" d="M 0 1.5 
C 0.397805 1.5 0.77937 1.341951 1.06066 1.06066 
C 1.341951 0.77937 1.5 0.397805 1.5 0 
C 1.5 -0.397805 1.341951 -0.77937 1.06066 -1.06066 
C 0.77937 -1.341951 0.397805 -1.5 0 -1.5 
C -0.397805 -1.5 -0.77937 -1.341951 -1.06066 -1.06066 
C -1.341951 -0.77937 -1.5 -0.397805 -1.5 0 
C -1.5 0.397805 -1.341951 0.77937 -1.06066 1.06066 
C -0.77937 1.341951 -0.397805 1.5 0 1.5 
z
" style="stroke: #000000"/>
    </defs>
    <g clip-path="url(#pe9451e773f)">
     <use xlink:href="#m2a330da2b5" x="212.429866" y="69.408" style="stroke: #000000"/>
     <use xlink:href="#m2a330da2b5" x="165.767803" y="88.814769" style="stroke: #000000"/>
     <use xlink:href="#m2a330da2b5" x="197.623635" y="95.460923" style="stroke: #000000"/>
     <use xlink:href="#m2a330da2b5" x="174.741277" y="106.360615" style="stroke: #000000"/>
     <use xlink:href="#m2a330da2b5" x="195.380266" y="84.295385" style="stroke: #000000"/>
     <use xlink:href="#m2a330da2b5" x="173.84393" y="92.004923" style="stroke: #000000"/>
     <use xlink:href="#m2a330da2b5" x="176.535972" y="83.497846" style="stroke: #000000"/>
     <use xlink:href="#m2a330da2b5" x="210.186498" y="67.812923" style="stroke: #000000"/>
     <use xlink:href="#m2a330da2b5" x="215.570582" y="63.559385" style="stroke: #000000"/>
     <use xlink:href="#m2a330da2b5" x="230.376814" y="53.457231" style="stroke: #000000"/>
     <use xlink:href="#m2a330da2b5" x="300.818582" y="65.154462" style="stroke: #000000"/>
     <use xlink:href="#m2a330da2b5" x="186.406793" y="89.346462" style="stroke: #000000"/>
     <use xlink:href="#m2a330da2b5" x="282.871635" y="67.281231" style="stroke: #000000"/>
     <use xlink:href="#m2a330da2b5" x="222.300687" y="73.395692" style="stroke: #000000"/>
     <use xlink:href="#m2a330da2b5" x="208.840477" y="85.358769" style="stroke: #000000"/>
     <use xlink:href="#m2a330da2b5" x="181.022709" y="81.636923" style="stroke: #000000"/>
     <use xlink:href="#m2a330da2b5" x="262.681319" y="65.154462" style="stroke: #000000"/>
     <use xlink:href="#m2a330da2b5" x="226.787424" y="69.673846" style="stroke: #000000"/>
     <use xlink:href="#m2a330da2b5" x="229.030793" y="76.851692" style="stroke: #000000"/>
     <use xlink:href="#m2a330da2b5" x="301.267256" y="57.179077" style="stroke: #000000"/>
     <use xlink:href="#m2a330da2b5" x="378.43913" y="28.467692" style="stroke: #000000"/>
     <use xlink:href="#m2a330da2b5" x="208.840477" y="67.812923" style="stroke: #000000"/>
     <use xlink:href="#m2a330da2b5" x="199.867003" y="68.876308" style="stroke: #000000"/>
     <use xlink:href="#m2a330da2b5" x="267.168056" y="60.103385" style="stroke: #000000"/>
     <use xlink:href="#m2a330da2b5" x="349.27534" y="33.252923" style="stroke: #000000"/>
     <use xlink:href="#m2a330da2b5" x="242.939677" y="68.344615" style="stroke: #000000"/>
     <use xlink:href="#m2a330da2b5" x="84.109193" y="147.566769" style="stroke: #000000"/>
     <use xlink:href="#m2a330da2b5" x="284.66633" y="51.064615" style="stroke: #000000"/>
     <use xlink:href="#m2a330da2b5" x="272.55214" y="34.582154" style="stroke: #000000"/>
     <use xlink:href="#m2a330da2b5" x="253.707845" y="58.774154" style="stroke: #000000"/>
     <use xlink:href="#m2a330da2b5" x="87.698582" y="140.654769" style="stroke: #000000"/>
     <use xlink:href="#m2a330da2b5" x="174.741277" y="58.508308" style="stroke: #000000"/>
     <use xlink:href="#m2a330da2b5" x="218.711298" y="69.408" style="stroke: #000000"/>
     <use xlink:href="#m2a330da2b5" x="199.867003" y="83.763692" style="stroke: #000000"/>
     <use xlink:href="#m2a330da2b5" x="301.71593" y="50.267077" style="stroke: #000000"/>
     <use xlink:href="#m2a330da2b5" x="281.525614" y="53.988923" style="stroke: #000000"/>
     <use xlink:href="#m2a330da2b5" x="150.512898" y="102.638769" style="stroke: #000000"/>
     <use xlink:href="#m2a330da2b5" x="266.719382" y="59.571692" style="stroke: #000000"/>
     <use xlink:href="#m2a330da2b5" x="208.840477" y="76.851692" style="stroke: #000000"/>
     <use xlink:href="#m2a330da2b5" x="267.61673" y="69.939692" style="stroke: #000000"/>
     <use xlink:href="#m2a330da2b5" x="193.585572" y="83.763692" style="stroke: #000000"/>
     <use xlink:href="#m2a330da2b5" x="379.336477" y="37.240615" style="stroke: #000000"/>
    </g>
   </g>
   <g id="line2d_9">
    <defs>
     <path id="m0212ec32b5" d="M 0 1.5 
C 0.397805 1.5 0.77937 1.341951 1.06066 1.06066 
C 1.341951 0.77937 1.5 0.397805 1.5 0 
C 1.5 -0.397805 1.341951 -0.77937 1.06066 -1.06066 
C 0.77937 -1.341951 0.397805 -1.5 0 -1.5 
C -0.397805 -1.5 -0.77937 -1.341951 -1.06066 -1.06066 
C -1.341951 -0.77937 -1.5 -0.397805 -1.5 0 
C -1.5 0.397805 -1.341951 0.77937 -1.06066 1.06066 
C -0.77937 1.341951 -0.397805 1.5 0 1.5 
z
" style="stroke: #b134f4"/>
    </defs>
    <g clip-path="url(#pe9451e773f)">
     <use xlink:href="#m0212ec32b5" x="174.741277" y="58.508308" style="fill: #b134f4; stroke: #b134f4"/>
    </g>
   </g>
   <g id="patch_3">
    <path d="M 51.804688 159.264 
L 51.804688 7.2 
" style="fill: none; stroke: #000000; stroke-width: 0.8; stroke-linejoin: miter; stroke-linecap: square"/>
   </g>
   <g id="patch_4">
    <path d="M 392.796688 159.264 
L 392.796688 7.2 
" style="fill: none; stroke: #000000; stroke-width: 0.8; stroke-linejoin: miter; stroke-linecap: square"/>
   </g>
   <g id="patch_5">
    <path d="M 51.804688 159.264 
L 392.796688 159.264 
" style="fill: none; stroke: #000000; stroke-width: 0.8; stroke-linejoin: miter; stroke-linecap: square"/>
   </g>
   <g id="patch_6">
    <path d="M 51.804688 7.2 
L 392.796688 7.2 
" style="fill: none; stroke: #000000; stroke-width: 0.8; stroke-linejoin: miter; stroke-linecap: square"/>
   </g>
   <g id="text_8">
    <!-- $\chi^2_{min}=81.3$ -->
    <g transform="translate(231.274161 114.867692) scale(0.15 -0.15)">
     <defs>
      <path id="DejaVuSans-Oblique-3c7" d="M 1922 -781 
L 1691 416 
L 394 -1334 
L -284 -1334 
L 1553 1141 
L 1269 2613 
Q 1194 3006 713 3006 
L 559 3006 
L 653 3500 
L 872 3494 
Q 1675 3472 1775 2950 
L 2006 1753 
L 3303 3503 
L 3981 3503 
L 2144 1028 
L 2428 -444 
Q 2503 -838 2984 -838 
L 3138 -838 
L 3044 -1331 
L 2825 -1325 
Q 2022 -1303 1922 -781 
z
" transform="scale(0.015625)"/>
      <path id="DejaVuSans-Oblique-69" d="M 1172 4863 
L 1747 4863 
L 1606 4134 
L 1031 4134 
L 1172 4863 
z
M 909 3500 
L 1484 3500 
L 800 0 
L 225 0 
L 909 3500 
z
" transform="scale(0.015625)"/>
      <path id="DejaVuSans-Oblique-6e" d="M 3566 2113 
L 3156 0 
L 2578 0 
L 2988 2091 
Q 3016 2238 3031 2350 
Q 3047 2463 3047 2528 
Q 3047 2791 2881 2937 
Q 2716 3084 2419 3084 
Q 1956 3084 1622 2776 
Q 1288 2469 1184 1941 
L 800 0 
L 225 0 
L 903 3500 
L 1478 3500 
L 1363 2950 
Q 1603 3253 1940 3418 
Q 2278 3584 2650 3584 
Q 3113 3584 3367 3334 
Q 3622 3084 3622 2631 
Q 3622 2519 3608 2391 
Q 3594 2263 3566 2113 
z
" transform="scale(0.015625)"/>
      <path id="DejaVuSans-3d" d="M 678 2906 
L 4684 2906 
L 4684 2381 
L 678 2381 
L 678 2906 
z
M 678 1631 
L 4684 1631 
L 4684 1100 
L 678 1100 
L 678 1631 
z
" transform="scale(0.015625)"/>
      <path id="DejaVuSans-38" d="M 2034 2216 
Q 1584 2216 1326 1975 
Q 1069 1734 1069 1313 
Q 1069 891 1326 650 
Q 1584 409 2034 409 
Q 2484 409 2743 651 
Q 3003 894 3003 1313 
Q 3003 1734 2745 1975 
Q 2488 2216 2034 2216 
z
M 1403 2484 
Q 997 2584 770 2862 
Q 544 3141 544 3541 
Q 544 4100 942 4425 
Q 1341 4750 2034 4750 
Q 2731 4750 3128 4425 
Q 3525 4100 3525 3541 
Q 3525 3141 3298 2862 
Q 3072 2584 2669 2484 
Q 3125 2378 3379 2068 
Q 3634 1759 3634 1313 
Q 3634 634 3220 271 
Q 2806 -91 2034 -91 
Q 1263 -91 848 271 
Q 434 634 434 1313 
Q 434 1759 690 2068 
Q 947 2378 1403 2484 
z
M 1172 3481 
Q 1172 3119 1398 2916 
Q 1625 2713 2034 2713 
Q 2441 2713 2670 2916 
Q 2900 3119 2900 3481 
Q 2900 3844 2670 4047 
Q 2441 4250 2034 4250 
Q 1625 4250 1398 4047 
Q 1172 3844 1172 3481 
z
" transform="scale(0.015625)"/>
      <path id="DejaVuSans-2e" d="M 684 794 
L 1344 794 
L 1344 0 
L 684 0 
L 684 794 
z
" transform="scale(0.015625)"/>
     </defs>
     <use xlink:href="#DejaVuSans-Oblique-3c7" transform="translate(0 0.701562)"/>
     <use xlink:href="#DejaVuSans-32" transform="translate(63.652396 39.046875) scale(0.7)"/>
     <use xlink:href="#DejaVuSans-Oblique-6d" transform="translate(59.179688 -26.642188) scale(0.7)"/>
     <use xlink:href="#DejaVuSans-Oblique-69" transform="translate(127.368164 -26.642188) scale(0.7)"/>
     <use xlink:href="#DejaVuSans-Oblique-6e" transform="translate(146.816406 -26.642188) scale(0.7)"/>
     <use xlink:href="#DejaVuSans-3d" transform="translate(213.398438 0.701562)"/>
     <use xlink:href="#DejaVuSans-38" transform="translate(316.669922 0.701562)"/>
     <use xlink:href="#DejaVuSans-31" transform="translate(380.292969 0.701562)"/>
     <use xlink:href="#DejaVuSans-2e" transform="translate(443.916016 0.701562)"/>
     <use xlink:href="#DejaVuSans-33" transform="translate(475.703125 0.701562)"/>
    </g>
   </g>
   <g id="text_9">
    <!-- DoF = 41 -->
    <g transform="translate(231.274161 133.476923) scale(0.15 -0.15)">
     <defs>
      <path id="DejaVuSans-44" d="M 1259 4147 
L 1259 519 
L 2022 519 
Q 2988 519 3436 956 
Q 3884 1394 3884 2338 
Q 3884 3275 3436 3711 
Q 2988 4147 2022 4147 
L 1259 4147 
z
M 628 4666 
L 1925 4666 
Q 3281 4666 3915 4102 
Q 4550 3538 4550 2338 
Q 4550 1131 3912 565 
Q 3275 0 1925 0 
L 628 0 
L 628 4666 
z
" transform="scale(0.015625)"/>
      <path id="DejaVuSans-6f" d="M 1959 3097 
Q 1497 3097 1228 2736 
Q 959 2375 959 1747 
Q 959 1119 1226 758 
Q 1494 397 1959 397 
Q 2419 397 2687 759 
Q 2956 1122 2956 1747 
Q 2956 2369 2687 2733 
Q 2419 3097 1959 3097 
z
M 1959 3584 
Q 2709 3584 3137 3096 
Q 3566 2609 3566 1747 
Q 3566 888 3137 398 
Q 2709 -91 1959 -91 
Q 1206 -91 779 398 
Q 353 888 353 1747 
Q 353 2609 779 3096 
Q 1206 3584 1959 3584 
z
" transform="scale(0.015625)"/>
      <path id="DejaVuSans-46" d="M 628 4666 
L 3309 4666 
L 3309 4134 
L 1259 4134 
L 1259 2759 
L 3109 2759 
L 3109 2228 
L 1259 2228 
L 1259 0 
L 628 0 
L 628 4666 
z
" transform="scale(0.015625)"/>
      <path id="DejaVuSans-20" transform="scale(0.015625)"/>
     </defs>
     <use xlink:href="#DejaVuSans-44"/>
     <use xlink:href="#DejaVuSans-6f" x="77.001953"/>
     <use xlink:href="#DejaVuSans-46" x="138.183594"/>
     <use xlink:href="#DejaVuSans-20" x="195.703125"/>
     <use xlink:href="#DejaVuSans-3d" x="227.490234"/>
     <use xlink:href="#DejaVuSans-20" x="311.279297"/>
     <use xlink:href="#DejaVuSans-34" x="343.066406"/>
     <use xlink:href="#DejaVuSans-31" x="406.689453"/>
    </g>
   </g>
   <g id="text_10">
    <!-- $\chi^2_{reduced}=1.98$ -->
    <g transform="translate(231.274161 150.756923) scale(0.15 -0.15)">
     <defs>
      <path id="DejaVuSans-Oblique-72" d="M 2853 2969 
Q 2766 3016 2653 3041 
Q 2541 3066 2413 3066 
Q 1953 3066 1609 2717 
Q 1266 2369 1153 1784 
L 800 0 
L 225 0 
L 909 3500 
L 1484 3500 
L 1375 2956 
Q 1603 3259 1920 3421 
Q 2238 3584 2597 3584 
Q 2691 3584 2781 3573 
Q 2872 3563 2963 3538 
L 2853 2969 
z
" transform="scale(0.015625)"/>
      <path id="DejaVuSans-Oblique-64" d="M 2675 525 
Q 2444 222 2128 65 
Q 1813 -91 1428 -91 
Q 903 -91 598 267 
Q 294 625 294 1247 
Q 294 1766 478 2236 
Q 663 2706 1013 3078 
Q 1244 3325 1534 3454 
Q 1825 3584 2144 3584 
Q 2481 3584 2739 3421 
Q 2997 3259 3138 2956 
L 3513 4863 
L 4091 4863 
L 3144 0 
L 2566 0 
L 2675 525 
z
M 891 1350 
Q 891 897 1095 644 
Q 1300 391 1663 391 
Q 1931 391 2161 520 
Q 2391 650 2566 903 
Q 2750 1166 2856 1509 
Q 2963 1853 2963 2188 
Q 2963 2622 2758 2865 
Q 2553 3109 2194 3109 
Q 1922 3109 1687 2981 
Q 1453 2853 1288 2613 
Q 1106 2353 998 2009 
Q 891 1666 891 1350 
z
" transform="scale(0.015625)"/>
      <path id="DejaVuSans-Oblique-75" d="M 428 1388 
L 838 3500 
L 1416 3500 
L 1006 1409 
Q 975 1256 961 1147 
Q 947 1038 947 966 
Q 947 700 1109 554 
Q 1272 409 1569 409 
Q 2031 409 2368 721 
Q 2706 1034 2809 1563 
L 3194 3500 
L 3769 3500 
L 3091 0 
L 2516 0 
L 2631 550 
Q 2388 244 2052 76 
Q 1716 -91 1338 -91 
Q 878 -91 622 161 
Q 366 413 366 863 
Q 366 956 381 1097 
Q 397 1238 428 1388 
z
" transform="scale(0.015625)"/>
      <path id="DejaVuSans-Oblique-63" d="M 3431 3366 
L 3316 2797 
Q 3109 2947 2876 3022 
Q 2644 3097 2394 3097 
Q 2119 3097 1870 3000 
Q 1622 2903 1453 2725 
Q 1184 2453 1037 2087 
Q 891 1722 891 1331 
Q 891 859 1127 628 
Q 1363 397 1844 397 
Q 2081 397 2348 469 
Q 2616 541 2906 684 
L 2797 116 
Q 2547 13 2283 -39 
Q 2019 -91 1741 -91 
Q 1044 -91 669 257 
Q 294 606 294 1253 
Q 294 1797 489 2255 
Q 684 2713 1069 3078 
Q 1331 3328 1684 3456 
Q 2038 3584 2456 3584 
Q 2700 3584 2940 3529 
Q 3181 3475 3431 3366 
z
" transform="scale(0.015625)"/>
      <path id="DejaVuSans-39" d="M 703 97 
L 703 672 
Q 941 559 1184 500 
Q 1428 441 1663 441 
Q 2288 441 2617 861 
Q 2947 1281 2994 2138 
Q 2813 1869 2534 1725 
Q 2256 1581 1919 1581 
Q 1219 1581 811 2004 
Q 403 2428 403 3163 
Q 403 3881 828 4315 
Q 1253 4750 1959 4750 
Q 2769 4750 3195 4129 
Q 3622 3509 3622 2328 
Q 3622 1225 3098 567 
Q 2575 -91 1691 -91 
Q 1453 -91 1209 -44 
Q 966 3 703 97 
z
M 1959 2075 
Q 2384 2075 2632 2365 
Q 2881 2656 2881 3163 
Q 2881 3666 2632 3958 
Q 2384 4250 1959 4250 
Q 1534 4250 1286 3958 
Q 1038 3666 1038 3163 
Q 1038 2656 1286 2365 
Q 1534 2075 1959 2075 
z
" transform="scale(0.015625)"/>
     </defs>
     <use xlink:href="#DejaVuSans-Oblique-3c7" transform="translate(0 0.701562)"/>
     <use xlink:href="#DejaVuSans-32" transform="translate(63.652396 39.046875) scale(0.7)"/>
     <use xlink:href="#DejaVuSans-Oblique-72" transform="translate(59.179688 -26.642188) scale(0.7)"/>
     <use xlink:href="#DejaVuSans-Oblique-65" transform="translate(87.958984 -26.642188) scale(0.7)"/>
     <use xlink:href="#DejaVuSans-Oblique-64" transform="translate(131.025391 -26.642188) scale(0.7)"/>
     <use xlink:href="#DejaVuSans-Oblique-75" transform="translate(175.458984 -26.642188) scale(0.7)"/>
     <use xlink:href="#DejaVuSans-Oblique-63" transform="translate(219.824219 -26.642188) scale(0.7)"/>
     <use xlink:href="#DejaVuSans-Oblique-65" transform="translate(258.310547 -26.642188) scale(0.7)"/>
     <use xlink:href="#DejaVuSans-Oblique-64" transform="translate(301.376953 -26.642188) scale(0.7)"/>
     <use xlink:href="#DejaVuSans-3d" transform="translate(368.027344 0.701562)"/>
     <use xlink:href="#DejaVuSans-31" transform="translate(471.298828 0.701562)"/>
     <use xlink:href="#DejaVuSans-2e" transform="translate(534.921875 0.701562)"/>
     <use xlink:href="#DejaVuSans-39" transform="translate(566.708984 0.701562)"/>
     <use xlink:href="#DejaVuSans-38" transform="translate(630.332031 0.701562)"/>
    </g>
   </g>
  </g>
  <g id="axes_2">
   <g id="patch_7">
    <path d="M 51.804688 218.016 
L 392.796688 218.016 
L 392.796688 166.176 
L 51.804688 166.176 
z
" style="fill: #ffffff"/>
   </g>
   <g id="PathCollection_1">
    <defs>
     <path id="m30987e4969" d="M 0 1.224745 
C 0.324806 1.224745 0.636353 1.095698 0.866025 0.866025 
C 1.095698 0.636353 1.224745 0.324806 1.224745 0 
C 1.224745 -0.324806 1.095698 -0.636353 0.866025 -0.866025 
C 0.636353 -1.095698 0.324806 -1.224745 0 -1.224745 
C -0.324806 -1.224745 -0.636353 -1.095698 -0.866025 -0.866025 
C -1.095698 -0.636353 -1.224745 -0.324806 -1.224745 0 
C -1.224745 0.324806 -1.095698 0.636353 -0.866025 0.866025 
C -0.636353 1.095698 -0.324806 1.224745 0 1.224745 
z
" style="stroke: #000000"/>
    </defs>
    <g clip-path="url(#p9a16575efd)">
     <use xlink:href="#m30987e4969" x="212.429866" y="194.648787" style="stroke: #000000"/>
     <use xlink:href="#m30987e4969" x="165.767803" y="194.566498" style="stroke: #000000"/>
     <use xlink:href="#m30987e4969" x="197.623635" y="204.08856" style="stroke: #000000"/>
     <use xlink:href="#m30987e4969" x="174.741277" y="213.872126" style="stroke: #000000"/>
     <use xlink:href="#m30987e4969" x="195.380266" y="199.691192" style="stroke: #000000"/>
     <use xlink:href="#m30987e4969" x="173.84393" y="199.527044" style="stroke: #000000"/>
     <use xlink:href="#m30987e4969" x="176.535972" y="194.414564" style="stroke: #000000"/>
     <use xlink:href="#m30987e4969" x="210.186498" y="189.915752" style="stroke: #000000"/>
     <use xlink:href="#m30987e4969" x="215.570582" y="189.471061" style="stroke: #000000"/>
     <use xlink:href="#m30987e4969" x="230.376814" y="183.156348" style="stroke: #000000"/>
     <use xlink:href="#m30987e4969" x="300.818582" y="212.240051" style="stroke: #000000"/>
     <use xlink:href="#m30987e4969" x="186.406793" y="202.221736" style="stroke: #000000"/>
     <use xlink:href="#m30987e4969" x="282.871635" y="207.930079" style="stroke: #000000"/>
     <use xlink:href="#m30987e4969" x="222.300687" y="198.238279" style="stroke: #000000"/>
     <use xlink:href="#m30987e4969" x="208.840477" y="205.322283" style="stroke: #000000"/>
     <use xlink:href="#m30987e4969" x="181.022709" y="191.399483" style="stroke: #000000"/>
     <use xlink:href="#m30987e4969" x="262.681319" y="201.952136" style="stroke: #000000"/>
     <use xlink:href="#m30987e4969" x="226.787424" y="195.831454" style="stroke: #000000"/>
     <use xlink:href="#m30987e4969" x="229.030793" y="204.713724" style="stroke: #000000"/>
     <use xlink:href="#m30987e4969" x="301.267256" y="202.556014" style="stroke: #000000"/>
     <use xlink:href="#m30987e4969" x="378.43913" y="195.409347" style="stroke: #000000"/>
     <use xlink:href="#m30987e4969" x="208.840477" y="188.793587" style="stroke: #000000"/>
     <use xlink:href="#m30987e4969" x="199.867003" y="186.34696" style="stroke: #000000"/>
     <use xlink:href="#m30987e4969" x="267.168056" y="198.1647" style="stroke: #000000"/>
     <use xlink:href="#m30987e4969" x="349.27534" y="194.938028" style="stroke: #000000"/>
     <use xlink:href="#m30987e4969" x="242.939677" y="199.733593" style="stroke: #000000"/>
     <use xlink:href="#m30987e4969" x="84.109193" y="205.464611" style="stroke: #000000"/>
     <use xlink:href="#m30987e4969" x="284.66633" y="194.655411" style="stroke: #000000"/>
     <use xlink:href="#m30987e4969" x="272.55214" y="183.944953" style="stroke: #000000"/>
     <use xlink:href="#m30987e4969" x="253.707845" y="193.763797" style="stroke: #000000"/>
     <use xlink:href="#m30987e4969" x="87.698582" y="200.808211" style="stroke: #000000"/>
     <use xlink:href="#m30987e4969" x="174.741277" y="169.337449" style="stroke: #000000"/>
     <use xlink:href="#m30987e4969" x="218.711298" y="192.464472" style="stroke: #000000"/>
     <use xlink:href="#m30987e4969" x="199.867003" y="201.709396" style="stroke: #000000"/>
     <use xlink:href="#m30987e4969" x="301.71593" y="197.167841" style="stroke: #000000"/>
     <use xlink:href="#m30987e4969" x="281.525614" y="195.779496" style="stroke: #000000"/>
     <use xlink:href="#m30987e4969" x="150.512898" y="200.27559" style="stroke: #000000"/>
     <use xlink:href="#m30987e4969" x="266.719382" y="197.53586" style="stroke: #000000"/>
     <use xlink:href="#m30987e4969" x="208.840477" y="197.43615" style="stroke: #000000"/>
     <use xlink:href="#m30987e4969" x="267.61673" y="207.985047" style="stroke: #000000"/>
     <use xlink:href="#m30987e4969" x="193.585572" y="198.863179" style="stroke: #000000"/>
     <use xlink:href="#m30987e4969" x="379.336477" y="200.660117" style="stroke: #000000"/>
    </g>
   </g>
   <g id="PathCollection_2">
    <defs>
     <path id="m9b8094cdee" d="M 0 1.224745 
C 0.324806 1.224745 0.636353 1.095698 0.866025 0.866025 
C 1.095698 0.636353 1.224745 0.324806 1.224745 0 
C 1.224745 -0.324806 1.095698 -0.636353 0.866025 -0.866025 
C 0.636353 -1.095698 0.324806 -1.224745 0 -1.224745 
C -0.324806 -1.224745 -0.636353 -1.095698 -0.866025 -0.866025 
C -1.095698 -0.636353 -1.224745 -0.324806 -1.224745 0 
C -1.224745 0.324806 -1.095698 0.636353 -0.866025 0.866025 
C -0.636353 1.095698 -0.324806 1.224745 0 1.224745 
z
" style="stroke: #b134f4"/>
    </defs>
    <g clip-path="url(#p9a16575efd)">
     <use xlink:href="#m9b8094cdee" x="174.741277" y="169.337449" style="fill: #b134f4; stroke: #b134f4"/>
    </g>
   </g>
   <g id="matplotlib.axis_3">
    <g id="xtick_5">
     <g id="line2d_10">
      <defs>
       <path id="m5d02eca6ef" d="M 0 0 
L 0 3.5 
" style="stroke: #000000; stroke-width: 0.8"/>
      </defs>
      <g>
       <use xlink:href="#m5d02eca6ef" x="96.672056" y="218.016" style="stroke: #000000; stroke-width: 0.8"/>
      </g>
     </g>
     <g id="text_11">
      <!-- 0.2 -->
      <g transform="translate(84.744712 236.413656) scale(0.15 -0.15)">
       <use xlink:href="#DejaVuSans-30"/>
       <use xlink:href="#DejaVuSans-2e" x="63.623047"/>
       <use xlink:href="#DejaVuSans-32" x="95.410156"/>
      </g>
     </g>
    </g>
    <g id="xtick_6">
     <g id="line2d_11">
      <g>
       <use xlink:href="#m5d02eca6ef" x="186.406793" y="218.016" style="stroke: #000000; stroke-width: 0.8"/>
      </g>
     </g>
     <g id="text_12">
      <!-- 0.4 -->
      <g transform="translate(174.479449 236.413656) scale(0.15 -0.15)">
       <use xlink:href="#DejaVuSans-30"/>
       <use xlink:href="#DejaVuSans-2e" x="63.623047"/>
       <use xlink:href="#DejaVuSans-34" x="95.410156"/>
      </g>
     </g>
    </g>
    <g id="xtick_7">
     <g id="line2d_12">
      <g>
       <use xlink:href="#m5d02eca6ef" x="276.14153" y="218.016" style="stroke: #000000; stroke-width: 0.8"/>
      </g>
     </g>
     <g id="text_13">
      <!-- 0.6 -->
      <g transform="translate(264.214186 236.413656) scale(0.15 -0.15)">
       <defs>
        <path id="DejaVuSans-36" d="M 2113 2584 
Q 1688 2584 1439 2293 
Q 1191 2003 1191 1497 
Q 1191 994 1439 701 
Q 1688 409 2113 409 
Q 2538 409 2786 701 
Q 3034 994 3034 1497 
Q 3034 2003 2786 2293 
Q 2538 2584 2113 2584 
z
M 3366 4563 
L 3366 3988 
Q 3128 4100 2886 4159 
Q 2644 4219 2406 4219 
Q 1781 4219 1451 3797 
Q 1122 3375 1075 2522 
Q 1259 2794 1537 2939 
Q 1816 3084 2150 3084 
Q 2853 3084 3261 2657 
Q 3669 2231 3669 1497 
Q 3669 778 3244 343 
Q 2819 -91 2113 -91 
Q 1303 -91 875 529 
Q 447 1150 447 2328 
Q 447 3434 972 4092 
Q 1497 4750 2381 4750 
Q 2619 4750 2861 4703 
Q 3103 4656 3366 4563 
z
" transform="scale(0.015625)"/>
       </defs>
       <use xlink:href="#DejaVuSans-30"/>
       <use xlink:href="#DejaVuSans-2e" x="63.623047"/>
       <use xlink:href="#DejaVuSans-36" x="95.410156"/>
      </g>
     </g>
    </g>
    <g id="xtick_8">
     <g id="line2d_13">
      <g>
       <use xlink:href="#m5d02eca6ef" x="365.876266" y="218.016" style="stroke: #000000; stroke-width: 0.8"/>
      </g>
     </g>
     <g id="text_14">
      <!-- 0.8 -->
      <g transform="translate(353.948923 236.413656) scale(0.15 -0.15)">
       <use xlink:href="#DejaVuSans-30"/>
       <use xlink:href="#DejaVuSans-2e" x="63.623047"/>
       <use xlink:href="#DejaVuSans-38" x="95.410156"/>
      </g>
     </g>
    </g>
    <g id="text_15">
     <!-- $Redshift (z)$ -->
     <g transform="translate(181.575688 254.930844) scale(0.15 -0.15)">
      <defs>
       <path id="DejaVuSans-Oblique-52" d="M 1613 4147 
L 1294 2491 
L 2106 2491 
Q 2584 2491 2879 2755 
Q 3175 3019 3175 3444 
Q 3175 3784 2976 3965 
Q 2778 4147 2406 4147 
L 1613 4147 
z
M 2772 2241 
Q 2972 2194 3105 2009 
Q 3238 1825 3413 1275 
L 3809 0 
L 3144 0 
L 2778 1197 
Q 2638 1659 2453 1815 
Q 2269 1972 1888 1972 
L 1191 1972 
L 806 0 
L 172 0 
L 1081 4666 
L 2503 4666 
Q 3150 4666 3495 4373 
Q 3841 4081 3841 3531 
Q 3841 3044 3547 2687 
Q 3253 2331 2772 2241 
z
" transform="scale(0.015625)"/>
       <path id="DejaVuSans-Oblique-73" d="M 3200 3397 
L 3091 2853 
Q 2863 2978 2609 3040 
Q 2356 3103 2088 3103 
Q 1634 3103 1373 2948 
Q 1113 2794 1113 2528 
Q 1113 2219 1719 2053 
Q 1766 2041 1788 2034 
L 1972 1978 
Q 2547 1819 2739 1644 
Q 2931 1469 2931 1166 
Q 2931 609 2489 259 
Q 2047 -91 1331 -91 
Q 1053 -91 747 -37 
Q 441 16 72 128 
L 184 722 
Q 500 559 806 475 
Q 1113 391 1394 391 
Q 1816 391 2080 572 
Q 2344 753 2344 1031 
Q 2344 1331 1650 1516 
L 1591 1531 
L 1394 1581 
Q 956 1697 753 1886 
Q 550 2075 550 2369 
Q 550 2928 970 3256 
Q 1391 3584 2113 3584 
Q 2397 3584 2667 3537 
Q 2938 3491 3200 3397 
z
" transform="scale(0.015625)"/>
       <path id="DejaVuSans-Oblique-68" d="M 3566 2113 
L 3156 0 
L 2578 0 
L 2988 2091 
Q 3016 2238 3031 2350 
Q 3047 2463 3047 2528 
Q 3047 2791 2881 2937 
Q 2716 3084 2419 3084 
Q 1956 3084 1617 2771 
Q 1278 2459 1178 1941 
L 800 0 
L 225 0 
L 1172 4863 
L 1747 4863 
L 1375 2950 
Q 1594 3244 1934 3414 
Q 2275 3584 2650 3584 
Q 3113 3584 3367 3334 
Q 3622 3084 3622 2631 
Q 3622 2519 3608 2391 
Q 3594 2263 3566 2113 
z
" transform="scale(0.015625)"/>
       <path id="DejaVuSans-Oblique-74" d="M 2706 3500 
L 2619 3053 
L 1472 3053 
L 1100 1153 
Q 1081 1047 1072 975 
Q 1063 903 1063 863 
Q 1063 663 1183 572 
Q 1303 481 1569 481 
L 2150 481 
L 2053 0 
L 1503 0 
Q 991 0 739 200 
Q 488 400 488 806 
Q 488 878 497 964 
Q 506 1050 525 1153 
L 897 3053 
L 409 3053 
L 500 3500 
L 978 3500 
L 1172 4494 
L 1747 4494 
L 1556 3500 
L 2706 3500 
z
" transform="scale(0.015625)"/>
       <path id="DejaVuSans-28" d="M 1984 4856 
Q 1566 4138 1362 3434 
Q 1159 2731 1159 2009 
Q 1159 1288 1364 580 
Q 1569 -128 1984 -844 
L 1484 -844 
Q 1016 -109 783 600 
Q 550 1309 550 2009 
Q 550 2706 781 3412 
Q 1013 4119 1484 4856 
L 1984 4856 
z
" transform="scale(0.015625)"/>
       <path id="DejaVuSans-Oblique-7a" d="M 744 3500 
L 3475 3500 
L 3372 2975 
L 738 459 
L 2913 459 
L 2822 0 
L -19 0 
L 84 525 
L 2719 3041 
L 653 3041 
L 744 3500 
z
" transform="scale(0.015625)"/>
       <path id="DejaVuSans-29" d="M 513 4856 
L 1013 4856 
Q 1481 4119 1714 3412 
Q 1947 2706 1947 2009 
Q 1947 1309 1714 600 
Q 1481 -109 1013 -844 
L 513 -844 
Q 928 -128 1133 580 
Q 1338 1288 1338 2009 
Q 1338 2731 1133 3434 
Q 928 4138 513 4856 
z
" transform="scale(0.015625)"/>
      </defs>
      <use xlink:href="#DejaVuSans-Oblique-52" transform="translate(0 0.015625)"/>
      <use xlink:href="#DejaVuSans-Oblique-65" transform="translate(69.482422 0.015625)"/>
      <use xlink:href="#DejaVuSans-Oblique-64" transform="translate(131.005859 0.015625)"/>
      <use xlink:href="#DejaVuSans-Oblique-73" transform="translate(194.482422 0.015625)"/>
      <use xlink:href="#DejaVuSans-Oblique-68" transform="translate(246.582031 0.015625)"/>
      <use xlink:href="#DejaVuSans-Oblique-69" transform="translate(309.960938 0.015625)"/>
      <use xlink:href="#DejaVuSans-Oblique-66" transform="translate(337.744141 0.015625)"/>
      <use xlink:href="#DejaVuSans-Oblique-74" transform="translate(372.949219 0.015625)"/>
      <use xlink:href="#DejaVuSans-28" transform="translate(412.158203 0.015625)"/>
      <use xlink:href="#DejaVuSans-Oblique-7a" transform="translate(451.171875 0.015625)"/>
      <use xlink:href="#DejaVuSans-29" transform="translate(503.662109 0.015625)"/>
     </g>
    </g>
   </g>
   <g id="matplotlib.axis_4">
    <g id="ytick_7">
     <g id="line2d_14">
      <g>
       <use xlink:href="#mb908569c73" x="51.804688" y="215.136" style="stroke: #000000; stroke-width: 0.8"/>
      </g>
     </g>
     <g id="text_16">
      <!-- −3 -->
      <g transform="translate(22.691406 220.834828) scale(0.15 -0.15)">
       <defs>
        <path id="DejaVuSans-2212" d="M 678 2272 
L 4684 2272 
L 4684 1741 
L 678 1741 
L 678 2272 
z
" transform="scale(0.015625)"/>
       </defs>
       <use xlink:href="#DejaVuSans-2212"/>
       <use xlink:href="#DejaVuSans-33" x="83.789062"/>
      </g>
     </g>
    </g>
    <g id="ytick_8">
     <g id="line2d_15">
      <g>
       <use xlink:href="#mb908569c73" x="51.804688" y="197.856" style="stroke: #000000; stroke-width: 0.8"/>
      </g>
     </g>
     <g id="text_17">
      <!-- 0 -->
      <g transform="translate(35.260937 203.554828) scale(0.15 -0.15)">
       <use xlink:href="#DejaVuSans-30"/>
      </g>
     </g>
    </g>
    <g id="ytick_9">
     <g id="line2d_16">
      <g>
       <use xlink:href="#mb908569c73" x="51.804688" y="169.056" style="stroke: #000000; stroke-width: 0.8"/>
      </g>
     </g>
     <g id="text_18">
      <!-- 5 -->
      <g transform="translate(35.260937 174.754828) scale(0.15 -0.15)">
       <use xlink:href="#DejaVuSans-35"/>
      </g>
     </g>
    </g>
   </g>
   <g id="line2d_17">
    <path d="M 51.804688 197.856 
L 392.796688 197.856 
" clip-path="url(#p9a16575efd)" style="fill: none; stroke-dasharray: 5.55,2.4; stroke-dashoffset: 0; stroke: #000000; stroke-opacity: 0.6; stroke-width: 1.5"/>
   </g>
   <g id="line2d_18">
    <path d="M 51.804688 192.096 
L 392.796688 192.096 
" clip-path="url(#p9a16575efd)" style="fill: none; stroke-dasharray: 1.5,2.475; stroke-dashoffset: 0; stroke: #000000; stroke-opacity: 0.5; stroke-width: 1.5"/>
   </g>
   <g id="line2d_19">
    <path d="M 51.804688 203.616 
L 392.796688 203.616 
" clip-path="url(#p9a16575efd)" style="fill: none; stroke-dasharray: 1.5,2.475; stroke-dashoffset: 0; stroke: #000000; stroke-opacity: 0.5; stroke-width: 1.5"/>
   </g>
   <g id="patch_8">
    <path d="M 51.804688 218.016 
L 51.804688 166.176 
" style="fill: none; stroke: #000000; stroke-width: 0.8; stroke-linejoin: miter; stroke-linecap: square"/>
   </g>
   <g id="patch_9">
    <path d="M 392.796688 218.016 
L 392.796688 166.176 
" style="fill: none; stroke: #000000; stroke-width: 0.8; stroke-linejoin: miter; stroke-linecap: square"/>
   </g>
   <g id="patch_10">
    <path d="M 51.804688 218.016 
L 392.796688 218.016 
" style="fill: none; stroke: #000000; stroke-width: 0.8; stroke-linejoin: miter; stroke-linecap: square"/>
   </g>
   <g id="patch_11">
    <path d="M 51.804688 166.176 
L 392.796688 166.176 
" style="fill: none; stroke: #000000; stroke-width: 0.8; stroke-linejoin: miter; stroke-linecap: square"/>
   </g>
  </g>
  <g id="axes_3">
   <g id="patch_12">
    <path d="M 397.404688 218.016 
L 461.916688 218.016 
L 461.916688 166.176 
L 397.404688 166.176 
z
" style="fill: #ffffff"/>
   </g>
   <g id="patch_13">
    <path d="M 397.404688 214.367038 
L 409.324424 214.367038 
L 409.324424 210.571469 
L 397.404688 210.571469 
z
" clip-path="url(#pbee42c9fd7)" style="fill: #7abef6"/>
   </g>
   <g id="patch_14">
    <path d="M 397.404688 210.571469 
L 409.324424 210.571469 
L 409.324424 206.7759 
L 397.404688 206.7759 
z
" clip-path="url(#pbee42c9fd7)" style="fill: #7abef6"/>
   </g>
   <g id="patch_15">
    <path d="M 397.404688 206.7759 
L 421.24416 206.7759 
L 421.24416 202.980331 
L 397.404688 202.980331 
z
" clip-path="url(#pbee42c9fd7)" style="fill: #7abef6"/>
   </g>
   <g id="patch_16">
    <path d="M 397.404688 202.980331 
L 457.003368 202.980331 
L 457.003368 199.184762 
L 397.404688 199.184762 
z
" clip-path="url(#pbee42c9fd7)" style="fill: #7abef6"/>
   </g>
   <g id="patch_17">
    <path d="M 397.404688 199.184762 
L 451.0435 199.184762 
L 451.0435 195.389193 
L 397.404688 195.389193 
z
" clip-path="url(#pbee42c9fd7)" style="fill: #7abef6"/>
   </g>
   <g id="patch_18">
    <path d="M 397.404688 195.389193 
L 439.123764 195.389193 
L 439.123764 191.593624 
L 397.404688 191.593624 
z
" clip-path="url(#pbee42c9fd7)" style="fill: #7abef6"/>
   </g>
   <g id="patch_19">
    <path d="M 397.404688 191.593624 
L 421.24416 191.593624 
L 421.24416 187.798055 
L 397.404688 187.798055 
z
" clip-path="url(#pbee42c9fd7)" style="fill: #7abef6"/>
   </g>
   <g id="patch_20">
    <path d="M 397.404688 187.798055 
L 403.364556 187.798055 
L 403.364556 184.002486 
L 397.404688 184.002486 
z
" clip-path="url(#pbee42c9fd7)" style="fill: #7abef6"/>
   </g>
   <g id="patch_21">
    <path d="M 397.404688 184.002486 
L 409.324424 184.002486 
L 409.324424 180.206917 
L 397.404688 180.206917 
z
" clip-path="url(#pbee42c9fd7)" style="fill: #7abef6"/>
   </g>
   <g id="patch_22">
    <path d="M 397.404688 180.206917 
L 397.404688 180.206917 
L 397.404688 176.411348 
L 397.404688 176.411348 
z
" clip-path="url(#pbee42c9fd7)" style="fill: #7abef6"/>
   </g>
   <g id="patch_23">
    <path d="M 397.404688 176.411348 
L 397.404688 176.411348 
L 397.404688 172.615779 
L 397.404688 172.615779 
z
" clip-path="url(#pbee42c9fd7)" style="fill: #7abef6"/>
   </g>
   <g id="patch_24">
    <path d="M 397.404688 172.615779 
L 403.364556 172.615779 
L 403.364556 168.820209 
L 397.404688 168.820209 
z
" clip-path="url(#pbee42c9fd7)" style="fill: #7abef6"/>
   </g>
   <g id="matplotlib.axis_5">
    <g id="xtick_9">
     <g id="line2d_20">
      <g>
       <use xlink:href="#m5d02eca6ef" x="429.660687" y="218.016" style="stroke: #000000; stroke-width: 0.8"/>
      </g>
     </g>
     <g id="text_19">
      <!-- 0.2 -->
      <g transform="translate(417.733344 236.413656) scale(0.15 -0.15)">
       <use xlink:href="#DejaVuSans-30"/>
       <use xlink:href="#DejaVuSans-2e" x="63.623047"/>
       <use xlink:href="#DejaVuSans-32" x="95.410156"/>
      </g>
     </g>
    </g>
    <g id="xtick_10">
     <g id="line2d_21">
      <g>
       <use xlink:href="#m5d02eca6ef" x="461.916688" y="218.016" style="stroke: #000000; stroke-width: 0.8"/>
      </g>
     </g>
     <g id="text_20">
      <!-- 0.4 -->
      <g transform="translate(449.989344 236.413656) scale(0.15 -0.15)">
       <use xlink:href="#DejaVuSans-30"/>
       <use xlink:href="#DejaVuSans-2e" x="63.623047"/>
       <use xlink:href="#DejaVuSans-34" x="95.410156"/>
      </g>
     </g>
    </g>
   </g>
   <g id="matplotlib.axis_6">
    <g id="ytick_10"/>
    <g id="ytick_11"/>
   </g>
   <g id="line2d_22">
    <path d="M 397.404688 197.986909 
L 461.916688 197.986909 
" clip-path="url(#pbee42c9fd7)" style="fill: none; stroke-dasharray: 5.55,2.4; stroke-dashoffset: 0; stroke: #000000; stroke-opacity: 0.6; stroke-width: 1.5"/>
   </g>
   <g id="line2d_23">
    <path d="M 397.404688 192.096 
L 461.916688 192.096 
" clip-path="url(#pbee42c9fd7)" style="fill: none; stroke-dasharray: 1.5,2.475; stroke-dashoffset: 0; stroke: #000000; stroke-opacity: 0.5; stroke-width: 1.5"/>
   </g>
   <g id="line2d_24">
    <path d="M 397.404688 203.877818 
L 461.916688 203.877818 
" clip-path="url(#pbee42c9fd7)" style="fill: none; stroke-dasharray: 1.5,2.475; stroke-dashoffset: 0; stroke: #000000; stroke-opacity: 0.5; stroke-width: 1.5"/>
   </g>
   <g id="line2d_25">
    <path d="M 401.267416 215.659636 
L 402.676833 214.480275 
L 404.452425 213.300914 
L 406.728092 212.074378 
L 409.57873 210.800668 
L 413.319965 209.385435 
L 418.353235 207.734329 
L 426.95459 205.186909 
L 434.813136 202.781012 
L 438.561673 201.412953 
L 440.925387 200.327941 
L 442.379054 199.431627 
L 443.212059 198.676835 
L 443.629485 198.016393 
L 443.749138 197.4503 
L 443.647022 196.884206 
L 443.287908 196.270939 
L 442.619073 195.610496 
L 441.513004 194.855705 
L 439.763435 193.959391 
L 437.222159 192.921553 
L 433.359879 191.600668 
L 426.784757 189.619342 
L 415.678085 186.269956 
L 410.998811 184.61885 
L 407.61755 183.203617 
L 405.016552 181.882732 
L 403.064597 180.656197 
L 401.519594 179.429661 
L 400.329801 178.203125 
L 399.408635 176.929415 
L 398.72422 175.608531 
L 398.197479 174.098948 
L 397.818872 172.306319 
L 397.571722 169.994771 
L 397.494924 168.532364 
L 397.494924 168.532364 
" clip-path="url(#pbee42c9fd7)" style="fill: none; stroke: #000000; stroke-width: 1.5; stroke-linecap: square"/>
   </g>
   <g id="patch_25">
    <path d="M 397.404688 218.016 
L 397.404688 166.176 
" style="fill: none; stroke: #000000; stroke-width: 0.8; stroke-linejoin: miter; stroke-linecap: square"/>
   </g>
   <g id="patch_26">
    <path d="M 461.916688 218.016 
L 461.916688 166.176 
" style="fill: none; stroke: #000000; stroke-width: 0.8; stroke-linejoin: miter; stroke-linecap: square"/>
   </g>
   <g id="patch_27">
    <path d="M 397.404688 218.016 
L 461.916688 218.016 
" style="fill: none; stroke: #000000; stroke-width: 0.8; stroke-linejoin: miter; stroke-linecap: square"/>
   </g>
   <g id="patch_28">
    <path d="M 397.404688 166.176 
L 461.916688 166.176 
" style="fill: none; stroke: #000000; stroke-width: 0.8; stroke-linejoin: miter; stroke-linecap: square"/>
   </g>
  </g>
 </g>
 <defs>
  <clipPath id="pe9451e773f">
   <rect x="51.804688" y="7.2" width="340.992" height="152.064"/>
  </clipPath>
  <clipPath id="p9a16575efd">
   <rect x="51.804688" y="166.176" width="340.992" height="51.84"/>
  </clipPath>
  <clipPath id="pbee42c9fd7">
   <rect x="397.404688" y="166.176" width="64.512" height="51.84"/>
  </clipPath>
 </defs>
</svg>
