<?xml version="1.0" encoding="utf-8" standalone="no"?>
<!DOCTYPE svg PUBLIC "-//W3C//DTD SVG 1.1//EN"
  "http://www.w3.org/Graphics/SVG/1.1/DTD/svg11.dtd">
<svg xmlns:xlink="http://www.w3.org/1999/xlink" width="493.01075pt" height="371.28125pt" viewBox="0 0 493.01075 371.28125" xmlns="http://www.w3.org/2000/svg" version="1.1">
 <metadata>
  <rdf:RDF xmlns:dc="http://purl.org/dc/elements/1.1/" xmlns:cc="http://creativecommons.org/ns#" xmlns:rdf="http://www.w3.org/1999/02/22-rdf-syntax-ns#">
   <cc:Work>
    <dc:type rdf:resource="http://purl.org/dc/dcmitype/StillImage"/>
    <dc:date>2026-03-01T19:16:23.846737</dc:date>
    <dc:format>image/svg+xml</dc:format>
    <dc:creator>
     <cc:Agent>
      <dc:title>Matplotlib v3.9.2, https://matplotlib.org/</dc:title>
     </cc:Agent>
    </dc:creator>
   </cc:Work>
  </rdf:RDF>
 </metadata>
 <defs>
  <style type="text/css">*{stroke-linejoin: round; stroke-linecap: butt}</style>
 </defs>
 <g id="figure_1">
  <g id="patch_1">
   <path d="M -0 371.28125 
L 493.01075 371.28125 
L 493.01075 0 
L -0 0 
z
" style="fill: #ffffff"/>
  </g>
  <g id="axes_1">
   <g id="patch_2">
    <path d="M 75.69875 242.208 
L 416.69075 242.208 
L 416.69075 7.2 
L 75.69875 7.2 
z
" style="fill: #ffffff"/>
   </g>
   <g id="matplotlib.axis_1">
    <g id="xtick_1"/>
    <g id="xtick_2"/>
    <g id="xtick_3"/>
    <g id="xtick_4"/>
   </g>
   <g id="matplotlib.axis_2">
    <g id="ytick_1">
     <g id="line2d_1">
      <defs>
       <path id="m577f145ea8" d="M 0 0 
L -3.5 0 
" style="stroke: #000000; stroke-width: 0.8"/>
      </defs>
      <g>
       <use xlink:href="#m577f145ea8" x="75.69875" y="213.290285" style="stroke: #000000; stroke-width: 0.8"/>
      </g>
     </g>
     <g id="text_1">
      <!-- 24.5 -->
      <g transform="translate(28.620625 220.128879) scale(0.18 -0.18)">
       <defs>
        <path id="DejaVuSans-32" d="M 1228 531 
L 3431 531 
L 3431 0 
L 469 0 
L 469 531 
Q 828 903 1448 1529 
Q 2069 2156 2228 2338 
Q 2531 2678 2651 2914 
Q 2772 3150 2772 3378 
Q 2772 3750 2511 3984 
Q 2250 4219 1831 4219 
Q 1534 4219 1204 4116 
Q 875 4013 500 3803 
L 500 4441 
Q 881 4594 1212 4672 
Q 1544 4750 1819 4750 
Q 2544 4750 2975 4387 
Q 3406 4025 3406 3419 
Q 3406 3131 3298 2873 
Q 3191 2616 2906 2266 
Q 2828 2175 2409 1742 
Q 1991 1309 1228 531 
z
" transform="scale(0.015625)"/>
        <path id="DejaVuSans-34" d="M 2419 4116 
L 825 1625 
L 2419 1625 
L 2419 4116 
z
M 2253 4666 
L 3047 4666 
L 3047 1625 
L 3713 1625 
L 3713 1100 
L 3047 1100 
L 3047 0 
L 2419 0 
L 2419 1100 
L 313 1100 
L 313 1709 
L 2253 4666 
z
" transform="scale(0.015625)"/>
        <path id="DejaVuSans-2e" d="M 684 794 
L 1344 794 
L 1344 0 
L 684 0 
L 684 794 
z
" transform="scale(0.015625)"/>
        <path id="DejaVuSans-35" d="M 691 4666 
L 3169 4666 
L 3169 4134 
L 1269 4134 
L 1269 2991 
Q 1406 3038 1543 3061 
Q 1681 3084 1819 3084 
Q 2600 3084 3056 2656 
Q 3513 2228 3513 1497 
Q 3513 744 3044 326 
Q 2575 -91 1722 -91 
Q 1428 -91 1123 -41 
Q 819 9 494 109 
L 494 744 
Q 775 591 1075 516 
Q 1375 441 1709 441 
Q 2250 441 2565 725 
Q 2881 1009 2881 1497 
Q 2881 1984 2565 2268 
Q 2250 2553 1709 2553 
Q 1456 2553 1204 2497 
Q 953 2441 691 2322 
L 691 4666 
z
" transform="scale(0.015625)"/>
       </defs>
       <use xlink:href="#DejaVuSans-32"/>
       <use xlink:href="#DejaVuSans-34" x="63.623047"/>
       <use xlink:href="#DejaVuSans-2e" x="127.246094"/>
       <use xlink:href="#DejaVuSans-35" x="159.033203"/>
      </g>
     </g>
    </g>
    <g id="ytick_2">
     <g id="line2d_2">
      <g>
       <use xlink:href="#m577f145ea8" x="75.69875" y="164.109756" style="stroke: #000000; stroke-width: 0.8"/>
      </g>
     </g>
     <g id="text_2">
      <!-- 25.0 -->
      <g transform="translate(28.620625 170.94835) scale(0.18 -0.18)">
       <defs>
        <path id="DejaVuSans-30" d="M 2034 4250 
Q 1547 4250 1301 3770 
Q 1056 3291 1056 2328 
Q 1056 1369 1301 889 
Q 1547 409 2034 409 
Q 2525 409 2770 889 
Q 3016 1369 3016 2328 
Q 3016 3291 2770 3770 
Q 2525 4250 2034 4250 
z
M 2034 4750 
Q 2819 4750 3233 4129 
Q 3647 3509 3647 2328 
Q 3647 1150 3233 529 
Q 2819 -91 2034 -91 
Q 1250 -91 836 529 
Q 422 1150 422 2328 
Q 422 3509 836 4129 
Q 1250 4750 2034 4750 
z
" transform="scale(0.015625)"/>
       </defs>
       <use xlink:href="#DejaVuSans-32"/>
       <use xlink:href="#DejaVuSans-35" x="63.623047"/>
       <use xlink:href="#DejaVuSans-2e" x="127.246094"/>
       <use xlink:href="#DejaVuSans-30" x="159.033203"/>
      </g>
     </g>
    </g>
    <g id="ytick_3">
     <g id="line2d_3">
      <g>
       <use xlink:href="#m577f145ea8" x="75.69875" y="114.929228" style="stroke: #000000; stroke-width: 0.8"/>
      </g>
     </g>
     <g id="text_3">
      <!-- 25.5 -->
      <g transform="translate(28.620625 121.767821) scale(0.18 -0.18)">
       <use xlink:href="#DejaVuSans-32"/>
       <use xlink:href="#DejaVuSans-35" x="63.623047"/>
       <use xlink:href="#DejaVuSans-2e" x="127.246094"/>
       <use xlink:href="#DejaVuSans-35" x="159.033203"/>
      </g>
     </g>
    </g>
    <g id="ytick_4">
     <g id="line2d_4">
      <g>
       <use xlink:href="#m577f145ea8" x="75.69875" y="65.748699" style="stroke: #000000; stroke-width: 0.8"/>
      </g>
     </g>
     <g id="text_4">
      <!-- 26.0 -->
      <g transform="translate(28.620625 72.587293) scale(0.18 -0.18)">
       <defs>
        <path id="DejaVuSans-36" d="M 2113 2584 
Q 1688 2584 1439 2293 
Q 1191 2003 1191 1497 
Q 1191 994 1439 701 
Q 1688 409 2113 409 
Q 2538 409 2786 701 
Q 3034 994 3034 1497 
Q 3034 2003 2786 2293 
Q 2538 2584 2113 2584 
z
M 3366 4563 
L 3366 3988 
Q 3128 4100 2886 4159 
Q 2644 4219 2406 4219 
Q 1781 4219 1451 3797 
Q 1122 3375 1075 2522 
Q 1259 2794 1537 2939 
Q 1816 3084 2150 3084 
Q 2853 3084 3261 2657 
Q 3669 2231 3669 1497 
Q 3669 778 3244 343 
Q 2819 -91 2113 -91 
Q 1303 -91 875 529 
Q 447 1150 447 2328 
Q 447 3434 972 4092 
Q 1497 4750 2381 4750 
Q 2619 4750 2861 4703 
Q 3103 4656 3366 4563 
z
" transform="scale(0.015625)"/>
       </defs>
       <use xlink:href="#DejaVuSans-32"/>
       <use xlink:href="#DejaVuSans-36" x="63.623047"/>
       <use xlink:href="#DejaVuSans-2e" x="127.246094"/>
       <use xlink:href="#DejaVuSans-30" x="159.033203"/>
      </g>
     </g>
    </g>
    <g id="ytick_5">
     <g id="line2d_5">
      <g>
       <use xlink:href="#m577f145ea8" x="75.69875" y="16.56817" style="stroke: #000000; stroke-width: 0.8"/>
      </g>
     </g>
     <g id="text_5">
      <!-- 26.5 -->
      <g transform="translate(28.620625 23.406764) scale(0.18 -0.18)">
       <use xlink:href="#DejaVuSans-32"/>
       <use xlink:href="#DejaVuSans-36" x="63.623047"/>
       <use xlink:href="#DejaVuSans-2e" x="127.246094"/>
       <use xlink:href="#DejaVuSans-35" x="159.033203"/>
      </g>
     </g>
    </g>
    <g id="text_6">
     <!-- $M_{eff}$ -->
     <g transform="translate(20.877187 141.084) rotate(-90) scale(0.18 -0.18)">
      <defs>
       <path id="DejaVuSans-Oblique-4d" d="M 1081 4666 
L 2028 4666 
L 2572 1522 
L 4378 4666 
L 5350 4666 
L 4441 0 
L 3828 0 
L 4622 4091 
L 2791 897 
L 2175 897 
L 1581 4103 
L 788 0 
L 172 0 
L 1081 4666 
z
" transform="scale(0.015625)"/>
       <path id="DejaVuSans-Oblique-65" d="M 3078 2063 
Q 3088 2113 3092 2166 
Q 3097 2219 3097 2272 
Q 3097 2653 2873 2875 
Q 2650 3097 2266 3097 
Q 1838 3097 1509 2826 
Q 1181 2556 1013 2059 
L 3078 2063 
z
M 3578 1613 
L 903 1613 
Q 884 1494 878 1425 
Q 872 1356 872 1306 
Q 872 872 1139 634 
Q 1406 397 1894 397 
Q 2269 397 2603 481 
Q 2938 566 3225 728 
L 3116 159 
Q 2806 34 2476 -28 
Q 2147 -91 1806 -91 
Q 1078 -91 686 257 
Q 294 606 294 1247 
Q 294 1794 489 2264 
Q 684 2734 1063 3103 
Q 1306 3334 1642 3459 
Q 1978 3584 2356 3584 
Q 2950 3584 3301 3228 
Q 3653 2872 3653 2272 
Q 3653 2128 3634 1964 
Q 3616 1800 3578 1613 
z
" transform="scale(0.015625)"/>
       <path id="DejaVuSans-Oblique-66" d="M 3059 4863 
L 2969 4384 
L 2419 4384 
Q 2106 4384 1964 4261 
Q 1822 4138 1753 3809 
L 1691 3500 
L 2638 3500 
L 2553 3053 
L 1606 3053 
L 1013 0 
L 434 0 
L 1031 3053 
L 481 3053 
L 563 3500 
L 1113 3500 
L 1159 3744 
Q 1278 4363 1576 4613 
Q 1875 4863 2516 4863 
L 3059 4863 
z
" transform="scale(0.015625)"/>
      </defs>
      <use xlink:href="#DejaVuSans-Oblique-4d" transform="translate(0 0.09375)"/>
      <use xlink:href="#DejaVuSans-Oblique-65" transform="translate(86.279297 -16.3125) scale(0.7)"/>
      <use xlink:href="#DejaVuSans-Oblique-66" transform="translate(129.345703 -16.3125) scale(0.7)"/>
      <use xlink:href="#DejaVuSans-Oblique-66" transform="translate(153.989258 -16.3125) scale(0.7)"/>
     </g>
    </g>
   </g>
   <g id="LineCollection_1">
    <path d="M 303.176901 231.525818 
L 303.176901 157.387476 
" clip-path="url(#p4ecb9597fd)" style="fill: none; stroke: #808080"/>
    <path d="M 313.762518 204.519755 
L 313.762518 157.215284 
" clip-path="url(#p4ecb9597fd)" style="fill: none; stroke: #808080"/>
    <path d="M 305.42916 181.919628 
L 305.42916 138.052368 
" clip-path="url(#p4ecb9597fd)" style="fill: none; stroke: #808080"/>
    <path d="M 332.456267 186.605243 
L 332.456267 141.229266 
" clip-path="url(#p4ecb9597fd)" style="fill: none; stroke: #808080"/>
    <path d="M 384.258222 118.44487 
L 384.258222 66.420611 
" clip-path="url(#p4ecb9597fd)" style="fill: none; stroke: #808080"/>
    <path d="M 388.762739 134.32472 
L 388.762739 84.667919 
" clip-path="url(#p4ecb9597fd)" style="fill: none; stroke: #808080"/>
    <path d="M 305.42916 202.588879 
L 305.42916 156.503115 
" clip-path="url(#p4ecb9597fd)" style="fill: none; stroke: #808080"/>
    <path d="M 327.951749 167.323498 
L 327.951749 122.848878 
" clip-path="url(#p4ecb9597fd)" style="fill: none; stroke: #808080"/>
    <path d="M 352.726597 118.594122 
L 352.726597 71.983703 
" clip-path="url(#p4ecb9597fd)" style="fill: none; stroke: #808080"/>
    <path d="M 343.717561 184.479432 
L 343.717561 135.510868 
" clip-path="url(#p4ecb9597fd)" style="fill: none; stroke: #808080"/>
    <path d="M 303.176901 138.925037 
L 303.176901 73.004592 
" clip-path="url(#p4ecb9597fd)" style="fill: none; stroke: #808080"/>
    <path d="M 368.492409 119.779218 
L 368.492409 71.667651 
" clip-path="url(#p4ecb9597fd)" style="fill: none; stroke: #808080"/>
    <path d="M 369.618539 148.578434 
L 369.618539 97.181202 
" clip-path="url(#p4ecb9597fd)" style="fill: none; stroke: #808080"/>
    <path d="M 332.456267 212.667722 
L 332.456267 139.95475 
" clip-path="url(#p4ecb9597fd)" style="fill: none; stroke: #808080"/>
    <path d="M 370.06899 88.015608 
L 370.06899 25.827139 
" clip-path="url(#p4ecb9597fd)" style="fill: none; stroke: #808080"/>
    <path d="M 360.609503 126.168208 
L 360.609503 79.471623 
" clip-path="url(#p4ecb9597fd)" style="fill: none; stroke: #808080"/>
    <path d="M 377.501445 117.893923 
L 377.501445 63.471433 
" clip-path="url(#p4ecb9597fd)" style="fill: none; stroke: #808080"/>
    <path d="M 328.852652 159.487971 
L 328.852652 120.235767 
" clip-path="url(#p4ecb9597fd)" style="fill: none; stroke: #808080"/>
    <path d="M 307.681418 186.271629 
L 307.681418 157.864009 
" clip-path="url(#p4ecb9597fd)" style="fill: none; stroke: #808080"/>
    <path d="M 344.168013 170.47776 
L 344.168013 130.642967 
" clip-path="url(#p4ecb9597fd)" style="fill: none; stroke: #808080"/>
    <path d="M 321.645424 219.337809 
L 321.645424 170.485683 
" clip-path="url(#p4ecb9597fd)" style="fill: none; stroke: #808080"/>
    <path d="M 325.69949 178.322978 
L 325.69949 90.026942 
" clip-path="url(#p4ecb9597fd)" style="fill: none; stroke: #808080"/>
    <path d="M 379.753704 132.835614 
L 379.753704 95.829627 
" clip-path="url(#p4ecb9597fd)" style="fill: none; stroke: #808080"/>
    <path d="M 355.204082 185.612257 
L 355.204082 91.321218 
" clip-path="url(#p4ecb9597fd)" style="fill: none; stroke: #808080"/>
    <path d="M 394.168161 150.802765 
L 394.168161 82.445972 
" clip-path="url(#p4ecb9597fd)" style="fill: none; stroke: #808080"/>
    <path d="M 343.267109 185.237772 
L 343.267109 86.592812 
" clip-path="url(#p4ecb9597fd)" style="fill: none; stroke: #808080"/>
    <path d="M 304.753482 183.849475 
L 304.753482 149.687284 
" clip-path="url(#p4ecb9597fd)" style="fill: none; stroke: #808080"/>
    <path d="M 371.870798 118.818009 
L 371.870798 81.461746 
" clip-path="url(#p4ecb9597fd)" style="fill: none; stroke: #808080"/>
    <path d="M 349.348208 128.266892 
L 349.348208 17.882182 
" clip-path="url(#p4ecb9597fd)" style="fill: none; stroke: #808080"/>
   </g>
   <g id="line2d_6">
    <path d="M 303.176901 205.006429 
L 311.647558 195.866708 
L 320.300381 186.858697 
L 329.135368 177.980282 
L 338.243602 169.142431 
L 347.625084 160.351775 
L 357.18873 151.695205 
L 367.025623 143.091367 
L 377.135763 134.545081 
L 387.51915 126.06056 
L 394.168161 120.774514 
L 394.168161 120.774514 
" clip-path="url(#p4ecb9597fd)" style="fill: none; stroke: #ff0000; stroke-width: 0.8; stroke-linecap: square"/>
   </g>
   <g id="line2d_7">
    <defs>
     <path id="m05b7959136" d="M 0 1.5 
C 0.397805 1.5 0.77937 1.341951 1.06066 1.06066 
C 1.341951 0.77937 1.5 0.397805 1.5 0 
C 1.5 -0.397805 1.341951 -0.77937 1.06066 -1.06066 
C 0.77937 -1.341951 0.397805 -1.5 0 -1.5 
C -0.397805 -1.5 -0.77937 -1.341951 -1.06066 -1.06066 
C -1.341951 -0.77937 -1.5 -0.397805 -1.5 0 
C -1.5 0.397805 -1.341951 0.77937 -1.06066 1.06066 
C -0.77937 1.341951 -0.397805 1.5 0 1.5 
z
" style="stroke: #000000"/>
    </defs>
    <g clip-path="url(#p4ecb9597fd)">
     <use xlink:href="#m05b7959136" x="303.176901" y="194.456647" style="stroke: #000000"/>
     <use xlink:href="#m05b7959136" x="313.762518" y="180.86752" style="stroke: #000000"/>
     <use xlink:href="#m05b7959136" x="305.42916" y="159.985998" style="stroke: #000000"/>
     <use xlink:href="#m05b7959136" x="332.456267" y="163.917255" style="stroke: #000000"/>
     <use xlink:href="#m05b7959136" x="384.258222" y="92.432741" style="stroke: #000000"/>
     <use xlink:href="#m05b7959136" x="388.762739" y="109.496319" style="stroke: #000000"/>
     <use xlink:href="#m05b7959136" x="305.42916" y="179.545997" style="stroke: #000000"/>
     <use xlink:href="#m05b7959136" x="327.951749" y="145.086188" style="stroke: #000000"/>
     <use xlink:href="#m05b7959136" x="352.726597" y="95.288912" style="stroke: #000000"/>
     <use xlink:href="#m05b7959136" x="343.717561" y="159.99515" style="stroke: #000000"/>
     <use xlink:href="#m05b7959136" x="303.176901" y="105.964814" style="stroke: #000000"/>
     <use xlink:href="#m05b7959136" x="368.492409" y="95.723434" style="stroke: #000000"/>
     <use xlink:href="#m05b7959136" x="369.618539" y="122.879818" style="stroke: #000000"/>
     <use xlink:href="#m05b7959136" x="332.456267" y="176.311236" style="stroke: #000000"/>
     <use xlink:href="#m05b7959136" x="370.06899" y="56.921373" style="stroke: #000000"/>
     <use xlink:href="#m05b7959136" x="360.609503" y="102.819915" style="stroke: #000000"/>
     <use xlink:href="#m05b7959136" x="377.501445" y="90.682678" style="stroke: #000000"/>
     <use xlink:href="#m05b7959136" x="328.852652" y="139.861869" style="stroke: #000000"/>
     <use xlink:href="#m05b7959136" x="307.681418" y="172.067819" style="stroke: #000000"/>
     <use xlink:href="#m05b7959136" x="344.168013" y="150.560363" style="stroke: #000000"/>
     <use xlink:href="#m05b7959136" x="321.645424" y="194.911746" style="stroke: #000000"/>
     <use xlink:href="#m05b7959136" x="325.69949" y="134.17496" style="stroke: #000000"/>
     <use xlink:href="#m05b7959136" x="379.753704" y="114.332621" style="stroke: #000000"/>
     <use xlink:href="#m05b7959136" x="355.204082" y="138.466737" style="stroke: #000000"/>
     <use xlink:href="#m05b7959136" x="394.168161" y="116.624368" style="stroke: #000000"/>
     <use xlink:href="#m05b7959136" x="343.267109" y="135.915292" style="stroke: #000000"/>
     <use xlink:href="#m05b7959136" x="304.753482" y="166.76838" style="stroke: #000000"/>
     <use xlink:href="#m05b7959136" x="371.870798" y="100.139878" style="stroke: #000000"/>
     <use xlink:href="#m05b7959136" x="349.348208" y="73.074537" style="stroke: #000000"/>
    </g>
   </g>
   <g id="patch_3">
    <path d="M 75.69875 242.208 
L 75.69875 7.2 
" style="fill: none; stroke: #000000; stroke-width: 0.8; stroke-linejoin: miter; stroke-linecap: square"/>
   </g>
   <g id="patch_4">
    <path d="M 416.69075 242.208 
L 416.69075 7.2 
" style="fill: none; stroke: #000000; stroke-width: 0.8; stroke-linejoin: miter; stroke-linecap: square"/>
   </g>
   <g id="patch_5">
    <path d="M 75.69875 242.208 
L 416.69075 242.208 
" style="fill: none; stroke: #000000; stroke-width: 0.8; stroke-linejoin: miter; stroke-linecap: square"/>
   </g>
   <g id="patch_6">
    <path d="M 75.69875 7.2 
L 416.69075 7.2 
" style="fill: none; stroke: #000000; stroke-width: 0.8; stroke-linejoin: miter; stroke-linecap: square"/>
   </g>
  </g>
  <g id="axes_2">
   <g id="patch_7">
    <path d="M 75.69875 318.24 
L 416.69075 318.24 
L 416.69075 249.12 
L 75.69875 249.12 
z
" style="fill: #ffffff"/>
   </g>
   <g id="PathCollection_1">
    <defs>
     <path id="med98defb3d" d="M 0 1 
C 0.265203 1 0.51958 0.894634 0.707107 0.707107 
C 0.894634 0.51958 1 0.265203 1 0 
C 1 -0.265203 0.894634 -0.51958 0.707107 -0.707107 
C 0.51958 -0.894634 0.265203 -1 0 -1 
C -0.265203 -1 -0.51958 -0.894634 -0.707107 -0.707107 
C -0.894634 -0.51958 -1 -0.265203 -1 0 
C -1 0.265203 -0.894634 0.51958 -0.707107 0.707107 
C -0.51958 0.894634 -0.265203 1 0 1 
z
" style="stroke: #ff0000"/>
    </defs>
    <g clip-path="url(#pbf479dc4bc)">
     <use xlink:href="#med98defb3d" x="303.176901" y="299.81445" style="fill: #ff0000; stroke: #ff0000"/>
     <use xlink:href="#med98defb3d" x="313.762518" y="295.79687" style="fill: #ff0000; stroke: #ff0000"/>
     <use xlink:href="#med98defb3d" x="305.42916" y="273.749913" style="fill: #ff0000; stroke: #ff0000"/>
     <use xlink:href="#med98defb3d" x="332.456267" y="296.797662" style="fill: #ff0000; stroke: #ff0000"/>
     <use xlink:href="#med98defb3d" x="384.258222" y="282.349555" style="fill: #ff0000; stroke: #ff0000"/>
     <use xlink:href="#med98defb3d" x="388.762739" y="294.424492" style="fill: #ff0000; stroke: #ff0000"/>
     <use xlink:href="#med98defb3d" x="305.42916" y="288.58311" style="fill: #ff0000; stroke: #ff0000"/>
     <use xlink:href="#med98defb3d" x="327.951749" y="280.178942" style="fill: #ff0000; stroke: #ff0000"/>
     <use xlink:href="#med98defb3d" x="352.726597" y="263.49005" style="fill: #ff0000; stroke: #ff0000"/>
     <use xlink:href="#med98defb3d" x="343.717561" y="301.735106" style="fill: #ff0000; stroke: #ff0000"/>
     <use xlink:href="#med98defb3d" x="303.176901" y="256.99111" style="fill: #ff0000; stroke: #ff0000"/>
     <use xlink:href="#med98defb3d" x="368.492409" y="274.12013" style="fill: #ff0000; stroke: #ff0000"/>
     <use xlink:href="#med98defb3d" x="369.618539" y="293.273368" style="fill: #ff0000; stroke: #ff0000"/>
     <use xlink:href="#med98defb3d" x="332.456267" y="304.982755" style="fill: #ff0000; stroke: #ff0000"/>
     <use xlink:href="#med98defb3d" x="370.06899" y="261.986968" style="fill: #ff0000; stroke: #ff0000"/>
     <use xlink:href="#med98defb3d" x="360.609503" y="273.381115" style="fill: #ff0000; stroke: #ff0000"/>
     <use xlink:href="#med98defb3d" x="377.501445" y="279.095127" style="fill: #ff0000; stroke: #ff0000"/>
     <use xlink:href="#med98defb3d" x="328.852652" y="273.495569" style="fill: #ff0000; stroke: #ff0000"/>
     <use xlink:href="#med98defb3d" x="307.681418" y="273.220593" style="fill: #ff0000; stroke: #ff0000"/>
     <use xlink:href="#med98defb3d" x="344.168013" y="294.02353" style="fill: #ff0000; stroke: #ff0000"/>
     <use xlink:href="#med98defb3d" x="321.645424" y="310.36889" style="fill: #ff0000; stroke: #ff0000"/>
     <use xlink:href="#med98defb3d" x="325.69949" y="287.456606" style="fill: #ff0000; stroke: #ff0000"/>
     <use xlink:href="#med98defb3d" x="379.753704" y="288.941167" style="fill: #ff0000; stroke: #ff0000"/>
     <use xlink:href="#med98defb3d" x="355.204082" y="299.285842" style="fill: #ff0000; stroke: #ff0000"/>
     <use xlink:href="#med98defb3d" x="394.168161" y="302.383127" style="fill: #ff0000; stroke: #ff0000"/>
     <use xlink:href="#med98defb3d" x="343.267109" y="295.204082" style="fill: #ff0000; stroke: #ff0000"/>
     <use xlink:href="#med98defb3d" x="304.753482" y="270.64475" style="fill: #ff0000; stroke: #ff0000"/>
     <use xlink:href="#med98defb3d" x="371.870798" y="271.576981" style="fill: #ff0000; stroke: #ff0000"/>
     <use xlink:href="#med98defb3d" x="349.348208" y="279.852196" style="fill: #ff0000; stroke: #ff0000"/>
    </g>
   </g>
   <g id="matplotlib.axis_3">
    <g id="xtick_5">
     <g id="line2d_8">
      <defs>
       <path id="mb4bb540d5d" d="M 0 0 
L 0 3.5 
" style="stroke: #000000; stroke-width: 0.8"/>
      </defs>
      <g>
       <use xlink:href="#mb4bb540d5d" x="75.69875" y="318.24" style="stroke: #000000; stroke-width: 0.8"/>
      </g>
     </g>
     <g id="text_7">
      <!-- 0.0 -->
      <g transform="translate(61.385937 338.917188) scale(0.18 -0.18)">
       <use xlink:href="#DejaVuSans-30"/>
       <use xlink:href="#DejaVuSans-2e" x="63.623047"/>
       <use xlink:href="#DejaVuSans-30" x="95.410156"/>
      </g>
     </g>
    </g>
    <g id="xtick_6">
     <g id="line2d_9">
      <g>
       <use xlink:href="#mb4bb540d5d" x="188.311696" y="318.24" style="stroke: #000000; stroke-width: 0.8"/>
      </g>
     </g>
     <g id="text_8">
      <!-- 0.5 -->
      <g transform="translate(173.998883 338.917188) scale(0.18 -0.18)">
       <use xlink:href="#DejaVuSans-30"/>
       <use xlink:href="#DejaVuSans-2e" x="63.623047"/>
       <use xlink:href="#DejaVuSans-35" x="95.410156"/>
      </g>
     </g>
    </g>
    <g id="xtick_7">
     <g id="line2d_10">
      <g>
       <use xlink:href="#mb4bb540d5d" x="300.924642" y="318.24" style="stroke: #000000; stroke-width: 0.8"/>
      </g>
     </g>
     <g id="text_9">
      <!-- 1.0 -->
      <g transform="translate(286.611829 338.917188) scale(0.18 -0.18)">
       <defs>
        <path id="DejaVuSans-31" d="M 794 531 
L 1825 531 
L 1825 4091 
L 703 3866 
L 703 4441 
L 1819 4666 
L 2450 4666 
L 2450 531 
L 3481 531 
L 3481 0 
L 794 0 
L 794 531 
z
" transform="scale(0.015625)"/>
       </defs>
       <use xlink:href="#DejaVuSans-31"/>
       <use xlink:href="#DejaVuSans-2e" x="63.623047"/>
       <use xlink:href="#DejaVuSans-30" x="95.410156"/>
      </g>
     </g>
    </g>
    <g id="xtick_8">
     <g id="line2d_11">
      <g>
       <use xlink:href="#mb4bb540d5d" x="413.537588" y="318.24" style="stroke: #000000; stroke-width: 0.8"/>
      </g>
     </g>
     <g id="text_10">
      <!-- 1.5 -->
      <g transform="translate(399.224775 338.917188) scale(0.18 -0.18)">
       <use xlink:href="#DejaVuSans-31"/>
       <use xlink:href="#DejaVuSans-2e" x="63.623047"/>
       <use xlink:href="#DejaVuSans-35" x="95.410156"/>
      </g>
     </g>
    </g>
    <g id="text_11">
     <!-- $Redshift (z)$ -->
     <g transform="translate(197.32475 360.337813) scale(0.18 -0.18)">
      <defs>
       <path id="DejaVuSans-Oblique-52" d="M 1613 4147 
L 1294 2491 
L 2106 2491 
Q 2584 2491 2879 2755 
Q 3175 3019 3175 3444 
Q 3175 3784 2976 3965 
Q 2778 4147 2406 4147 
L 1613 4147 
z
M 2772 2241 
Q 2972 2194 3105 2009 
Q 3238 1825 3413 1275 
L 3809 0 
L 3144 0 
L 2778 1197 
Q 2638 1659 2453 1815 
Q 2269 1972 1888 1972 
L 1191 1972 
L 806 0 
L 172 0 
L 1081 4666 
L 2503 4666 
Q 3150 4666 3495 4373 
Q 3841 4081 3841 3531 
Q 3841 3044 3547 2687 
Q 3253 2331 2772 2241 
z
" transform="scale(0.015625)"/>
       <path id="DejaVuSans-Oblique-64" d="M 2675 525 
Q 2444 222 2128 65 
Q 1813 -91 1428 -91 
Q 903 -91 598 267 
Q 294 625 294 1247 
Q 294 1766 478 2236 
Q 663 2706 1013 3078 
Q 1244 3325 1534 3454 
Q 1825 3584 2144 3584 
Q 2481 3584 2739 3421 
Q 2997 3259 3138 2956 
L 3513 4863 
L 4091 4863 
L 3144 0 
L 2566 0 
L 2675 525 
z
M 891 1350 
Q 891 897 1095 644 
Q 1300 391 1663 391 
Q 1931 391 2161 520 
Q 2391 650 2566 903 
Q 2750 1166 2856 1509 
Q 2963 1853 2963 2188 
Q 2963 2622 2758 2865 
Q 2553 3109 2194 3109 
Q 1922 3109 1687 2981 
Q 1453 2853 1288 2613 
Q 1106 2353 998 2009 
Q 891 1666 891 1350 
z
" transform="scale(0.015625)"/>
       <path id="DejaVuSans-Oblique-73" d="M 3200 3397 
L 3091 2853 
Q 2863 2978 2609 3040 
Q 2356 3103 2088 3103 
Q 1634 3103 1373 2948 
Q 1113 2794 1113 2528 
Q 1113 2219 1719 2053 
Q 1766 2041 1788 2034 
L 1972 1978 
Q 2547 1819 2739 1644 
Q 2931 1469 2931 1166 
Q 2931 609 2489 259 
Q 2047 -91 1331 -91 
Q 1053 -91 747 -37 
Q 441 16 72 128 
L 184 722 
Q 500 559 806 475 
Q 1113 391 1394 391 
Q 1816 391 2080 572 
Q 2344 753 2344 1031 
Q 2344 1331 1650 1516 
L 1591 1531 
L 1394 1581 
Q 956 1697 753 1886 
Q 550 2075 550 2369 
Q 550 2928 970 3256 
Q 1391 3584 2113 3584 
Q 2397 3584 2667 3537 
Q 2938 3491 3200 3397 
z
" transform="scale(0.015625)"/>
       <path id="DejaVuSans-Oblique-68" d="M 3566 2113 
L 3156 0 
L 2578 0 
L 2988 2091 
Q 3016 2238 3031 2350 
Q 3047 2463 3047 2528 
Q 3047 2791 2881 2937 
Q 2716 3084 2419 3084 
Q 1956 3084 1617 2771 
Q 1278 2459 1178 1941 
L 800 0 
L 225 0 
L 1172 4863 
L 1747 4863 
L 1375 2950 
Q 1594 3244 1934 3414 
Q 2275 3584 2650 3584 
Q 3113 3584 3367 3334 
Q 3622 3084 3622 2631 
Q 3622 2519 3608 2391 
Q 3594 2263 3566 2113 
z
" transform="scale(0.015625)"/>
       <path id="DejaVuSans-Oblique-69" d="M 1172 4863 
L 1747 4863 
L 1606 4134 
L 1031 4134 
L 1172 4863 
z
M 909 3500 
L 1484 3500 
L 800 0 
L 225 0 
L 909 3500 
z
" transform="scale(0.015625)"/>
       <path id="DejaVuSans-Oblique-74" d="M 2706 3500 
L 2619 3053 
L 1472 3053 
L 1100 1153 
Q 1081 1047 1072 975 
Q 1063 903 1063 863 
Q 1063 663 1183 572 
Q 1303 481 1569 481 
L 2150 481 
L 2053 0 
L 1503 0 
Q 991 0 739 200 
Q 488 400 488 806 
Q 488 878 497 964 
Q 506 1050 525 1153 
L 897 3053 
L 409 3053 
L 500 3500 
L 978 3500 
L 1172 4494 
L 1747 4494 
L 1556 3500 
L 2706 3500 
z
" transform="scale(0.015625)"/>
       <path id="DejaVuSans-28" d="M 1984 4856 
Q 1566 4138 1362 3434 
Q 1159 2731 1159 2009 
Q 1159 1288 1364 580 
Q 1569 -128 1984 -844 
L 1484 -844 
Q 1016 -109 783 600 
Q 550 1309 550 2009 
Q 550 2706 781 3412 
Q 1013 4119 1484 4856 
L 1984 4856 
z
" transform="scale(0.015625)"/>
       <path id="DejaVuSans-Oblique-7a" d="M 744 3500 
L 3475 3500 
L 3372 2975 
L 738 459 
L 2913 459 
L 2822 0 
L -19 0 
L 84 525 
L 2719 3041 
L 653 3041 
L 744 3500 
z
" transform="scale(0.015625)"/>
       <path id="DejaVuSans-29" d="M 513 4856 
L 1013 4856 
Q 1481 4119 1714 3412 
Q 1947 2706 1947 2009 
Q 1947 1309 1714 600 
Q 1481 -109 1013 -844 
L 513 -844 
Q 928 -128 1133 580 
Q 1338 1288 1338 2009 
Q 1338 2731 1133 3434 
Q 928 4138 513 4856 
z
" transform="scale(0.015625)"/>
      </defs>
      <use xlink:href="#DejaVuSans-Oblique-52" transform="translate(0 0.015625)"/>
      <use xlink:href="#DejaVuSans-Oblique-65" transform="translate(69.482422 0.015625)"/>
      <use xlink:href="#DejaVuSans-Oblique-64" transform="translate(131.005859 0.015625)"/>
      <use xlink:href="#DejaVuSans-Oblique-73" transform="translate(194.482422 0.015625)"/>
      <use xlink:href="#DejaVuSans-Oblique-68" transform="translate(246.582031 0.015625)"/>
      <use xlink:href="#DejaVuSans-Oblique-69" transform="translate(309.960938 0.015625)"/>
      <use xlink:href="#DejaVuSans-Oblique-66" transform="translate(337.744141 0.015625)"/>
      <use xlink:href="#DejaVuSans-Oblique-74" transform="translate(372.949219 0.015625)"/>
      <use xlink:href="#DejaVuSans-28" transform="translate(412.158203 0.015625)"/>
      <use xlink:href="#DejaVuSans-Oblique-7a" transform="translate(451.171875 0.015625)"/>
      <use xlink:href="#DejaVuSans-29" transform="translate(503.662109 0.015625)"/>
     </g>
    </g>
   </g>
   <g id="matplotlib.axis_4">
    <g id="ytick_6">
     <g id="line2d_12">
      <g>
       <use xlink:href="#m577f145ea8" x="75.69875" y="304.294642" style="stroke: #000000; stroke-width: 0.8"/>
      </g>
     </g>
     <g id="text_12">
      <!-- 0.0 -->
      <g transform="translate(40.073125 311.133235) scale(0.18 -0.18)">
       <use xlink:href="#DejaVuSans-30"/>
       <use xlink:href="#DejaVuSans-2e" x="63.623047"/>
       <use xlink:href="#DejaVuSans-30" x="95.410156"/>
      </g>
     </g>
    </g>
    <g id="ytick_7">
     <g id="line2d_13">
      <g>
       <use xlink:href="#m577f145ea8" x="75.69875" y="264.939091" style="stroke: #000000; stroke-width: 0.8"/>
      </g>
     </g>
     <g id="text_13">
      <!-- 2.5 -->
      <g transform="translate(40.073125 271.777685) scale(0.18 -0.18)">
       <use xlink:href="#DejaVuSans-32"/>
       <use xlink:href="#DejaVuSans-2e" x="63.623047"/>
       <use xlink:href="#DejaVuSans-35" x="95.410156"/>
      </g>
     </g>
    </g>
   </g>
   <g id="line2d_14">
    <path d="M 75.69875 304.294642 
L 416.69075 304.294642 
" clip-path="url(#pbf479dc4bc)" style="fill: none; stroke-dasharray: 5.55,2.4; stroke-dashoffset: 0; stroke: #000000; stroke-opacity: 0.5; stroke-width: 1.5"/>
   </g>
   <g id="line2d_15">
    <path d="M 75.69875 288.552421 
L 416.69075 288.552421 
" clip-path="url(#pbf479dc4bc)" style="fill: none; stroke-dasharray: 1.5,2.475; stroke-dashoffset: 0; stroke: #000000; stroke-opacity: 0.3; stroke-width: 1.5"/>
   </g>
   <g id="line2d_16">
    <path d="M 75.69875 320.036862 
L 416.69075 320.036862 
" clip-path="url(#pbf479dc4bc)" style="fill: none; stroke-dasharray: 1.5,2.475; stroke-dashoffset: 0; stroke: #000000; stroke-opacity: 0.3; stroke-width: 1.5"/>
   </g>
   <g id="patch_8">
    <path d="M 75.69875 318.24 
L 75.69875 249.12 
" style="fill: none; stroke: #000000; stroke-width: 0.8; stroke-linejoin: miter; stroke-linecap: square"/>
   </g>
   <g id="patch_9">
    <path d="M 416.69075 318.24 
L 416.69075 249.12 
" style="fill: none; stroke: #000000; stroke-width: 0.8; stroke-linejoin: miter; stroke-linecap: square"/>
   </g>
   <g id="patch_10">
    <path d="M 75.69875 318.24 
L 416.69075 318.24 
" style="fill: none; stroke: #000000; stroke-width: 0.8; stroke-linejoin: miter; stroke-linecap: square"/>
   </g>
   <g id="patch_11">
    <path d="M 75.69875 249.12 
L 416.69075 249.12 
" style="fill: none; stroke: #000000; stroke-width: 0.8; stroke-linejoin: miter; stroke-linecap: square"/>
   </g>
  </g>
  <g id="axes_3">
   <g id="patch_12">
    <path d="M 421.29875 318.24 
L 485.81075 318.24 
L 485.81075 249.12 
L 421.29875 249.12 
z
" style="fill: #ffffff"/>
   </g>
   <g id="patch_13">
    <path d="M 421.29875 306.53181 
L 430.075893 306.53181 
L 430.075893 302.590498 
L 421.29875 302.590498 
z
" clip-path="url(#pb3a412e047)" style="fill: #ff0000"/>
   </g>
   <g id="patch_14">
    <path d="M 421.29875 302.590498 
L 447.630179 302.590498 
L 447.630179 298.649187 
L 421.29875 298.649187 
z
" clip-path="url(#pb3a412e047)" style="fill: #ff0000"/>
   </g>
   <g id="patch_15">
    <path d="M 421.29875 298.649187 
L 438.853036 298.649187 
L 438.853036 294.707875 
L 421.29875 294.707875 
z
" clip-path="url(#pb3a412e047)" style="fill: #ff0000"/>
   </g>
   <g id="patch_16">
    <path d="M 421.29875 294.707875 
L 473.961607 294.707875 
L 473.961607 290.766563 
L 421.29875 290.766563 
z
" clip-path="url(#pb3a412e047)" style="fill: #ff0000"/>
   </g>
   <g id="patch_17">
    <path d="M 421.29875 290.766563 
L 438.853036 290.766563 
L 438.853036 286.825251 
L 421.29875 286.825251 
z
" clip-path="url(#pb3a412e047)" style="fill: #ff0000"/>
   </g>
   <g id="patch_18">
    <path d="M 421.29875 286.825251 
L 430.075893 286.825251 
L 430.075893 282.883939 
L 421.29875 282.883939 
z
" clip-path="url(#pb3a412e047)" style="fill: #ff0000"/>
   </g>
   <g id="patch_19">
    <path d="M 421.29875 282.883939 
L 447.630179 282.883939 
L 447.630179 278.942627 
L 421.29875 278.942627 
z
" clip-path="url(#pb3a412e047)" style="fill: #ff0000"/>
   </g>
   <g id="patch_20">
    <path d="M 421.29875 278.942627 
L 430.075893 278.942627 
L 430.075893 275.001316 
L 421.29875 275.001316 
z
" clip-path="url(#pb3a412e047)" style="fill: #ff0000"/>
   </g>
   <g id="patch_21">
    <path d="M 421.29875 275.001316 
L 482.73875 275.001316 
L 482.73875 271.060004 
L 421.29875 271.060004 
z
" clip-path="url(#pb3a412e047)" style="fill: #ff0000"/>
   </g>
   <g id="patch_22">
    <path d="M 421.29875 271.060004 
L 421.29875 271.060004 
L 421.29875 267.118692 
L 421.29875 267.118692 
z
" clip-path="url(#pb3a412e047)" style="fill: #ff0000"/>
   </g>
   <g id="patch_23">
    <path d="M 421.29875 267.118692 
L 438.853036 267.118692 
L 438.853036 263.17738 
L 421.29875 263.17738 
z
" clip-path="url(#pb3a412e047)" style="fill: #ff0000"/>
   </g>
   <g id="patch_24">
    <path d="M 421.29875 263.17738 
L 430.075893 263.17738 
L 430.075893 259.236068 
L 421.29875 259.236068 
z
" clip-path="url(#pb3a412e047)" style="fill: #ff0000"/>
   </g>
   <g id="matplotlib.axis_5">
    <g id="xtick_9">
     <g id="line2d_17">
      <g>
       <use xlink:href="#mb4bb540d5d" x="435.683239" y="318.24" style="stroke: #000000; stroke-width: 0.8"/>
      </g>
     </g>
     <g id="text_14">
      <!-- 0.2 -->
      <g transform="translate(421.370426 338.917188) scale(0.18 -0.18)">
       <use xlink:href="#DejaVuSans-30"/>
       <use xlink:href="#DejaVuSans-2e" x="63.623047"/>
       <use xlink:href="#DejaVuSans-32" x="95.410156"/>
      </g>
     </g>
    </g>
    <g id="xtick_10">
     <g id="line2d_18">
      <g>
       <use xlink:href="#mb4bb540d5d" x="450.067728" y="318.24" style="stroke: #000000; stroke-width: 0.8"/>
      </g>
     </g>
     <g id="text_15">
      <!-- 0.4 -->
      <g transform="translate(435.754915 338.917188) scale(0.18 -0.18)">
       <use xlink:href="#DejaVuSans-30"/>
       <use xlink:href="#DejaVuSans-2e" x="63.623047"/>
       <use xlink:href="#DejaVuSans-34" x="95.410156"/>
      </g>
     </g>
    </g>
   </g>
   <g id="matplotlib.axis_6">
    <g id="ytick_8"/>
    <g id="ytick_9"/>
   </g>
   <g id="line2d_19">
    <path d="M 421.29875 301.149681 
L 485.81075 301.149681 
" clip-path="url(#pb3a412e047)" style="fill: none; stroke-dasharray: 5.55,2.4; stroke-dashoffset: 0; stroke: #000000; stroke-opacity: 0.5; stroke-width: 1.5"/>
   </g>
   <g id="line2d_20">
    <path d="M 421.29875 287.201181 
L 485.81075 287.201181 
" clip-path="url(#pb3a412e047)" style="fill: none; stroke-dasharray: 1.5,2.475; stroke-dashoffset: 0; stroke: #000000; stroke-opacity: 0.3; stroke-width: 1.5"/>
   </g>
   <g id="line2d_21">
    <path d="M 421.29875 315.098182 
L 485.81075 315.098182 
" clip-path="url(#pb3a412e047)" style="fill: none; stroke-dasharray: 1.5,2.475; stroke-dashoffset: 0; stroke: #000000; stroke-opacity: 0.3; stroke-width: 1.5"/>
   </g>
   <g id="line2d_22">
    <path d="M 423.172934 313.50606 
L 424.007723 311.544283 
L 425.037804 309.705116 
L 426.297044 307.927256 
L 427.783955 306.2107 
L 429.619186 304.432839 
L 431.91073 302.532367 
L 434.780518 300.447979 
L 438.811281 297.81184 
L 447.650148 292.110424 
L 450.015651 290.271258 
L 451.568727 288.799925 
L 452.62645 287.512508 
L 453.311553 286.347703 
L 453.705165 285.244203 
L 453.839914 284.202009 
L 453.741417 283.159814 
L 453.411788 282.11762 
L 452.818746 281.01412 
L 451.935882 279.849315 
L 450.680596 278.561898 
L 448.856542 277.029259 
L 446.29876 275.190093 
L 442.209398 272.553954 
L 434.571293 267.649511 
L 431.491542 265.381205 
L 429.191231 263.419428 
L 427.366682 261.580261 
L 425.906001 259.802401 
L 424.724595 258.02454 
L 423.765394 256.185373 
L 422.993984 254.223596 
L 422.434553 252.261818 
L 422.434553 252.261818 
" clip-path="url(#pb3a412e047)" style="fill: none; stroke: #000000; stroke-width: 1.5; stroke-linecap: square"/>
   </g>
   <g id="patch_25">
    <path d="M 421.29875 318.24 
L 421.29875 249.12 
" style="fill: none; stroke: #000000; stroke-width: 0.8; stroke-linejoin: miter; stroke-linecap: square"/>
   </g>
   <g id="patch_26">
    <path d="M 485.81075 318.24 
L 485.81075 249.12 
" style="fill: none; stroke: #000000; stroke-width: 0.8; stroke-linejoin: miter; stroke-linecap: square"/>
   </g>
   <g id="patch_27">
    <path d="M 421.29875 318.24 
L 485.81075 318.24 
" style="fill: none; stroke: #000000; stroke-width: 0.8; stroke-linejoin: miter; stroke-linecap: square"/>
   </g>
   <g id="patch_28">
    <path d="M 421.29875 249.12 
L 485.81075 249.12 
" style="fill: none; stroke: #000000; stroke-width: 0.8; stroke-linejoin: miter; stroke-linecap: square"/>
   </g>
  </g>
 </g>
 <defs>
  <clipPath id="p4ecb9597fd">
   <rect x="75.69875" y="7.2" width="340.992" height="235.008"/>
  </clipPath>
  <clipPath id="pbf479dc4bc">
   <rect x="75.69875" y="249.12" width="340.992" height="69.12"/>
  </clipPath>
  <clipPath id="pb3a412e047">
   <rect x="421.29875" y="249.12" width="64.512" height="69.12"/>
  </clipPath>
 </defs>
</svg>
